<mxfile host="www.draw.io" modified="2020-04-08T01:22:35.528Z" agent="5.0 (Macintosh; Intel Mac OS X 10_15_3) AppleWebKit/537.36 (KHTML, like Gecko) Chrome/80.0.3987.149 Safari/537.36" etag="Dumkt-3NDwjeB1pN4hK7" version="12.9.8" type="github" pages="5">
  <diagram id="tLRsJGVEqHHKasmLKiZ0" name="HoneyBee">
    <mxGraphModel dx="524" dy="258" grid="1" gridSize="10" guides="1" tooltips="1" connect="1" arrows="1" fold="1" page="1" pageScale="1" pageWidth="2400" pageHeight="2400" math="0" shadow="0" extFonts="Computer Modern^https://fonts.googleapis.com/css?family=Computer+Modern">
      <root>
        <mxCell id="yucTcaGxGMNIJf8wDbqY-0" />
        <mxCell id="yucTcaGxGMNIJf8wDbqY-1" parent="yucTcaGxGMNIJf8wDbqY-0" />
        <mxCell id="uqWX5sFfroWvKUeDKfwF-4" style="edgeStyle=orthogonalEdgeStyle;rounded=0;orthogonalLoop=1;jettySize=auto;html=1;exitX=1;exitY=0.5;exitDx=0;exitDy=0;endArrow=none;endFill=0;strokeWidth=3;fontFamily=Computer Modern;entryX=0;entryY=0.5;entryDx=0;entryDy=0;" parent="yucTcaGxGMNIJf8wDbqY-1" source="uqWX5sFfroWvKUeDKfwF-0" target="uqWX5sFfroWvKUeDKfwF-6" edge="1">
          <mxGeometry relative="1" as="geometry">
            <mxPoint x="560" y="260" as="targetPoint" />
          </mxGeometry>
        </mxCell>
        <mxCell id="uqWX5sFfroWvKUeDKfwF-0" value="" style="whiteSpace=wrap;html=1;aspect=fixed;align=left;fillColor=#FBBC05;strokeColor=#000000;strokeWidth=2;fontFamily=Computer Modern;" parent="yucTcaGxGMNIJf8wDbqY-1" vertex="1">
          <mxGeometry x="280" y="160" width="200" height="200" as="geometry" />
        </mxCell>
        <mxCell id="uqWX5sFfroWvKUeDKfwF-1" value="&lt;b&gt;&lt;font style=&quot;font-size: 28px&quot;&gt;HoneyBee&lt;/font&gt;&lt;br&gt;&lt;/b&gt;" style="text;html=1;strokeColor=none;fillColor=none;align=center;verticalAlign=middle;whiteSpace=wrap;rounded=0;shadow=0;glass=0;comic=0;fontSize=22;fontColor=#000000;fontFamily=Computer Modern;" parent="yucTcaGxGMNIJf8wDbqY-1" vertex="1">
          <mxGeometry x="360" y="250" width="40" height="20" as="geometry" />
        </mxCell>
        <mxCell id="uqWX5sFfroWvKUeDKfwF-6" value="&lt;span style=&quot;font-size: 18px&quot;&gt;Collisions&lt;/span&gt;" style="text;html=1;strokeColor=none;fillColor=none;align=center;verticalAlign=middle;whiteSpace=wrap;rounded=0;fontFamily=Computer Modern;" parent="yucTcaGxGMNIJf8wDbqY-1" vertex="1">
          <mxGeometry x="600" y="245" width="80" height="30" as="geometry" />
        </mxCell>
        <mxCell id="uqWX5sFfroWvKUeDKfwF-16" value="" style="endArrow=none;html=1;strokeWidth=1;fontFamily=Computer Modern;fontSize=8;" parent="yucTcaGxGMNIJf8wDbqY-1" edge="1">
          <mxGeometry width="50" height="50" relative="1" as="geometry">
            <mxPoint x="210" y="210" as="sourcePoint" />
            <mxPoint x="230" y="190" as="targetPoint" />
          </mxGeometry>
        </mxCell>
        <mxCell id="uqWX5sFfroWvKUeDKfwF-17" value="" style="endArrow=none;html=1;strokeWidth=1;fontFamily=Computer Modern;fontSize=8;" parent="yucTcaGxGMNIJf8wDbqY-1" edge="1">
          <mxGeometry width="50" height="50" relative="1" as="geometry">
            <mxPoint x="210" y="230" as="sourcePoint" />
            <mxPoint x="230" y="210" as="targetPoint" />
          </mxGeometry>
        </mxCell>
        <mxCell id="uqWX5sFfroWvKUeDKfwF-18" value="" style="endArrow=none;html=1;strokeWidth=1;fontFamily=Computer Modern;fontSize=8;" parent="yucTcaGxGMNIJf8wDbqY-1" edge="1">
          <mxGeometry width="50" height="50" relative="1" as="geometry">
            <mxPoint x="210" y="250" as="sourcePoint" />
            <mxPoint x="230" y="230" as="targetPoint" />
          </mxGeometry>
        </mxCell>
        <mxCell id="uqWX5sFfroWvKUeDKfwF-23" style="edgeStyle=orthogonalEdgeStyle;rounded=0;orthogonalLoop=1;jettySize=auto;html=1;exitX=1;exitY=0.5;exitDx=0;exitDy=0;entryX=-0.005;entryY=0.2;entryDx=0;entryDy=0;entryPerimeter=0;startArrow=none;startFill=0;endArrow=none;endFill=0;strokeWidth=2;fontFamily=Computer Modern;fontSize=8;" parent="yucTcaGxGMNIJf8wDbqY-1" source="uqWX5sFfroWvKUeDKfwF-22" target="uqWX5sFfroWvKUeDKfwF-0" edge="1">
          <mxGeometry relative="1" as="geometry">
            <Array as="points">
              <mxPoint x="140" y="220" />
              <mxPoint x="140" y="200" />
            </Array>
          </mxGeometry>
        </mxCell>
        <mxCell id="uqWX5sFfroWvKUeDKfwF-24" style="edgeStyle=orthogonalEdgeStyle;rounded=0;orthogonalLoop=1;jettySize=auto;html=1;exitX=1;exitY=0.5;exitDx=0;exitDy=0;entryX=0;entryY=0.3;entryDx=0;entryDy=0;entryPerimeter=0;startArrow=none;startFill=0;endArrow=none;endFill=0;strokeWidth=2;fontFamily=Computer Modern;fontSize=8;" parent="yucTcaGxGMNIJf8wDbqY-1" source="uqWX5sFfroWvKUeDKfwF-22" target="uqWX5sFfroWvKUeDKfwF-0" edge="1">
          <mxGeometry relative="1" as="geometry" />
        </mxCell>
        <mxCell id="uqWX5sFfroWvKUeDKfwF-26" style="edgeStyle=orthogonalEdgeStyle;rounded=0;orthogonalLoop=1;jettySize=auto;html=1;exitX=1;exitY=0.5;exitDx=0;exitDy=0;entryX=0.005;entryY=0.4;entryDx=0;entryDy=0;entryPerimeter=0;startArrow=none;startFill=0;endArrow=none;endFill=0;strokeWidth=2;fontFamily=Computer Modern;fontSize=8;" parent="yucTcaGxGMNIJf8wDbqY-1" source="uqWX5sFfroWvKUeDKfwF-22" target="uqWX5sFfroWvKUeDKfwF-0" edge="1">
          <mxGeometry relative="1" as="geometry">
            <Array as="points">
              <mxPoint x="140" y="220" />
              <mxPoint x="140" y="240" />
            </Array>
          </mxGeometry>
        </mxCell>
        <mxCell id="uqWX5sFfroWvKUeDKfwF-22" value="&lt;span style=&quot;font-size: 18px&quot;&gt;Point 1&lt;/span&gt;" style="text;html=1;strokeColor=none;fillColor=none;align=center;verticalAlign=middle;whiteSpace=wrap;rounded=0;fontFamily=Computer Modern;" parent="yucTcaGxGMNIJf8wDbqY-1" vertex="1">
          <mxGeometry x="40" y="200" width="60" height="40" as="geometry" />
        </mxCell>
        <mxCell id="uqWX5sFfroWvKUeDKfwF-27" value="&lt;span style=&quot;font-size: 14px;&quot;&gt;x&lt;/span&gt;" style="text;html=1;strokeColor=none;fillColor=none;align=left;verticalAlign=middle;whiteSpace=wrap;rounded=0;fontFamily=Computer Modern;fontSize=14;" parent="yucTcaGxGMNIJf8wDbqY-1" vertex="1">
          <mxGeometry x="140" y="180" width="30" height="20" as="geometry" />
        </mxCell>
        <mxCell id="uqWX5sFfroWvKUeDKfwF-28" value="&lt;span style=&quot;font-size: 14px;&quot;&gt;y&lt;/span&gt;" style="text;html=1;strokeColor=none;fillColor=none;align=left;verticalAlign=middle;whiteSpace=wrap;rounded=0;fontFamily=Computer Modern;fontSize=14;" parent="yucTcaGxGMNIJf8wDbqY-1" vertex="1">
          <mxGeometry x="140" y="200" width="30" height="20" as="geometry" />
        </mxCell>
        <mxCell id="uqWX5sFfroWvKUeDKfwF-29" value="&lt;span style=&quot;font-size: 14px;&quot;&gt;z&lt;/span&gt;" style="text;html=1;strokeColor=none;fillColor=none;align=left;verticalAlign=middle;whiteSpace=wrap;rounded=0;fontFamily=Computer Modern;fontSize=14;" parent="yucTcaGxGMNIJf8wDbqY-1" vertex="1">
          <mxGeometry x="140" y="220" width="30" height="20" as="geometry" />
        </mxCell>
        <mxCell id="uqWX5sFfroWvKUeDKfwF-30" value="" style="endArrow=none;html=1;strokeWidth=1;fontFamily=Computer Modern;fontSize=8;" parent="yucTcaGxGMNIJf8wDbqY-1" edge="1">
          <mxGeometry width="50" height="50" relative="1" as="geometry">
            <mxPoint x="208.9999999999999" y="300" as="sourcePoint" />
            <mxPoint x="228.9999999999999" y="280" as="targetPoint" />
          </mxGeometry>
        </mxCell>
        <mxCell id="uqWX5sFfroWvKUeDKfwF-31" value="" style="endArrow=none;html=1;strokeWidth=1;fontFamily=Computer Modern;fontSize=8;" parent="yucTcaGxGMNIJf8wDbqY-1" edge="1">
          <mxGeometry width="50" height="50" relative="1" as="geometry">
            <mxPoint x="208.9999999999999" y="320" as="sourcePoint" />
            <mxPoint x="228.9999999999999" y="300" as="targetPoint" />
          </mxGeometry>
        </mxCell>
        <mxCell id="uqWX5sFfroWvKUeDKfwF-32" value="" style="endArrow=none;html=1;strokeWidth=1;fontFamily=Computer Modern;fontSize=8;" parent="yucTcaGxGMNIJf8wDbqY-1" edge="1">
          <mxGeometry width="50" height="50" relative="1" as="geometry">
            <mxPoint x="208.9999999999999" y="340" as="sourcePoint" />
            <mxPoint x="228.9999999999999" y="320" as="targetPoint" />
          </mxGeometry>
        </mxCell>
        <mxCell id="uqWX5sFfroWvKUeDKfwF-33" style="edgeStyle=orthogonalEdgeStyle;rounded=0;orthogonalLoop=1;jettySize=auto;html=1;exitX=1;exitY=0.5;exitDx=0;exitDy=0;entryX=-0.005;entryY=0.2;entryDx=0;entryDy=0;entryPerimeter=0;startArrow=none;startFill=0;endArrow=none;endFill=0;strokeWidth=2;fontFamily=Computer Modern;fontSize=8;" parent="yucTcaGxGMNIJf8wDbqY-1" source="uqWX5sFfroWvKUeDKfwF-36" edge="1">
          <mxGeometry relative="1" as="geometry">
            <mxPoint x="277.9999999999999" y="290" as="targetPoint" />
            <Array as="points">
              <mxPoint x="139" y="310" />
              <mxPoint x="139" y="290" />
            </Array>
          </mxGeometry>
        </mxCell>
        <mxCell id="uqWX5sFfroWvKUeDKfwF-34" style="edgeStyle=orthogonalEdgeStyle;rounded=0;orthogonalLoop=1;jettySize=auto;html=1;exitX=1;exitY=0.5;exitDx=0;exitDy=0;entryX=0;entryY=0.3;entryDx=0;entryDy=0;entryPerimeter=0;startArrow=none;startFill=0;endArrow=none;endFill=0;strokeWidth=2;fontFamily=Computer Modern;fontSize=8;" parent="yucTcaGxGMNIJf8wDbqY-1" source="uqWX5sFfroWvKUeDKfwF-36" edge="1">
          <mxGeometry relative="1" as="geometry">
            <mxPoint x="278.9999999999999" y="310" as="targetPoint" />
          </mxGeometry>
        </mxCell>
        <mxCell id="uqWX5sFfroWvKUeDKfwF-35" style="edgeStyle=orthogonalEdgeStyle;rounded=0;orthogonalLoop=1;jettySize=auto;html=1;exitX=1;exitY=0.5;exitDx=0;exitDy=0;entryX=0.005;entryY=0.4;entryDx=0;entryDy=0;entryPerimeter=0;startArrow=none;startFill=0;endArrow=none;endFill=0;strokeWidth=2;fontFamily=Computer Modern;fontSize=8;" parent="yucTcaGxGMNIJf8wDbqY-1" source="uqWX5sFfroWvKUeDKfwF-36" edge="1">
          <mxGeometry relative="1" as="geometry">
            <mxPoint x="280" y="330" as="targetPoint" />
            <Array as="points">
              <mxPoint x="139" y="310" />
              <mxPoint x="139" y="330" />
            </Array>
          </mxGeometry>
        </mxCell>
        <mxCell id="uqWX5sFfroWvKUeDKfwF-36" value="&lt;span style=&quot;font-size: 18px&quot;&gt;Point 2&lt;/span&gt;" style="text;html=1;strokeColor=none;fillColor=none;align=center;verticalAlign=middle;whiteSpace=wrap;rounded=0;fontFamily=Computer Modern;" parent="yucTcaGxGMNIJf8wDbqY-1" vertex="1">
          <mxGeometry x="39" y="290" width="60" height="40" as="geometry" />
        </mxCell>
        <mxCell id="uqWX5sFfroWvKUeDKfwF-37" value="&lt;span style=&quot;font-size: 14px;&quot;&gt;x&lt;/span&gt;" style="text;html=1;strokeColor=none;fillColor=none;align=left;verticalAlign=middle;whiteSpace=wrap;rounded=0;fontFamily=Computer Modern;fontSize=14;" parent="yucTcaGxGMNIJf8wDbqY-1" vertex="1">
          <mxGeometry x="139" y="270" width="30" height="20" as="geometry" />
        </mxCell>
        <mxCell id="uqWX5sFfroWvKUeDKfwF-38" value="&lt;span style=&quot;font-size: 14px;&quot;&gt;y&lt;/span&gt;" style="text;html=1;strokeColor=none;fillColor=none;align=left;verticalAlign=middle;whiteSpace=wrap;rounded=0;fontFamily=Computer Modern;fontSize=14;" parent="yucTcaGxGMNIJf8wDbqY-1" vertex="1">
          <mxGeometry x="139" y="290" width="30" height="20" as="geometry" />
        </mxCell>
        <mxCell id="uqWX5sFfroWvKUeDKfwF-39" value="&lt;span style=&quot;font-size: 14px;&quot;&gt;z&lt;/span&gt;" style="text;html=1;strokeColor=none;fillColor=none;align=left;verticalAlign=middle;whiteSpace=wrap;rounded=0;fontFamily=Computer Modern;fontSize=14;" parent="yucTcaGxGMNIJf8wDbqY-1" vertex="1">
          <mxGeometry x="139" y="310" width="30" height="20" as="geometry" />
        </mxCell>
        <mxCell id="uqWX5sFfroWvKUeDKfwF-40" value="&lt;span style=&quot;font-size: 14px&quot;&gt;&lt;i&gt;32&lt;/i&gt;&lt;/span&gt;" style="text;html=1;strokeColor=none;fillColor=none;align=left;verticalAlign=middle;whiteSpace=wrap;rounded=0;fontFamily=Computer Modern;fontSize=14;" parent="yucTcaGxGMNIJf8wDbqY-1" vertex="1">
          <mxGeometry x="230" y="180" width="20" height="20" as="geometry" />
        </mxCell>
        <mxCell id="uqWX5sFfroWvKUeDKfwF-44" value="&lt;span style=&quot;font-size: 14px&quot;&gt;&lt;i&gt;32&lt;/i&gt;&lt;/span&gt;" style="text;html=1;strokeColor=none;fillColor=none;align=left;verticalAlign=middle;whiteSpace=wrap;rounded=0;fontFamily=Computer Modern;fontSize=14;" parent="yucTcaGxGMNIJf8wDbqY-1" vertex="1">
          <mxGeometry x="230" y="200" width="20" height="20" as="geometry" />
        </mxCell>
        <mxCell id="uqWX5sFfroWvKUeDKfwF-45" value="&lt;span style=&quot;font-size: 14px&quot;&gt;&lt;i&gt;32&lt;/i&gt;&lt;/span&gt;" style="text;html=1;strokeColor=none;fillColor=none;align=left;verticalAlign=middle;whiteSpace=wrap;rounded=0;fontFamily=Computer Modern;fontSize=14;" parent="yucTcaGxGMNIJf8wDbqY-1" vertex="1">
          <mxGeometry x="230" y="220" width="20" height="20" as="geometry" />
        </mxCell>
        <mxCell id="uqWX5sFfroWvKUeDKfwF-46" value="&lt;span style=&quot;font-size: 14px&quot;&gt;&lt;i&gt;32&lt;/i&gt;&lt;/span&gt;" style="text;html=1;strokeColor=none;fillColor=none;align=left;verticalAlign=middle;whiteSpace=wrap;rounded=0;fontFamily=Computer Modern;fontSize=14;" parent="yucTcaGxGMNIJf8wDbqY-1" vertex="1">
          <mxGeometry x="230" y="270" width="20" height="20" as="geometry" />
        </mxCell>
        <mxCell id="uqWX5sFfroWvKUeDKfwF-47" value="&lt;span style=&quot;font-size: 14px&quot;&gt;&lt;i&gt;32&lt;/i&gt;&lt;/span&gt;" style="text;html=1;strokeColor=none;fillColor=none;align=left;verticalAlign=middle;whiteSpace=wrap;rounded=0;fontFamily=Computer Modern;fontSize=14;" parent="yucTcaGxGMNIJf8wDbqY-1" vertex="1">
          <mxGeometry x="230" y="290" width="20" height="20" as="geometry" />
        </mxCell>
        <mxCell id="uqWX5sFfroWvKUeDKfwF-48" value="&lt;span style=&quot;font-size: 14px&quot;&gt;&lt;i&gt;32&lt;/i&gt;&lt;/span&gt;" style="text;html=1;strokeColor=none;fillColor=none;align=left;verticalAlign=middle;whiteSpace=wrap;rounded=0;fontFamily=Computer Modern;fontSize=14;" parent="yucTcaGxGMNIJf8wDbqY-1" vertex="1">
          <mxGeometry x="230" y="310" width="20" height="20" as="geometry" />
        </mxCell>
        <mxCell id="uqWX5sFfroWvKUeDKfwF-49" value="" style="endArrow=none;html=1;strokeWidth=1;fontFamily=Computer Modern;fontSize=8;" parent="yucTcaGxGMNIJf8wDbqY-1" edge="1">
          <mxGeometry width="50" height="50" relative="1" as="geometry">
            <mxPoint x="519.9999999999999" y="270" as="sourcePoint" />
            <mxPoint x="539.9999999999999" y="250" as="targetPoint" />
          </mxGeometry>
        </mxCell>
        <mxCell id="uqWX5sFfroWvKUeDKfwF-50" value="&lt;p class=&quot;p1&quot; style=&quot;margin: 0px ; font-stretch: normal ; line-height: normal ; font-family: &amp;#34;times&amp;#34;&quot;&gt;&lt;i&gt;&lt;font style=&quot;font-size: 30px&quot;&gt;ε&lt;/font&gt;&lt;sup&gt;&lt;font style=&quot;font-size: 14px&quot;&gt;3&lt;/font&gt;&lt;/sup&gt;&lt;/i&gt;&lt;/p&gt;" style="text;html=1;strokeColor=none;fillColor=none;align=left;verticalAlign=middle;whiteSpace=wrap;rounded=0;fontFamily=Computer Modern;fontSize=14;" parent="yucTcaGxGMNIJf8wDbqY-1" vertex="1">
          <mxGeometry x="540" y="230" width="20" height="20" as="geometry" />
        </mxCell>
        <mxCell id="uqWX5sFfroWvKUeDKfwF-51" value="&lt;span style=&quot;font-size: 18px&quot;&gt;&lt;font color=&quot;#ea4335&quot;&gt;1&lt;/font&gt;00&lt;font color=&quot;#ea4335&quot;&gt;1&lt;/font&gt; 0000 0&lt;font color=&quot;#ea4335&quot;&gt;111 1&lt;/font&gt;00&lt;font color=&quot;#ea4335&quot;&gt;1&lt;/font&gt; &lt;font color=&quot;#ea4335&quot;&gt;1111&lt;/font&gt;...&lt;/span&gt;" style="text;html=1;strokeColor=none;fillColor=none;align=center;verticalAlign=middle;whiteSpace=wrap;rounded=0;fontFamily=Computer Modern;" parent="yucTcaGxGMNIJf8wDbqY-1" vertex="1">
          <mxGeometry x="480" y="280" width="240" height="30" as="geometry" />
        </mxCell>
        <mxCell id="uqWX5sFfroWvKUeDKfwF-56" value="" style="edgeStyle=orthogonalEdgeStyle;rounded=0;orthogonalLoop=1;jettySize=auto;html=1;startArrow=none;startFill=0;endArrow=none;endFill=0;strokeWidth=1;fontFamily=Computer Modern;fontSize=14;entryX=0.085;entryY=0.005;entryDx=0;entryDy=0;entryPerimeter=0;exitX=0.5;exitY=1;exitDx=0;exitDy=0;" parent="yucTcaGxGMNIJf8wDbqY-1" source="uqWX5sFfroWvKUeDKfwF-54" target="uqWX5sFfroWvKUeDKfwF-0" edge="1">
          <mxGeometry relative="1" as="geometry" />
        </mxCell>
        <mxCell id="uqWX5sFfroWvKUeDKfwF-54" value="start" style="text;html=1;strokeColor=none;fillColor=none;align=center;verticalAlign=middle;whiteSpace=wrap;rounded=0;fontFamily=Computer Modern;fontSize=14;" parent="yucTcaGxGMNIJf8wDbqY-1" vertex="1">
          <mxGeometry x="260" y="90" width="40" height="20" as="geometry" />
        </mxCell>
        <mxCell id="uqWX5sFfroWvKUeDKfwF-58" style="edgeStyle=orthogonalEdgeStyle;rounded=0;orthogonalLoop=1;jettySize=auto;html=1;exitX=0.5;exitY=1;exitDx=0;exitDy=0;entryX=0.851;entryY=0.001;entryDx=0;entryDy=0;startArrow=none;startFill=0;endArrow=none;endFill=0;strokeWidth=1;fontFamily=Computer Modern;fontSize=14;entryPerimeter=0;" parent="yucTcaGxGMNIJf8wDbqY-1" source="uqWX5sFfroWvKUeDKfwF-57" target="uqWX5sFfroWvKUeDKfwF-0" edge="1">
          <mxGeometry relative="1" as="geometry" />
        </mxCell>
        <mxCell id="uqWX5sFfroWvKUeDKfwF-57" value="done" style="text;html=1;strokeColor=none;fillColor=none;align=center;verticalAlign=middle;whiteSpace=wrap;rounded=0;fontFamily=Computer Modern;fontSize=14;" parent="yucTcaGxGMNIJf8wDbqY-1" vertex="1">
          <mxGeometry x="440" y="90" width="40" height="20" as="geometry" />
        </mxCell>
        <mxCell id="uqWX5sFfroWvKUeDKfwF-61" value="" style="edgeStyle=orthogonalEdgeStyle;rounded=0;orthogonalLoop=1;jettySize=auto;html=1;startArrow=none;startFill=0;endArrow=none;endFill=0;strokeWidth=1;fontFamily=Computer Modern;fontSize=14;entryX=0.949;entryY=-0.001;entryDx=0;entryDy=0;entryPerimeter=0;" parent="yucTcaGxGMNIJf8wDbqY-1" source="uqWX5sFfroWvKUeDKfwF-59" target="uqWX5sFfroWvKUeDKfwF-0" edge="1">
          <mxGeometry relative="1" as="geometry">
            <Array as="points">
              <mxPoint x="500" y="135" />
              <mxPoint x="470" y="135" />
            </Array>
          </mxGeometry>
        </mxCell>
        <mxCell id="uqWX5sFfroWvKUeDKfwF-59" value="idle" style="text;html=1;strokeColor=none;fillColor=none;align=center;verticalAlign=middle;whiteSpace=wrap;rounded=0;fontFamily=Computer Modern;fontSize=14;" parent="yucTcaGxGMNIJf8wDbqY-1" vertex="1">
          <mxGeometry x="480" y="90" width="40" height="20" as="geometry" />
        </mxCell>
        <mxCell id="z3RIBlXtGiC_bMQVuNL9-0" value="" style="triangle;whiteSpace=wrap;html=1;strokeColor=#000000;strokeWidth=2;fillColor=#FFFFFF;fontFamily=Computer Modern;fontSize=35;fontColor=#EA4335;align=left;rotation=90;" vertex="1" parent="yucTcaGxGMNIJf8wDbqY-1">
          <mxGeometry x="371.25" y="157.5" width="17.5" height="22.5" as="geometry" />
        </mxCell>
        <mxCell id="z3RIBlXtGiC_bMQVuNL9-2" style="edgeStyle=orthogonalEdgeStyle;rounded=0;orthogonalLoop=1;jettySize=auto;html=1;entryX=0;entryY=0.5;entryDx=0;entryDy=0;startArrow=none;startFill=0;endArrow=none;endFill=0;strokeWidth=1;fontFamily=Computer Modern;fontSize=14;exitX=0.5;exitY=1;exitDx=0;exitDy=0;" edge="1" parent="yucTcaGxGMNIJf8wDbqY-1" source="z3RIBlXtGiC_bMQVuNL9-3" target="z3RIBlXtGiC_bMQVuNL9-0">
          <mxGeometry relative="1" as="geometry">
            <mxPoint x="380" y="120" as="sourcePoint" />
            <mxPoint x="440" y="170" as="targetPoint" />
          </mxGeometry>
        </mxCell>
        <mxCell id="z3RIBlXtGiC_bMQVuNL9-3" value="clk" style="text;html=1;strokeColor=none;fillColor=none;align=center;verticalAlign=middle;whiteSpace=wrap;rounded=0;fontFamily=Computer Modern;fontSize=14;" vertex="1" parent="yucTcaGxGMNIJf8wDbqY-1">
          <mxGeometry x="360" y="90" width="40" height="20" as="geometry" />
        </mxCell>
        <mxCell id="z3RIBlXtGiC_bMQVuNL9-4" value="" style="edgeStyle=orthogonalEdgeStyle;rounded=0;orthogonalLoop=1;jettySize=auto;html=1;startArrow=none;startFill=0;endArrow=none;endFill=0;strokeWidth=1;fontFamily=Computer Modern;fontSize=14;entryX=0.25;entryY=0;entryDx=0;entryDy=0;exitX=0.5;exitY=1;exitDx=0;exitDy=0;" edge="1" parent="yucTcaGxGMNIJf8wDbqY-1" source="z3RIBlXtGiC_bMQVuNL9-5" target="uqWX5sFfroWvKUeDKfwF-0">
          <mxGeometry relative="1" as="geometry">
            <mxPoint x="330" y="120" as="sourcePoint" />
            <mxPoint x="307" y="171" as="targetPoint" />
            <Array as="points" />
          </mxGeometry>
        </mxCell>
        <mxCell id="z3RIBlXtGiC_bMQVuNL9-5" value="rst" style="text;html=1;strokeColor=none;fillColor=none;align=center;verticalAlign=middle;whiteSpace=wrap;rounded=0;fontFamily=Computer Modern;fontSize=14;" vertex="1" parent="yucTcaGxGMNIJf8wDbqY-1">
          <mxGeometry x="310" y="90" width="40" height="20" as="geometry" />
        </mxCell>
        <mxCell id="z3RIBlXtGiC_bMQVuNL9-10" style="edgeStyle=orthogonalEdgeStyle;rounded=0;orthogonalLoop=1;jettySize=auto;html=1;exitX=0.5;exitY=1;exitDx=0;exitDy=0;entryX=0.7;entryY=-0.001;entryDx=0;entryDy=0;labelBackgroundColor=none;endArrow=none;endFill=0;strokeColor=#000000;strokeWidth=1;fillColor=#FBBC05;fontFamily=Computer Modern;fontSize=35;fontColor=#EA4335;entryPerimeter=0;" edge="1" parent="yucTcaGxGMNIJf8wDbqY-1" source="z3RIBlXtGiC_bMQVuNL9-9" target="uqWX5sFfroWvKUeDKfwF-0">
          <mxGeometry relative="1" as="geometry" />
        </mxCell>
        <mxCell id="z3RIBlXtGiC_bMQVuNL9-9" value="ready" style="text;html=1;strokeColor=none;fillColor=none;align=center;verticalAlign=middle;whiteSpace=wrap;rounded=0;fontFamily=Computer Modern;fontSize=14;" vertex="1" parent="yucTcaGxGMNIJf8wDbqY-1">
          <mxGeometry x="400" y="90" width="40" height="20" as="geometry" />
        </mxCell>
        <mxCell id="z3RIBlXtGiC_bMQVuNL9-13" value="&lt;span style=&quot;font-size: 14px;&quot;&gt;x&lt;/span&gt;" style="text;html=1;strokeColor=none;fillColor=none;align=left;verticalAlign=middle;whiteSpace=wrap;rounded=0;fontFamily=Computer Modern;fontSize=14;" vertex="1" parent="yucTcaGxGMNIJf8wDbqY-1">
          <mxGeometry x="150" y="190" width="30" height="20" as="geometry" />
        </mxCell>
      </root>
    </mxGraphModel>
  </diagram>
  <diagram id="uxAaTCyHR5zjSE7AZ_86" name="Timing">
    <mxGraphModel dx="772" dy="500" grid="1" gridSize="10" guides="1" tooltips="1" connect="1" arrows="1" fold="1" page="1" pageScale="1" pageWidth="2400" pageHeight="2400" math="0" shadow="0" extFonts="Computer Modern^https://fonts.googleapis.com/css?family=Computer+Modern">
      <root>
        <mxCell id="MPpw_sk_U3eVS9YFa5iW-0" />
        <mxCell id="MPpw_sk_U3eVS9YFa5iW-1" parent="MPpw_sk_U3eVS9YFa5iW-0" />
        <mxCell id="MPpw_sk_U3eVS9YFa5iW-25" style="edgeStyle=orthogonalEdgeStyle;orthogonalLoop=1;jettySize=auto;html=1;exitX=1;exitY=0.5;exitDx=0;exitDy=0;entryX=0;entryY=0.5;entryDx=0;entryDy=0;fontSize=14;curved=1;fillColor=#dae8fc;strokeColor=#6c8ebf;" parent="MPpw_sk_U3eVS9YFa5iW-1" source="MPpw_sk_U3eVS9YFa5iW-2" target="MPpw_sk_U3eVS9YFa5iW-20" edge="1">
          <mxGeometry relative="1" as="geometry">
            <Array as="points">
              <mxPoint x="220" y="100" />
              <mxPoint x="220" y="140" />
            </Array>
          </mxGeometry>
        </mxCell>
        <mxCell id="MPpw_sk_U3eVS9YFa5iW-2" value="" style="rounded=0;whiteSpace=wrap;html=1;fillColor=#999999;strokeColor=#000000;fontColor=#333333;" parent="MPpw_sk_U3eVS9YFa5iW-1" vertex="1">
          <mxGeometry x="200" y="90" width="10" height="20" as="geometry" />
        </mxCell>
        <mxCell id="MPpw_sk_U3eVS9YFa5iW-10" value="" style="endArrow=none;html=1;" parent="MPpw_sk_U3eVS9YFa5iW-1" edge="1">
          <mxGeometry width="50" height="50" relative="1" as="geometry">
            <mxPoint x="440" y="280" as="sourcePoint" />
            <mxPoint x="440" y="80" as="targetPoint" />
          </mxGeometry>
        </mxCell>
        <mxCell id="MPpw_sk_U3eVS9YFa5iW-17" value="Check_Plane(X)" style="text;html=1;strokeColor=none;fillColor=none;align=right;verticalAlign=middle;whiteSpace=wrap;rounded=0;fontSize=14;fontFamily=Computer Modern;" parent="MPpw_sk_U3eVS9YFa5iW-1" vertex="1">
          <mxGeometry x="85" y="120" width="115" height="40" as="geometry" />
        </mxCell>
        <mxCell id="MPpw_sk_U3eVS9YFa5iW-78" style="edgeStyle=orthogonalEdgeStyle;curved=1;orthogonalLoop=1;jettySize=auto;html=1;exitX=1;exitY=0.5;exitDx=0;exitDy=0;entryX=0;entryY=0.5;entryDx=0;entryDy=0;fontFamily=Computer Modern;fontSize=14;fillColor=#dae8fc;strokeColor=#6c8ebf;" parent="MPpw_sk_U3eVS9YFa5iW-1" source="MPpw_sk_U3eVS9YFa5iW-21" target="MPpw_sk_U3eVS9YFa5iW-75" edge="1">
          <mxGeometry relative="1" as="geometry">
            <Array as="points">
              <mxPoint x="820" y="180" />
              <mxPoint x="820" y="260" />
            </Array>
          </mxGeometry>
        </mxCell>
        <mxCell id="MPpw_sk_U3eVS9YFa5iW-22" value="Check_Plane(Y)" style="text;html=1;strokeColor=none;fillColor=none;align=right;verticalAlign=middle;whiteSpace=wrap;rounded=0;fontSize=14;fontFamily=Computer Modern;" parent="MPpw_sk_U3eVS9YFa5iW-1" vertex="1">
          <mxGeometry x="84" y="160" width="116" height="40" as="geometry" />
        </mxCell>
        <mxCell id="MPpw_sk_U3eVS9YFa5iW-24" value="Check_Plane(Z)" style="text;html=1;strokeColor=none;fillColor=none;align=right;verticalAlign=middle;whiteSpace=wrap;rounded=0;fontSize=14;fontFamily=Computer Modern;" parent="MPpw_sk_U3eVS9YFa5iW-1" vertex="1">
          <mxGeometry x="88" y="200" width="112" height="40" as="geometry" />
        </mxCell>
        <mxCell id="MPpw_sk_U3eVS9YFa5iW-41" value="Total Collisions (OR operation)" style="text;html=1;strokeColor=none;fillColor=none;align=right;verticalAlign=middle;whiteSpace=wrap;rounded=0;fontSize=14;fontFamily=Computer Modern;" parent="MPpw_sk_U3eVS9YFa5iW-1" vertex="1">
          <mxGeometry x="88" y="240" width="112" height="40" as="geometry" />
        </mxCell>
        <mxCell id="MPpw_sk_U3eVS9YFa5iW-50" style="edgeStyle=orthogonalEdgeStyle;orthogonalLoop=1;jettySize=auto;html=1;exitX=1;exitY=0.5;exitDx=0;exitDy=0;entryX=0;entryY=0.5;entryDx=0;entryDy=0;fontSize=14;curved=1;fillColor=#dae8fc;strokeColor=#6c8ebf;" parent="MPpw_sk_U3eVS9YFa5iW-1" source="MPpw_sk_U3eVS9YFa5iW-53" target="MPpw_sk_U3eVS9YFa5iW-57" edge="1">
          <mxGeometry relative="1" as="geometry">
            <Array as="points">
              <mxPoint x="221" y="340" />
              <mxPoint x="221" y="380" />
            </Array>
          </mxGeometry>
        </mxCell>
        <mxCell id="MPpw_sk_U3eVS9YFa5iW-53" value="" style="rounded=0;whiteSpace=wrap;html=1;fillColor=#999999;strokeColor=#000000;fontColor=#333333;" parent="MPpw_sk_U3eVS9YFa5iW-1" vertex="1">
          <mxGeometry x="201" y="330" width="10" height="20" as="geometry" />
        </mxCell>
        <mxCell id="MPpw_sk_U3eVS9YFa5iW-54" value="Read Inputs" style="text;html=1;strokeColor=none;fillColor=none;align=right;verticalAlign=middle;whiteSpace=wrap;rounded=0;fontSize=14;fontFamily=Computer Modern;" parent="MPpw_sk_U3eVS9YFa5iW-1" vertex="1">
          <mxGeometry x="131" y="320" width="70" height="40" as="geometry" />
        </mxCell>
        <mxCell id="MPpw_sk_U3eVS9YFa5iW-55" value="Check_Plane_X" style="text;html=1;strokeColor=none;fillColor=none;align=right;verticalAlign=middle;whiteSpace=wrap;rounded=0;fontSize=14;fontFamily=Computer Modern;fontColor=#34A853;" parent="MPpw_sk_U3eVS9YFa5iW-1" vertex="1">
          <mxGeometry x="86" y="360" width="115" height="40" as="geometry" />
        </mxCell>
        <mxCell id="MPpw_sk_U3eVS9YFa5iW-56" style="edgeStyle=orthogonalEdgeStyle;curved=1;orthogonalLoop=1;jettySize=auto;html=1;exitX=1;exitY=0.5;exitDx=0;exitDy=0;entryX=0;entryY=0.5;entryDx=0;entryDy=0;fontFamily=Computer Modern;fontSize=14;fillColor=#dae8fc;strokeColor=#6c8ebf;" parent="MPpw_sk_U3eVS9YFa5iW-1" source="MPpw_sk_U3eVS9YFa5iW-57" target="MPpw_sk_U3eVS9YFa5iW-65" edge="1">
          <mxGeometry relative="1" as="geometry">
            <Array as="points">
              <mxPoint x="390" y="380" />
              <mxPoint x="390" y="500" />
            </Array>
          </mxGeometry>
        </mxCell>
        <mxCell id="MPpw_sk_U3eVS9YFa5iW-58" style="edgeStyle=orthogonalEdgeStyle;curved=1;orthogonalLoop=1;jettySize=auto;html=1;exitX=1;exitY=0.5;exitDx=0;exitDy=0;entryX=0;entryY=0.5;entryDx=0;entryDy=0;fontFamily=Computer Modern;fontSize=14;fillColor=#dae8fc;strokeColor=#6c8ebf;" parent="MPpw_sk_U3eVS9YFa5iW-1" source="MPpw_sk_U3eVS9YFa5iW-59" target="MPpw_sk_U3eVS9YFa5iW-65" edge="1">
          <mxGeometry relative="1" as="geometry">
            <Array as="points">
              <mxPoint x="390" y="420" />
              <mxPoint x="390" y="500" />
            </Array>
          </mxGeometry>
        </mxCell>
        <mxCell id="MPpw_sk_U3eVS9YFa5iW-60" value="Check_Plane_Y" style="text;html=1;strokeColor=none;fillColor=none;align=right;verticalAlign=middle;whiteSpace=wrap;rounded=0;fontSize=14;fontFamily=Computer Modern;fontColor=#EA4335;" parent="MPpw_sk_U3eVS9YFa5iW-1" vertex="1">
          <mxGeometry x="85" y="400" width="116" height="40" as="geometry" />
        </mxCell>
        <mxCell id="MPpw_sk_U3eVS9YFa5iW-61" style="edgeStyle=orthogonalEdgeStyle;curved=1;orthogonalLoop=1;jettySize=auto;html=1;exitX=1;exitY=0.5;exitDx=0;exitDy=0;entryX=0;entryY=0.5;entryDx=0;entryDy=0;fontFamily=Computer Modern;fontSize=14;fillColor=#dae8fc;strokeColor=#6c8ebf;" parent="MPpw_sk_U3eVS9YFa5iW-1" source="MPpw_sk_U3eVS9YFa5iW-62" target="MPpw_sk_U3eVS9YFa5iW-65" edge="1">
          <mxGeometry relative="1" as="geometry">
            <Array as="points">
              <mxPoint x="390" y="460" />
              <mxPoint x="390" y="500" />
            </Array>
          </mxGeometry>
        </mxCell>
        <mxCell id="MPpw_sk_U3eVS9YFa5iW-63" value="Check_Plane_Z" style="text;html=1;strokeColor=none;fillColor=none;align=right;verticalAlign=middle;whiteSpace=wrap;rounded=0;fontSize=14;fontFamily=Computer Modern;fontColor=#4285F4;" parent="MPpw_sk_U3eVS9YFa5iW-1" vertex="1">
          <mxGeometry x="89" y="440" width="112" height="40" as="geometry" />
        </mxCell>
        <mxCell id="MPpw_sk_U3eVS9YFa5iW-64" value="Total Collisions (OR operation)" style="text;html=1;strokeColor=none;fillColor=none;align=right;verticalAlign=middle;whiteSpace=wrap;rounded=0;fontSize=14;fontFamily=Computer Modern;" parent="MPpw_sk_U3eVS9YFa5iW-1" vertex="1">
          <mxGeometry x="89" y="480" width="112" height="40" as="geometry" />
        </mxCell>
        <mxCell id="MPpw_sk_U3eVS9YFa5iW-65" value="" style="rounded=0;whiteSpace=wrap;html=1;fillColor=#999999;strokeColor=#000000;fontColor=#333333;" parent="MPpw_sk_U3eVS9YFa5iW-1" vertex="1">
          <mxGeometry x="400" y="490" width="10" height="20" as="geometry" />
        </mxCell>
        <mxCell id="MPpw_sk_U3eVS9YFa5iW-77" style="edgeStyle=orthogonalEdgeStyle;curved=1;orthogonalLoop=1;jettySize=auto;html=1;exitX=1;exitY=0.5;exitDx=0;exitDy=0;entryX=0;entryY=0.5;entryDx=0;entryDy=0;fontFamily=Computer Modern;fontSize=14;fillColor=#dae8fc;strokeColor=#6c8ebf;" parent="MPpw_sk_U3eVS9YFa5iW-1" source="MPpw_sk_U3eVS9YFa5iW-23" target="MPpw_sk_U3eVS9YFa5iW-75" edge="1">
          <mxGeometry relative="1" as="geometry">
            <Array as="points">
              <mxPoint x="820" y="220" />
              <mxPoint x="820" y="260" />
            </Array>
          </mxGeometry>
        </mxCell>
        <mxCell id="MPpw_sk_U3eVS9YFa5iW-80" value="&lt;font style=&quot;font-size: 21px&quot;&gt;&lt;u&gt;Initial Implementation&lt;/u&gt;&lt;/font&gt;" style="text;html=1;strokeColor=none;fillColor=none;align=center;verticalAlign=middle;whiteSpace=wrap;rounded=0;fontFamily=Computer Modern;fontSize=14;" parent="MPpw_sk_U3eVS9YFa5iW-1" vertex="1">
          <mxGeometry x="421" y="40" width="210" height="40" as="geometry" />
        </mxCell>
        <mxCell id="MPpw_sk_U3eVS9YFa5iW-81" value="" style="endArrow=none;html=1;" parent="MPpw_sk_U3eVS9YFa5iW-1" edge="1">
          <mxGeometry width="50" height="50" relative="1" as="geometry">
            <mxPoint x="439.82" y="560" as="sourcePoint" />
            <mxPoint x="440" y="320" as="targetPoint" />
          </mxGeometry>
        </mxCell>
        <mxCell id="MPpw_sk_U3eVS9YFa5iW-82" value="" style="endArrow=none;html=1;" parent="MPpw_sk_U3eVS9YFa5iW-1" edge="1">
          <mxGeometry width="50" height="50" relative="1" as="geometry">
            <mxPoint x="480.18" y="280" as="sourcePoint" />
            <mxPoint x="480.18" y="80" as="targetPoint" />
          </mxGeometry>
        </mxCell>
        <mxCell id="MPpw_sk_U3eVS9YFa5iW-83" value="" style="endArrow=none;html=1;" parent="MPpw_sk_U3eVS9YFa5iW-1" edge="1">
          <mxGeometry width="50" height="50" relative="1" as="geometry">
            <mxPoint x="479.99999999999994" y="560" as="sourcePoint" />
            <mxPoint x="480.18" y="320" as="targetPoint" />
          </mxGeometry>
        </mxCell>
        <mxCell id="MPpw_sk_U3eVS9YFa5iW-84" value="" style="endArrow=none;html=1;" parent="MPpw_sk_U3eVS9YFa5iW-1" edge="1">
          <mxGeometry width="50" height="50" relative="1" as="geometry">
            <mxPoint x="520.1800000000001" y="280" as="sourcePoint" />
            <mxPoint x="520.1800000000001" y="80" as="targetPoint" />
          </mxGeometry>
        </mxCell>
        <mxCell id="MPpw_sk_U3eVS9YFa5iW-85" value="" style="endArrow=none;html=1;" parent="MPpw_sk_U3eVS9YFa5iW-1" edge="1">
          <mxGeometry width="50" height="50" relative="1" as="geometry">
            <mxPoint x="520" y="560" as="sourcePoint" />
            <mxPoint x="520.1800000000001" y="320" as="targetPoint" />
          </mxGeometry>
        </mxCell>
        <mxCell id="MPpw_sk_U3eVS9YFa5iW-86" value="" style="endArrow=none;html=1;" parent="MPpw_sk_U3eVS9YFa5iW-1" edge="1">
          <mxGeometry width="50" height="50" relative="1" as="geometry">
            <mxPoint x="560.3600000000001" y="280" as="sourcePoint" />
            <mxPoint x="560.3600000000001" y="80" as="targetPoint" />
          </mxGeometry>
        </mxCell>
        <mxCell id="MPpw_sk_U3eVS9YFa5iW-87" value="" style="endArrow=none;html=1;" parent="MPpw_sk_U3eVS9YFa5iW-1" edge="1">
          <mxGeometry width="50" height="50" relative="1" as="geometry">
            <mxPoint x="560.1800000000001" y="560" as="sourcePoint" />
            <mxPoint x="560.3600000000001" y="320" as="targetPoint" />
          </mxGeometry>
        </mxCell>
        <mxCell id="MPpw_sk_U3eVS9YFa5iW-90" value="" style="endArrow=none;html=1;" parent="MPpw_sk_U3eVS9YFa5iW-1" edge="1">
          <mxGeometry width="50" height="50" relative="1" as="geometry">
            <mxPoint x="600.3600000000001" y="280" as="sourcePoint" />
            <mxPoint x="600.3600000000001" y="80" as="targetPoint" />
          </mxGeometry>
        </mxCell>
        <mxCell id="MPpw_sk_U3eVS9YFa5iW-91" value="" style="endArrow=none;html=1;" parent="MPpw_sk_U3eVS9YFa5iW-1" edge="1">
          <mxGeometry width="50" height="50" relative="1" as="geometry">
            <mxPoint x="600.1800000000001" y="560" as="sourcePoint" />
            <mxPoint x="600.3600000000001" y="320" as="targetPoint" />
          </mxGeometry>
        </mxCell>
        <mxCell id="MPpw_sk_U3eVS9YFa5iW-92" value="&lt;span style=&quot;font-size: 21px&quot;&gt;&lt;u&gt;After Parallelism&lt;/u&gt;&lt;/span&gt;" style="text;html=1;strokeColor=none;fillColor=none;align=center;verticalAlign=middle;whiteSpace=wrap;rounded=0;fontFamily=Computer Modern;fontSize=14;" parent="MPpw_sk_U3eVS9YFa5iW-1" vertex="1">
          <mxGeometry x="421" y="280" width="210" height="40" as="geometry" />
        </mxCell>
        <mxCell id="MPpw_sk_U3eVS9YFa5iW-93" value="" style="endArrow=none;html=1;" parent="MPpw_sk_U3eVS9YFa5iW-1" edge="1">
          <mxGeometry width="50" height="50" relative="1" as="geometry">
            <mxPoint x="239.23999999999998" y="280" as="sourcePoint" />
            <mxPoint x="239.23999999999998" y="80" as="targetPoint" />
          </mxGeometry>
        </mxCell>
        <mxCell id="MPpw_sk_U3eVS9YFa5iW-94" value="" style="endArrow=none;html=1;" parent="MPpw_sk_U3eVS9YFa5iW-1" edge="1">
          <mxGeometry width="50" height="50" relative="1" as="geometry">
            <mxPoint x="239.06000000000014" y="560" as="sourcePoint" />
            <mxPoint x="239.23999999999998" y="320" as="targetPoint" />
          </mxGeometry>
        </mxCell>
        <mxCell id="MPpw_sk_U3eVS9YFa5iW-95" value="" style="endArrow=none;html=1;" parent="MPpw_sk_U3eVS9YFa5iW-1" edge="1">
          <mxGeometry width="50" height="50" relative="1" as="geometry">
            <mxPoint x="279.41999999999985" y="280" as="sourcePoint" />
            <mxPoint x="279.41999999999985" y="80" as="targetPoint" />
          </mxGeometry>
        </mxCell>
        <mxCell id="MPpw_sk_U3eVS9YFa5iW-96" value="" style="endArrow=none;html=1;" parent="MPpw_sk_U3eVS9YFa5iW-1" edge="1">
          <mxGeometry width="50" height="50" relative="1" as="geometry">
            <mxPoint x="279.24" y="560" as="sourcePoint" />
            <mxPoint x="279.41999999999985" y="320" as="targetPoint" />
          </mxGeometry>
        </mxCell>
        <mxCell id="MPpw_sk_U3eVS9YFa5iW-97" value="" style="endArrow=none;html=1;" parent="MPpw_sk_U3eVS9YFa5iW-1" edge="1">
          <mxGeometry width="50" height="50" relative="1" as="geometry">
            <mxPoint x="319.4200000000003" y="280" as="sourcePoint" />
            <mxPoint x="319.4200000000003" y="80" as="targetPoint" />
          </mxGeometry>
        </mxCell>
        <mxCell id="MPpw_sk_U3eVS9YFa5iW-98" value="" style="endArrow=none;html=1;" parent="MPpw_sk_U3eVS9YFa5iW-1" edge="1">
          <mxGeometry width="50" height="50" relative="1" as="geometry">
            <mxPoint x="319.24" y="560" as="sourcePoint" />
            <mxPoint x="319.4200000000003" y="320" as="targetPoint" />
          </mxGeometry>
        </mxCell>
        <mxCell id="MPpw_sk_U3eVS9YFa5iW-99" value="" style="endArrow=none;html=1;" parent="MPpw_sk_U3eVS9YFa5iW-1" edge="1">
          <mxGeometry width="50" height="50" relative="1" as="geometry">
            <mxPoint x="359.60000000000014" y="280" as="sourcePoint" />
            <mxPoint x="359.60000000000014" y="80" as="targetPoint" />
          </mxGeometry>
        </mxCell>
        <mxCell id="MPpw_sk_U3eVS9YFa5iW-100" value="" style="endArrow=none;html=1;" parent="MPpw_sk_U3eVS9YFa5iW-1" edge="1">
          <mxGeometry width="50" height="50" relative="1" as="geometry">
            <mxPoint x="359.4200000000003" y="560" as="sourcePoint" />
            <mxPoint x="359.60000000000014" y="320" as="targetPoint" />
          </mxGeometry>
        </mxCell>
        <mxCell id="MPpw_sk_U3eVS9YFa5iW-101" value="" style="endArrow=none;html=1;" parent="MPpw_sk_U3eVS9YFa5iW-1" edge="1">
          <mxGeometry width="50" height="50" relative="1" as="geometry">
            <mxPoint x="399.60000000000014" y="280" as="sourcePoint" />
            <mxPoint x="399.60000000000014" y="80" as="targetPoint" />
          </mxGeometry>
        </mxCell>
        <mxCell id="MPpw_sk_U3eVS9YFa5iW-102" value="" style="endArrow=none;html=1;" parent="MPpw_sk_U3eVS9YFa5iW-1" edge="1">
          <mxGeometry width="50" height="50" relative="1" as="geometry">
            <mxPoint x="399.4200000000003" y="560" as="sourcePoint" />
            <mxPoint x="399.60000000000014" y="320" as="targetPoint" />
          </mxGeometry>
        </mxCell>
        <mxCell id="MPpw_sk_U3eVS9YFa5iW-103" value="" style="endArrow=none;html=1;" parent="MPpw_sk_U3eVS9YFa5iW-1" edge="1">
          <mxGeometry width="50" height="50" relative="1" as="geometry">
            <mxPoint x="199.52" y="280.0000000000001" as="sourcePoint" />
            <mxPoint x="199.52" y="80" as="targetPoint" />
          </mxGeometry>
        </mxCell>
        <mxCell id="MPpw_sk_U3eVS9YFa5iW-104" value="" style="endArrow=none;html=1;" parent="MPpw_sk_U3eVS9YFa5iW-1" edge="1">
          <mxGeometry width="50" height="50" relative="1" as="geometry">
            <mxPoint x="199.34000000000017" y="560" as="sourcePoint" />
            <mxPoint x="199.52" y="320.0000000000001" as="targetPoint" />
          </mxGeometry>
        </mxCell>
        <mxCell id="MPpw_sk_U3eVS9YFa5iW-105" value="" style="endArrow=none;html=1;" parent="MPpw_sk_U3eVS9YFa5iW-1" edge="1">
          <mxGeometry width="50" height="50" relative="1" as="geometry">
            <mxPoint x="680.58" y="280" as="sourcePoint" />
            <mxPoint x="680.58" y="80" as="targetPoint" />
          </mxGeometry>
        </mxCell>
        <mxCell id="MPpw_sk_U3eVS9YFa5iW-106" value="" style="endArrow=none;html=1;" parent="MPpw_sk_U3eVS9YFa5iW-1" edge="1">
          <mxGeometry width="50" height="50" relative="1" as="geometry">
            <mxPoint x="680.4" y="560" as="sourcePoint" />
            <mxPoint x="680.58" y="320" as="targetPoint" />
          </mxGeometry>
        </mxCell>
        <mxCell id="MPpw_sk_U3eVS9YFa5iW-107" value="" style="endArrow=none;html=1;" parent="MPpw_sk_U3eVS9YFa5iW-1" edge="1">
          <mxGeometry width="50" height="50" relative="1" as="geometry">
            <mxPoint x="720.7600000000001" y="280" as="sourcePoint" />
            <mxPoint x="720.7600000000001" y="80" as="targetPoint" />
          </mxGeometry>
        </mxCell>
        <mxCell id="MPpw_sk_U3eVS9YFa5iW-108" value="" style="endArrow=none;html=1;" parent="MPpw_sk_U3eVS9YFa5iW-1" edge="1">
          <mxGeometry width="50" height="50" relative="1" as="geometry">
            <mxPoint x="720.58" y="560" as="sourcePoint" />
            <mxPoint x="720.7600000000001" y="320" as="targetPoint" />
          </mxGeometry>
        </mxCell>
        <mxCell id="MPpw_sk_U3eVS9YFa5iW-109" value="" style="endArrow=none;html=1;" parent="MPpw_sk_U3eVS9YFa5iW-1" edge="1">
          <mxGeometry width="50" height="50" relative="1" as="geometry">
            <mxPoint x="760.7600000000003" y="280" as="sourcePoint" />
            <mxPoint x="760.7600000000003" y="80" as="targetPoint" />
          </mxGeometry>
        </mxCell>
        <mxCell id="MPpw_sk_U3eVS9YFa5iW-110" value="" style="endArrow=none;html=1;" parent="MPpw_sk_U3eVS9YFa5iW-1" edge="1">
          <mxGeometry width="50" height="50" relative="1" as="geometry">
            <mxPoint x="760.58" y="560" as="sourcePoint" />
            <mxPoint x="760.7600000000003" y="320" as="targetPoint" />
          </mxGeometry>
        </mxCell>
        <mxCell id="MPpw_sk_U3eVS9YFa5iW-111" value="" style="endArrow=none;html=1;" parent="MPpw_sk_U3eVS9YFa5iW-1" edge="1">
          <mxGeometry width="50" height="50" relative="1" as="geometry">
            <mxPoint x="800.9400000000002" y="280" as="sourcePoint" />
            <mxPoint x="800.9400000000002" y="80" as="targetPoint" />
          </mxGeometry>
        </mxCell>
        <mxCell id="MPpw_sk_U3eVS9YFa5iW-112" value="" style="endArrow=none;html=1;" parent="MPpw_sk_U3eVS9YFa5iW-1" edge="1">
          <mxGeometry width="50" height="50" relative="1" as="geometry">
            <mxPoint x="800.7600000000003" y="560" as="sourcePoint" />
            <mxPoint x="800.9400000000002" y="320" as="targetPoint" />
          </mxGeometry>
        </mxCell>
        <mxCell id="MPpw_sk_U3eVS9YFa5iW-113" value="" style="endArrow=none;html=1;" parent="MPpw_sk_U3eVS9YFa5iW-1" edge="1">
          <mxGeometry width="50" height="50" relative="1" as="geometry">
            <mxPoint x="840.9400000000002" y="280" as="sourcePoint" />
            <mxPoint x="840.9400000000002" y="80" as="targetPoint" />
          </mxGeometry>
        </mxCell>
        <mxCell id="MPpw_sk_U3eVS9YFa5iW-114" value="" style="endArrow=none;html=1;" parent="MPpw_sk_U3eVS9YFa5iW-1" edge="1">
          <mxGeometry width="50" height="50" relative="1" as="geometry">
            <mxPoint x="840.7600000000003" y="560" as="sourcePoint" />
            <mxPoint x="840.9400000000002" y="320" as="targetPoint" />
          </mxGeometry>
        </mxCell>
        <mxCell id="MPpw_sk_U3eVS9YFa5iW-115" value="" style="endArrow=none;html=1;" parent="MPpw_sk_U3eVS9YFa5iW-1" edge="1">
          <mxGeometry width="50" height="50" relative="1" as="geometry">
            <mxPoint x="640.1800000000002" y="280" as="sourcePoint" />
            <mxPoint x="640.1800000000002" y="80" as="targetPoint" />
          </mxGeometry>
        </mxCell>
        <mxCell id="MPpw_sk_U3eVS9YFa5iW-116" value="" style="endArrow=none;html=1;" parent="MPpw_sk_U3eVS9YFa5iW-1" edge="1">
          <mxGeometry width="50" height="50" relative="1" as="geometry">
            <mxPoint x="640.0000000000003" y="560" as="sourcePoint" />
            <mxPoint x="640.1800000000002" y="320" as="targetPoint" />
          </mxGeometry>
        </mxCell>
        <mxCell id="MPpw_sk_U3eVS9YFa5iW-27" style="edgeStyle=orthogonalEdgeStyle;curved=1;orthogonalLoop=1;jettySize=auto;html=1;exitX=1;exitY=0.5;exitDx=0;exitDy=0;entryX=0;entryY=0.5;entryDx=0;entryDy=0;fontSize=14;fillColor=#dae8fc;strokeColor=#6c8ebf;" parent="MPpw_sk_U3eVS9YFa5iW-1" source="MPpw_sk_U3eVS9YFa5iW-2" target="MPpw_sk_U3eVS9YFa5iW-23" edge="1">
          <mxGeometry relative="1" as="geometry">
            <Array as="points">
              <mxPoint x="220" y="100" />
              <mxPoint x="220" y="220" />
            </Array>
          </mxGeometry>
        </mxCell>
        <mxCell id="MPpw_sk_U3eVS9YFa5iW-74" style="edgeStyle=orthogonalEdgeStyle;curved=1;orthogonalLoop=1;jettySize=auto;html=1;exitX=1;exitY=0.5;exitDx=0;exitDy=0;entryX=0;entryY=0.5;entryDx=0;entryDy=0;fontFamily=Computer Modern;fontSize=14;fillColor=#dae8fc;strokeColor=#6c8ebf;" parent="MPpw_sk_U3eVS9YFa5iW-1" source="MPpw_sk_U3eVS9YFa5iW-2" target="MPpw_sk_U3eVS9YFa5iW-21" edge="1">
          <mxGeometry relative="1" as="geometry">
            <Array as="points">
              <mxPoint x="220" y="100" />
              <mxPoint x="220" y="180" />
            </Array>
          </mxGeometry>
        </mxCell>
        <mxCell id="MPpw_sk_U3eVS9YFa5iW-16" value="Read Inputs" style="text;html=1;strokeColor=none;fillColor=none;align=right;verticalAlign=middle;whiteSpace=wrap;rounded=0;fontSize=14;fontFamily=Computer Modern;" parent="MPpw_sk_U3eVS9YFa5iW-1" vertex="1">
          <mxGeometry x="130" y="80" width="70" height="40" as="geometry" />
        </mxCell>
        <mxCell id="MPpw_sk_U3eVS9YFa5iW-79" style="edgeStyle=orthogonalEdgeStyle;curved=1;orthogonalLoop=1;jettySize=auto;html=1;exitX=1;exitY=0.5;exitDx=0;exitDy=0;fontFamily=Computer Modern;fontSize=14;entryX=0;entryY=0.5;entryDx=0;entryDy=0;fillColor=#dae8fc;strokeColor=#6c8ebf;" parent="MPpw_sk_U3eVS9YFa5iW-1" source="MPpw_sk_U3eVS9YFa5iW-20" target="MPpw_sk_U3eVS9YFa5iW-75" edge="1">
          <mxGeometry relative="1" as="geometry">
            <mxPoint x="630" y="139.85714285714283" as="targetPoint" />
            <Array as="points">
              <mxPoint x="820" y="140" />
              <mxPoint x="820" y="260" />
            </Array>
          </mxGeometry>
        </mxCell>
        <mxCell id="MPpw_sk_U3eVS9YFa5iW-20" value="" style="rounded=0;whiteSpace=wrap;html=1;fontSize=14;align=right;fillColor=#999999;strokeColor=#000000;fontColor=#333333;" parent="MPpw_sk_U3eVS9YFa5iW-1" vertex="1">
          <mxGeometry x="240" y="130" width="170" height="20" as="geometry" />
        </mxCell>
        <mxCell id="MPpw_sk_U3eVS9YFa5iW-21" value="" style="rounded=0;whiteSpace=wrap;html=1;fontSize=14;align=right;fillColor=#999999;strokeColor=#000000;fontColor=#333333;" parent="MPpw_sk_U3eVS9YFa5iW-1" vertex="1">
          <mxGeometry x="441" y="170" width="170" height="20" as="geometry" />
        </mxCell>
        <mxCell id="MPpw_sk_U3eVS9YFa5iW-23" value="" style="rounded=0;whiteSpace=wrap;html=1;fontSize=14;align=right;fillColor=#999999;strokeColor=#000000;fontColor=#333333;" parent="MPpw_sk_U3eVS9YFa5iW-1" vertex="1">
          <mxGeometry x="640" y="210" width="170" height="20" as="geometry" />
        </mxCell>
        <mxCell id="MPpw_sk_U3eVS9YFa5iW-75" value="" style="rounded=0;whiteSpace=wrap;html=1;fillColor=#999999;strokeColor=#000000;fontColor=#333333;" parent="MPpw_sk_U3eVS9YFa5iW-1" vertex="1">
          <mxGeometry x="840" y="250" width="10" height="20" as="geometry" />
        </mxCell>
        <mxCell id="MPpw_sk_U3eVS9YFa5iW-51" style="edgeStyle=orthogonalEdgeStyle;curved=1;orthogonalLoop=1;jettySize=auto;html=1;exitX=1;exitY=0.5;exitDx=0;exitDy=0;entryX=0;entryY=0.5;entryDx=0;entryDy=0;fontSize=14;fillColor=#dae8fc;strokeColor=#6c8ebf;" parent="MPpw_sk_U3eVS9YFa5iW-1" source="MPpw_sk_U3eVS9YFa5iW-53" target="MPpw_sk_U3eVS9YFa5iW-59" edge="1">
          <mxGeometry relative="1" as="geometry">
            <Array as="points">
              <mxPoint x="221" y="340" />
              <mxPoint x="221" y="420" />
            </Array>
          </mxGeometry>
        </mxCell>
        <mxCell id="MPpw_sk_U3eVS9YFa5iW-52" style="edgeStyle=orthogonalEdgeStyle;curved=1;orthogonalLoop=1;jettySize=auto;html=1;exitX=1;exitY=0.5;exitDx=0;exitDy=0;entryX=0;entryY=0.5;entryDx=0;entryDy=0;fontSize=14;fillColor=#dae8fc;strokeColor=#6c8ebf;" parent="MPpw_sk_U3eVS9YFa5iW-1" source="MPpw_sk_U3eVS9YFa5iW-53" target="MPpw_sk_U3eVS9YFa5iW-62" edge="1">
          <mxGeometry relative="1" as="geometry">
            <Array as="points">
              <mxPoint x="221" y="340" />
              <mxPoint x="221" y="460" />
            </Array>
          </mxGeometry>
        </mxCell>
        <mxCell id="MPpw_sk_U3eVS9YFa5iW-57" value="" style="rounded=0;whiteSpace=wrap;html=1;fontSize=14;align=right;fillColor=#999999;strokeColor=#000000;fontColor=#333333;" parent="MPpw_sk_U3eVS9YFa5iW-1" vertex="1">
          <mxGeometry x="241" y="370" width="129" height="20" as="geometry" />
        </mxCell>
        <mxCell id="MPpw_sk_U3eVS9YFa5iW-59" value="" style="rounded=0;whiteSpace=wrap;html=1;fontSize=14;align=right;fillColor=#999999;strokeColor=#000000;fontColor=#333333;" parent="MPpw_sk_U3eVS9YFa5iW-1" vertex="1">
          <mxGeometry x="241" y="410" width="129" height="20" as="geometry" />
        </mxCell>
        <mxCell id="MPpw_sk_U3eVS9YFa5iW-62" value="" style="rounded=0;whiteSpace=wrap;html=1;fontSize=14;align=right;fillColor=#999999;strokeColor=#000000;fontColor=#333333;" parent="MPpw_sk_U3eVS9YFa5iW-1" vertex="1">
          <mxGeometry x="241" y="450" width="129" height="20" as="geometry" />
        </mxCell>
      </root>
    </mxGraphModel>
  </diagram>
  <diagram name="Copy of Timing" id="e2flOT0_X1pU6UrpdGr9">
    <mxGraphModel dx="772" dy="500" grid="1" gridSize="10" guides="1" tooltips="1" connect="1" arrows="1" fold="1" page="1" pageScale="1" pageWidth="2400" pageHeight="2400" math="0" shadow="0" extFonts="Computer Modern^https://fonts.googleapis.com/css?family=Computer+Modern">
      <root>
        <mxCell id="2oo7fKAP9iWN7UhUma5u-0" />
        <mxCell id="2oo7fKAP9iWN7UhUma5u-1" parent="2oo7fKAP9iWN7UhUma5u-0" />
        <mxCell id="2oo7fKAP9iWN7UhUma5u-2" style="edgeStyle=orthogonalEdgeStyle;orthogonalLoop=1;jettySize=auto;html=1;exitX=1;exitY=0.5;exitDx=0;exitDy=0;entryX=0;entryY=0.5;entryDx=0;entryDy=0;fontSize=14;curved=1;fillColor=#dae8fc;strokeColor=#6c8ebf;" parent="2oo7fKAP9iWN7UhUma5u-1" source="2oo7fKAP9iWN7UhUma5u-3" target="2oo7fKAP9iWN7UhUma5u-61" edge="1">
          <mxGeometry relative="1" as="geometry">
            <Array as="points">
              <mxPoint x="220" y="100" />
              <mxPoint x="220" y="140" />
            </Array>
          </mxGeometry>
        </mxCell>
        <mxCell id="67dkpMW3GrvRuxxjmRb5-24" style="edgeStyle=orthogonalEdgeStyle;curved=1;orthogonalLoop=1;jettySize=auto;html=1;exitX=1;exitY=0.5;exitDx=0;exitDy=0;entryX=0;entryY=0.5;entryDx=0;entryDy=0;strokeColor=#6c8ebf;strokeWidth=1;fontFamily=Computer Modern;fontSize=14;fontColor=#34A853;fillColor=#dae8fc;" parent="2oo7fKAP9iWN7UhUma5u-1" source="2oo7fKAP9iWN7UhUma5u-3" target="67dkpMW3GrvRuxxjmRb5-20" edge="1">
          <mxGeometry relative="1" as="geometry">
            <Array as="points">
              <mxPoint x="220" y="100" />
              <mxPoint x="220" y="180" />
            </Array>
          </mxGeometry>
        </mxCell>
        <mxCell id="67dkpMW3GrvRuxxjmRb5-25" style="edgeStyle=orthogonalEdgeStyle;curved=1;orthogonalLoop=1;jettySize=auto;html=1;exitX=1;exitY=0.5;exitDx=0;exitDy=0;entryX=0;entryY=0.5;entryDx=0;entryDy=0;strokeColor=#6c8ebf;strokeWidth=1;fontFamily=Computer Modern;fontSize=14;fontColor=#34A853;fillColor=#dae8fc;" parent="2oo7fKAP9iWN7UhUma5u-1" source="2oo7fKAP9iWN7UhUma5u-3" target="67dkpMW3GrvRuxxjmRb5-21" edge="1">
          <mxGeometry relative="1" as="geometry">
            <Array as="points">
              <mxPoint x="220" y="100" />
              <mxPoint x="220" y="220" />
            </Array>
          </mxGeometry>
        </mxCell>
        <mxCell id="67dkpMW3GrvRuxxjmRb5-26" style="edgeStyle=orthogonalEdgeStyle;curved=1;orthogonalLoop=1;jettySize=auto;html=1;exitX=1;exitY=0.5;exitDx=0;exitDy=0;entryX=0;entryY=0.5;entryDx=0;entryDy=0;strokeColor=#6c8ebf;strokeWidth=1;fontFamily=Computer Modern;fontSize=14;fontColor=#34A853;fillColor=#dae8fc;" parent="2oo7fKAP9iWN7UhUma5u-1" source="2oo7fKAP9iWN7UhUma5u-3" target="67dkpMW3GrvRuxxjmRb5-23" edge="1">
          <mxGeometry relative="1" as="geometry">
            <Array as="points">
              <mxPoint x="220" y="100" />
              <mxPoint x="220" y="260" />
            </Array>
          </mxGeometry>
        </mxCell>
        <mxCell id="2oo7fKAP9iWN7UhUma5u-3" value="" style="rounded=0;whiteSpace=wrap;html=1;fillColor=#999999;strokeColor=#000000;fontColor=#333333;" parent="2oo7fKAP9iWN7UhUma5u-1" vertex="1">
          <mxGeometry x="200" y="90" width="10" height="20" as="geometry" />
        </mxCell>
        <mxCell id="2oo7fKAP9iWN7UhUma5u-5" value="Check_Plane_X(1)" style="text;html=1;strokeColor=none;fillColor=none;align=right;verticalAlign=middle;whiteSpace=wrap;rounded=0;fontSize=14;fontFamily=Computer Modern;fontColor=#34A853;" parent="2oo7fKAP9iWN7UhUma5u-1" vertex="1">
          <mxGeometry x="85" y="120" width="115" height="40" as="geometry" />
        </mxCell>
        <mxCell id="2oo7fKAP9iWN7UhUma5u-9" value="Total Collisions (OR operation)" style="text;html=1;strokeColor=none;fillColor=none;align=right;verticalAlign=middle;whiteSpace=wrap;rounded=0;fontSize=14;fontFamily=Computer Modern;" parent="2oo7fKAP9iWN7UhUma5u-1" vertex="1">
          <mxGeometry x="88" y="280" width="112" height="40" as="geometry" />
        </mxCell>
        <mxCell id="2oo7fKAP9iWN7UhUma5u-10" style="edgeStyle=orthogonalEdgeStyle;orthogonalLoop=1;jettySize=auto;html=1;exitX=1;exitY=0.5;exitDx=0;exitDy=0;entryX=0;entryY=0.5;entryDx=0;entryDy=0;fontSize=14;curved=1;fillColor=#dae8fc;strokeColor=#6c8ebf;" parent="2oo7fKAP9iWN7UhUma5u-1" source="2oo7fKAP9iWN7UhUma5u-11" target="2oo7fKAP9iWN7UhUma5u-67" edge="1">
          <mxGeometry relative="1" as="geometry">
            <Array as="points">
              <mxPoint x="218.24" y="380" />
              <mxPoint x="218.24" y="420" />
            </Array>
          </mxGeometry>
        </mxCell>
        <mxCell id="67dkpMW3GrvRuxxjmRb5-39" style="edgeStyle=orthogonalEdgeStyle;curved=1;orthogonalLoop=1;jettySize=auto;html=1;exitX=1;exitY=0.5;exitDx=0;exitDy=0;entryX=0;entryY=0.5;entryDx=0;entryDy=0;strokeColor=#6c8ebf;strokeWidth=1;fontFamily=Computer Modern;fontSize=14;fontColor=#34A853;fillColor=#dae8fc;" parent="2oo7fKAP9iWN7UhUma5u-1" source="2oo7fKAP9iWN7UhUma5u-11" target="67dkpMW3GrvRuxxjmRb5-38" edge="1">
          <mxGeometry relative="1" as="geometry">
            <Array as="points">
              <mxPoint x="218" y="380" />
              <mxPoint x="218" y="540" />
            </Array>
          </mxGeometry>
        </mxCell>
        <mxCell id="2oo7fKAP9iWN7UhUma5u-11" value="" style="rounded=0;whiteSpace=wrap;html=1;fillColor=#999999;strokeColor=#000000;fontColor=#333333;" parent="2oo7fKAP9iWN7UhUma5u-1" vertex="1">
          <mxGeometry x="198.24" y="370" width="10" height="20" as="geometry" />
        </mxCell>
        <mxCell id="2oo7fKAP9iWN7UhUma5u-12" value="Read Inputs" style="text;html=1;strokeColor=none;fillColor=none;align=right;verticalAlign=middle;whiteSpace=wrap;rounded=0;fontSize=14;fontFamily=Computer Modern;" parent="2oo7fKAP9iWN7UhUma5u-1" vertex="1">
          <mxGeometry x="128.24" y="360" width="70" height="40" as="geometry" />
        </mxCell>
        <mxCell id="2oo7fKAP9iWN7UhUma5u-19" value="Total Collisions (OR operation)" style="text;html=1;strokeColor=none;fillColor=none;align=right;verticalAlign=middle;whiteSpace=wrap;rounded=0;fontSize=14;fontFamily=Computer Modern;" parent="2oo7fKAP9iWN7UhUma5u-1" vertex="1">
          <mxGeometry x="86.24" y="560" width="112" height="40" as="geometry" />
        </mxCell>
        <mxCell id="2oo7fKAP9iWN7UhUma5u-20" value="" style="rounded=0;whiteSpace=wrap;html=1;fillColor=#999999;strokeColor=#000000;fontColor=#333333;" parent="2oo7fKAP9iWN7UhUma5u-1" vertex="1">
          <mxGeometry x="358.74" y="570" width="10" height="20" as="geometry" />
        </mxCell>
        <mxCell id="2oo7fKAP9iWN7UhUma5u-22" value="&lt;font style=&quot;font-size: 21px&quot;&gt;&lt;u&gt;Checking Each X Plane Sequentially&lt;/u&gt;&lt;/font&gt;" style="text;html=1;strokeColor=none;fillColor=none;align=center;verticalAlign=middle;whiteSpace=wrap;rounded=0;fontFamily=Computer Modern;fontSize=14;" parent="2oo7fKAP9iWN7UhUma5u-1" vertex="1">
          <mxGeometry x="321" y="40" width="410" height="40" as="geometry" />
        </mxCell>
        <mxCell id="2oo7fKAP9iWN7UhUma5u-23" value="" style="endArrow=none;html=1;" parent="2oo7fKAP9iWN7UhUma5u-1" edge="1">
          <mxGeometry width="50" height="50" relative="1" as="geometry">
            <mxPoint x="439.06" y="600" as="sourcePoint" />
            <mxPoint x="439.24" y="360" as="targetPoint" />
          </mxGeometry>
        </mxCell>
        <mxCell id="2oo7fKAP9iWN7UhUma5u-25" value="" style="endArrow=none;html=1;" parent="2oo7fKAP9iWN7UhUma5u-1" edge="1">
          <mxGeometry width="50" height="50" relative="1" as="geometry">
            <mxPoint x="479.23999999999995" y="600" as="sourcePoint" />
            <mxPoint x="479.42" y="360" as="targetPoint" />
          </mxGeometry>
        </mxCell>
        <mxCell id="2oo7fKAP9iWN7UhUma5u-27" value="" style="endArrow=none;html=1;" parent="2oo7fKAP9iWN7UhUma5u-1" edge="1">
          <mxGeometry width="50" height="50" relative="1" as="geometry">
            <mxPoint x="519.24" y="600" as="sourcePoint" />
            <mxPoint x="519.4200000000001" y="360" as="targetPoint" />
          </mxGeometry>
        </mxCell>
        <mxCell id="2oo7fKAP9iWN7UhUma5u-29" value="" style="endArrow=none;html=1;" parent="2oo7fKAP9iWN7UhUma5u-1" edge="1">
          <mxGeometry width="50" height="50" relative="1" as="geometry">
            <mxPoint x="558.4200000000001" y="600" as="sourcePoint" />
            <mxPoint x="558.6000000000001" y="360" as="targetPoint" />
          </mxGeometry>
        </mxCell>
        <mxCell id="2oo7fKAP9iWN7UhUma5u-31" value="" style="endArrow=none;html=1;" parent="2oo7fKAP9iWN7UhUma5u-1" edge="1">
          <mxGeometry width="50" height="50" relative="1" as="geometry">
            <mxPoint x="598.4200000000001" y="600" as="sourcePoint" />
            <mxPoint x="598.6000000000001" y="360" as="targetPoint" />
          </mxGeometry>
        </mxCell>
        <mxCell id="2oo7fKAP9iWN7UhUma5u-32" value="&lt;span style=&quot;font-size: 21px&quot;&gt;&lt;u&gt;Checking Each X Plane in Parallel&lt;/u&gt;&lt;/span&gt;" style="text;html=1;strokeColor=none;fillColor=none;align=center;verticalAlign=middle;whiteSpace=wrap;rounded=0;fontFamily=Computer Modern;fontSize=14;" parent="2oo7fKAP9iWN7UhUma5u-1" vertex="1">
          <mxGeometry x="358.74" y="320" width="329" height="40" as="geometry" />
        </mxCell>
        <mxCell id="2oo7fKAP9iWN7UhUma5u-34" value="" style="endArrow=none;html=1;" parent="2oo7fKAP9iWN7UhUma5u-1" edge="1">
          <mxGeometry width="50" height="50" relative="1" as="geometry">
            <mxPoint x="238.30000000000015" y="600" as="sourcePoint" />
            <mxPoint x="238.48" y="360" as="targetPoint" />
          </mxGeometry>
        </mxCell>
        <mxCell id="2oo7fKAP9iWN7UhUma5u-36" value="" style="endArrow=none;html=1;" parent="2oo7fKAP9iWN7UhUma5u-1" edge="1">
          <mxGeometry width="50" height="50" relative="1" as="geometry">
            <mxPoint x="278.48" y="600" as="sourcePoint" />
            <mxPoint x="278.65999999999985" y="360" as="targetPoint" />
          </mxGeometry>
        </mxCell>
        <mxCell id="2oo7fKAP9iWN7UhUma5u-38" value="" style="endArrow=none;html=1;" parent="2oo7fKAP9iWN7UhUma5u-1" edge="1">
          <mxGeometry width="50" height="50" relative="1" as="geometry">
            <mxPoint x="318.48" y="600" as="sourcePoint" />
            <mxPoint x="318.6600000000003" y="360" as="targetPoint" />
          </mxGeometry>
        </mxCell>
        <mxCell id="2oo7fKAP9iWN7UhUma5u-40" value="" style="endArrow=none;html=1;" parent="2oo7fKAP9iWN7UhUma5u-1" edge="1">
          <mxGeometry width="50" height="50" relative="1" as="geometry">
            <mxPoint x="358.6600000000003" y="600" as="sourcePoint" />
            <mxPoint x="358.84000000000015" y="360" as="targetPoint" />
          </mxGeometry>
        </mxCell>
        <mxCell id="2oo7fKAP9iWN7UhUma5u-42" value="" style="endArrow=none;html=1;" parent="2oo7fKAP9iWN7UhUma5u-1" edge="1">
          <mxGeometry width="50" height="50" relative="1" as="geometry">
            <mxPoint x="398.6600000000003" y="600" as="sourcePoint" />
            <mxPoint x="398.84000000000015" y="360" as="targetPoint" />
          </mxGeometry>
        </mxCell>
        <mxCell id="2oo7fKAP9iWN7UhUma5u-44" value="" style="endArrow=none;html=1;" parent="2oo7fKAP9iWN7UhUma5u-1" edge="1">
          <mxGeometry width="50" height="50" relative="1" as="geometry">
            <mxPoint x="198.58000000000018" y="600" as="sourcePoint" />
            <mxPoint x="198.76000000000002" y="360.0000000000001" as="targetPoint" />
          </mxGeometry>
        </mxCell>
        <mxCell id="2oo7fKAP9iWN7UhUma5u-46" value="" style="endArrow=none;html=1;" parent="2oo7fKAP9iWN7UhUma5u-1" edge="1">
          <mxGeometry width="50" height="50" relative="1" as="geometry">
            <mxPoint x="678.64" y="600" as="sourcePoint" />
            <mxPoint x="678.82" y="360" as="targetPoint" />
          </mxGeometry>
        </mxCell>
        <mxCell id="2oo7fKAP9iWN7UhUma5u-48" value="" style="endArrow=none;html=1;" parent="2oo7fKAP9iWN7UhUma5u-1" edge="1">
          <mxGeometry width="50" height="50" relative="1" as="geometry">
            <mxPoint x="717.82" y="600" as="sourcePoint" />
            <mxPoint x="718.0000000000001" y="360" as="targetPoint" />
          </mxGeometry>
        </mxCell>
        <mxCell id="2oo7fKAP9iWN7UhUma5u-50" value="" style="endArrow=none;html=1;" parent="2oo7fKAP9iWN7UhUma5u-1" edge="1">
          <mxGeometry width="50" height="50" relative="1" as="geometry">
            <mxPoint x="757.82" y="600" as="sourcePoint" />
            <mxPoint x="758.0000000000003" y="360" as="targetPoint" />
          </mxGeometry>
        </mxCell>
        <mxCell id="2oo7fKAP9iWN7UhUma5u-51" value="" style="endArrow=none;html=1;" parent="2oo7fKAP9iWN7UhUma5u-1" edge="1">
          <mxGeometry width="50" height="50" relative="1" as="geometry">
            <mxPoint x="800" y="320" as="sourcePoint" />
            <mxPoint x="799.9400000000002" y="80" as="targetPoint" />
          </mxGeometry>
        </mxCell>
        <mxCell id="2oo7fKAP9iWN7UhUma5u-52" value="" style="endArrow=none;html=1;" parent="2oo7fKAP9iWN7UhUma5u-1" edge="1">
          <mxGeometry width="50" height="50" relative="1" as="geometry">
            <mxPoint x="798.0000000000003" y="600" as="sourcePoint" />
            <mxPoint x="798.1800000000002" y="360" as="targetPoint" />
          </mxGeometry>
        </mxCell>
        <mxCell id="2oo7fKAP9iWN7UhUma5u-56" value="" style="endArrow=none;html=1;" parent="2oo7fKAP9iWN7UhUma5u-1" edge="1">
          <mxGeometry width="50" height="50" relative="1" as="geometry">
            <mxPoint x="638.2400000000004" y="600" as="sourcePoint" />
            <mxPoint x="638.4200000000002" y="360" as="targetPoint" />
          </mxGeometry>
        </mxCell>
        <mxCell id="2oo7fKAP9iWN7UhUma5u-59" value="Read Inputs" style="text;html=1;strokeColor=none;fillColor=none;align=right;verticalAlign=middle;whiteSpace=wrap;rounded=0;fontSize=14;fontFamily=Computer Modern;" parent="2oo7fKAP9iWN7UhUma5u-1" vertex="1">
          <mxGeometry x="130" y="80" width="70" height="40" as="geometry" />
        </mxCell>
        <mxCell id="67dkpMW3GrvRuxxjmRb5-33" style="edgeStyle=orthogonalEdgeStyle;curved=1;orthogonalLoop=1;jettySize=auto;html=1;exitX=1;exitY=0.5;exitDx=0;exitDy=0;strokeColor=#6c8ebf;strokeWidth=1;fontFamily=Computer Modern;fontSize=14;fontColor=#34A853;entryX=0;entryY=0.5;entryDx=0;entryDy=0;fillColor=#dae8fc;" parent="2oo7fKAP9iWN7UhUma5u-1" source="2oo7fKAP9iWN7UhUma5u-61" target="2oo7fKAP9iWN7UhUma5u-64" edge="1">
          <mxGeometry relative="1" as="geometry">
            <mxPoint x="710" y="290" as="targetPoint" />
            <Array as="points">
              <mxPoint x="700" y="140" />
              <mxPoint x="700" y="300" />
            </Array>
          </mxGeometry>
        </mxCell>
        <mxCell id="2oo7fKAP9iWN7UhUma5u-61" value="" style="rounded=0;whiteSpace=wrap;html=1;fontSize=14;align=right;fillColor=#999999;strokeColor=#000000;fontColor=#333333;" parent="2oo7fKAP9iWN7UhUma5u-1" vertex="1">
          <mxGeometry x="240" y="130" width="90" height="20" as="geometry" />
        </mxCell>
        <mxCell id="2oo7fKAP9iWN7UhUma5u-64" value="" style="rounded=0;whiteSpace=wrap;html=1;fillColor=#999999;strokeColor=#000000;fontColor=#333333;" parent="2oo7fKAP9iWN7UhUma5u-1" vertex="1">
          <mxGeometry x="721" y="290" width="10" height="20" as="geometry" />
        </mxCell>
        <mxCell id="2oo7fKAP9iWN7UhUma5u-65" style="edgeStyle=orthogonalEdgeStyle;curved=1;orthogonalLoop=1;jettySize=auto;html=1;exitX=1;exitY=0.5;exitDx=0;exitDy=0;entryX=0;entryY=0.5;entryDx=0;entryDy=0;fontSize=14;fillColor=#dae8fc;strokeColor=#6c8ebf;" parent="2oo7fKAP9iWN7UhUma5u-1" source="2oo7fKAP9iWN7UhUma5u-11" target="2oo7fKAP9iWN7UhUma5u-68" edge="1">
          <mxGeometry relative="1" as="geometry">
            <Array as="points">
              <mxPoint x="218.24" y="380" />
              <mxPoint x="218.24" y="460" />
            </Array>
          </mxGeometry>
        </mxCell>
        <mxCell id="2oo7fKAP9iWN7UhUma5u-66" style="edgeStyle=orthogonalEdgeStyle;curved=1;orthogonalLoop=1;jettySize=auto;html=1;exitX=1;exitY=0.5;exitDx=0;exitDy=0;entryX=0;entryY=0.5;entryDx=0;entryDy=0;fontSize=14;fillColor=#dae8fc;strokeColor=#6c8ebf;" parent="2oo7fKAP9iWN7UhUma5u-1" source="2oo7fKAP9iWN7UhUma5u-11" target="2oo7fKAP9iWN7UhUma5u-69" edge="1">
          <mxGeometry relative="1" as="geometry">
            <Array as="points">
              <mxPoint x="218.24" y="380" />
              <mxPoint x="218.24" y="500" />
            </Array>
          </mxGeometry>
        </mxCell>
        <mxCell id="67dkpMW3GrvRuxxjmRb5-41" style="edgeStyle=orthogonalEdgeStyle;curved=1;orthogonalLoop=1;jettySize=auto;html=1;exitX=1;exitY=0.5;exitDx=0;exitDy=0;entryX=0;entryY=0.5;entryDx=0;entryDy=0;strokeColor=#6c8ebf;strokeWidth=1;fontFamily=Computer Modern;fontSize=14;fontColor=#34A853;fillColor=#dae8fc;" parent="2oo7fKAP9iWN7UhUma5u-1" source="2oo7fKAP9iWN7UhUma5u-67" target="2oo7fKAP9iWN7UhUma5u-20" edge="1">
          <mxGeometry relative="1" as="geometry">
            <Array as="points">
              <mxPoint x="339" y="420" />
              <mxPoint x="339" y="580" />
            </Array>
          </mxGeometry>
        </mxCell>
        <mxCell id="2oo7fKAP9iWN7UhUma5u-67" value="" style="rounded=0;whiteSpace=wrap;html=1;fontSize=14;align=right;fillColor=#999999;strokeColor=#000000;fontColor=#333333;" parent="2oo7fKAP9iWN7UhUma5u-1" vertex="1">
          <mxGeometry x="238.24" y="410" width="91.76" height="20" as="geometry" />
        </mxCell>
        <mxCell id="67dkpMW3GrvRuxxjmRb5-42" style="edgeStyle=orthogonalEdgeStyle;curved=1;orthogonalLoop=1;jettySize=auto;html=1;exitX=1;exitY=0.5;exitDx=0;exitDy=0;strokeColor=#6c8ebf;strokeWidth=1;fontFamily=Computer Modern;fontSize=14;fontColor=#34A853;entryX=0;entryY=0.5;entryDx=0;entryDy=0;fillColor=#dae8fc;" parent="2oo7fKAP9iWN7UhUma5u-1" source="2oo7fKAP9iWN7UhUma5u-68" target="2oo7fKAP9iWN7UhUma5u-20" edge="1">
          <mxGeometry relative="1" as="geometry">
            <mxPoint x="360" y="580" as="targetPoint" />
            <Array as="points">
              <mxPoint x="339" y="460" />
              <mxPoint x="339" y="580" />
            </Array>
          </mxGeometry>
        </mxCell>
        <mxCell id="2oo7fKAP9iWN7UhUma5u-68" value="" style="rounded=0;whiteSpace=wrap;html=1;fontSize=14;align=right;fillColor=#999999;strokeColor=#000000;fontColor=#333333;" parent="2oo7fKAP9iWN7UhUma5u-1" vertex="1">
          <mxGeometry x="238.24" y="450" width="91.76" height="20" as="geometry" />
        </mxCell>
        <mxCell id="67dkpMW3GrvRuxxjmRb5-43" style="edgeStyle=orthogonalEdgeStyle;curved=1;orthogonalLoop=1;jettySize=auto;html=1;exitX=1;exitY=0.5;exitDx=0;exitDy=0;strokeColor=#6c8ebf;strokeWidth=1;fontFamily=Computer Modern;fontSize=14;fontColor=#34A853;entryX=0;entryY=0.5;entryDx=0;entryDy=0;fillColor=#dae8fc;" parent="2oo7fKAP9iWN7UhUma5u-1" source="2oo7fKAP9iWN7UhUma5u-69" target="2oo7fKAP9iWN7UhUma5u-20" edge="1">
          <mxGeometry relative="1" as="geometry">
            <mxPoint x="360" y="580" as="targetPoint" />
            <Array as="points">
              <mxPoint x="339" y="500" />
              <mxPoint x="339" y="580" />
            </Array>
          </mxGeometry>
        </mxCell>
        <mxCell id="2oo7fKAP9iWN7UhUma5u-69" value="" style="rounded=0;whiteSpace=wrap;html=1;fontSize=14;align=right;fillColor=#999999;strokeColor=#000000;fontColor=#333333;" parent="2oo7fKAP9iWN7UhUma5u-1" vertex="1">
          <mxGeometry x="238.24" y="490" width="91.76" height="20" as="geometry" />
        </mxCell>
        <mxCell id="67dkpMW3GrvRuxxjmRb5-0" value="Check_Plane_X(2)" style="text;html=1;strokeColor=none;fillColor=none;align=right;verticalAlign=middle;whiteSpace=wrap;rounded=0;fontSize=14;fontFamily=Computer Modern;fontColor=#34A853;" parent="2oo7fKAP9iWN7UhUma5u-1" vertex="1">
          <mxGeometry x="85" y="160" width="115" height="40" as="geometry" />
        </mxCell>
        <mxCell id="67dkpMW3GrvRuxxjmRb5-1" value="Check_Plane_X(3)" style="text;html=1;strokeColor=none;fillColor=none;align=right;verticalAlign=middle;whiteSpace=wrap;rounded=0;fontSize=14;fontFamily=Computer Modern;fontColor=#34A853;" parent="2oo7fKAP9iWN7UhUma5u-1" vertex="1">
          <mxGeometry x="85" y="200" width="115" height="40" as="geometry" />
        </mxCell>
        <mxCell id="67dkpMW3GrvRuxxjmRb5-4" value="" style="endArrow=none;html=1;" parent="2oo7fKAP9iWN7UhUma5u-1" edge="1">
          <mxGeometry width="50" height="50" relative="1" as="geometry">
            <mxPoint x="720.06" y="320" as="sourcePoint" />
            <mxPoint x="720" y="80" as="targetPoint" />
          </mxGeometry>
        </mxCell>
        <mxCell id="67dkpMW3GrvRuxxjmRb5-5" value="" style="endArrow=none;html=1;" parent="2oo7fKAP9iWN7UhUma5u-1" edge="1">
          <mxGeometry width="50" height="50" relative="1" as="geometry">
            <mxPoint x="759.1199999999999" y="320" as="sourcePoint" />
            <mxPoint x="759.06" y="80" as="targetPoint" />
          </mxGeometry>
        </mxCell>
        <mxCell id="67dkpMW3GrvRuxxjmRb5-6" value="" style="endArrow=none;html=1;" parent="2oo7fKAP9iWN7UhUma5u-1" edge="1">
          <mxGeometry width="50" height="50" relative="1" as="geometry">
            <mxPoint x="640" y="320" as="sourcePoint" />
            <mxPoint x="639.94" y="80" as="targetPoint" />
          </mxGeometry>
        </mxCell>
        <mxCell id="67dkpMW3GrvRuxxjmRb5-7" value="" style="endArrow=none;html=1;" parent="2oo7fKAP9iWN7UhUma5u-1" edge="1">
          <mxGeometry width="50" height="50" relative="1" as="geometry">
            <mxPoint x="680.06" y="320" as="sourcePoint" />
            <mxPoint x="680" y="80" as="targetPoint" />
          </mxGeometry>
        </mxCell>
        <mxCell id="67dkpMW3GrvRuxxjmRb5-8" value="" style="endArrow=none;html=1;" parent="2oo7fKAP9iWN7UhUma5u-1" edge="1">
          <mxGeometry width="50" height="50" relative="1" as="geometry">
            <mxPoint x="560.06" y="320" as="sourcePoint" />
            <mxPoint x="560" y="80" as="targetPoint" />
          </mxGeometry>
        </mxCell>
        <mxCell id="67dkpMW3GrvRuxxjmRb5-9" value="" style="endArrow=none;html=1;" parent="2oo7fKAP9iWN7UhUma5u-1" edge="1">
          <mxGeometry width="50" height="50" relative="1" as="geometry">
            <mxPoint x="599.1199999999999" y="320" as="sourcePoint" />
            <mxPoint x="599.06" y="80" as="targetPoint" />
          </mxGeometry>
        </mxCell>
        <mxCell id="67dkpMW3GrvRuxxjmRb5-10" value="" style="endArrow=none;html=1;" parent="2oo7fKAP9iWN7UhUma5u-1" edge="1">
          <mxGeometry width="50" height="50" relative="1" as="geometry">
            <mxPoint x="481.24" y="320" as="sourcePoint" />
            <mxPoint x="481.18000000000006" y="80" as="targetPoint" />
          </mxGeometry>
        </mxCell>
        <mxCell id="67dkpMW3GrvRuxxjmRb5-11" value="" style="endArrow=none;html=1;" parent="2oo7fKAP9iWN7UhUma5u-1" edge="1">
          <mxGeometry width="50" height="50" relative="1" as="geometry">
            <mxPoint x="520.3" y="320" as="sourcePoint" />
            <mxPoint x="520.24" y="80" as="targetPoint" />
          </mxGeometry>
        </mxCell>
        <mxCell id="67dkpMW3GrvRuxxjmRb5-12" value="" style="endArrow=none;html=1;" parent="2oo7fKAP9iWN7UhUma5u-1" edge="1">
          <mxGeometry width="50" height="50" relative="1" as="geometry">
            <mxPoint x="400.29999999999995" y="320" as="sourcePoint" />
            <mxPoint x="400.24" y="80" as="targetPoint" />
          </mxGeometry>
        </mxCell>
        <mxCell id="67dkpMW3GrvRuxxjmRb5-13" value="" style="endArrow=none;html=1;" parent="2oo7fKAP9iWN7UhUma5u-1" edge="1">
          <mxGeometry width="50" height="50" relative="1" as="geometry">
            <mxPoint x="439.3599999999999" y="320" as="sourcePoint" />
            <mxPoint x="439.29999999999995" y="80" as="targetPoint" />
          </mxGeometry>
        </mxCell>
        <mxCell id="67dkpMW3GrvRuxxjmRb5-14" value="" style="endArrow=none;html=1;" parent="2oo7fKAP9iWN7UhUma5u-1" edge="1">
          <mxGeometry width="50" height="50" relative="1" as="geometry">
            <mxPoint x="320.74" y="320" as="sourcePoint" />
            <mxPoint x="320.68000000000006" y="80" as="targetPoint" />
          </mxGeometry>
        </mxCell>
        <mxCell id="67dkpMW3GrvRuxxjmRb5-15" value="" style="endArrow=none;html=1;" parent="2oo7fKAP9iWN7UhUma5u-1" edge="1">
          <mxGeometry width="50" height="50" relative="1" as="geometry">
            <mxPoint x="359.79999999999995" y="320" as="sourcePoint" />
            <mxPoint x="359.74" y="80" as="targetPoint" />
          </mxGeometry>
        </mxCell>
        <mxCell id="67dkpMW3GrvRuxxjmRb5-16" value="" style="endArrow=none;html=1;" parent="2oo7fKAP9iWN7UhUma5u-1" edge="1">
          <mxGeometry width="50" height="50" relative="1" as="geometry">
            <mxPoint x="239.79999999999995" y="320" as="sourcePoint" />
            <mxPoint x="239.74" y="80" as="targetPoint" />
          </mxGeometry>
        </mxCell>
        <mxCell id="67dkpMW3GrvRuxxjmRb5-17" value="" style="endArrow=none;html=1;" parent="2oo7fKAP9iWN7UhUma5u-1" edge="1">
          <mxGeometry width="50" height="50" relative="1" as="geometry">
            <mxPoint x="278.8599999999999" y="320" as="sourcePoint" />
            <mxPoint x="278.79999999999995" y="80" as="targetPoint" />
          </mxGeometry>
        </mxCell>
        <mxCell id="67dkpMW3GrvRuxxjmRb5-18" value="" style="endArrow=none;html=1;" parent="2oo7fKAP9iWN7UhUma5u-1" edge="1">
          <mxGeometry width="50" height="50" relative="1" as="geometry">
            <mxPoint x="199.2999999999999" y="320" as="sourcePoint" />
            <mxPoint x="199.23999999999995" y="80" as="targetPoint" />
          </mxGeometry>
        </mxCell>
        <mxCell id="67dkpMW3GrvRuxxjmRb5-19" value="Check_Plane_X(4)" style="text;html=1;strokeColor=none;fillColor=none;align=right;verticalAlign=middle;whiteSpace=wrap;rounded=0;fontSize=14;fontFamily=Computer Modern;fontColor=#34A853;" parent="2oo7fKAP9iWN7UhUma5u-1" vertex="1">
          <mxGeometry x="85" y="240" width="115" height="40" as="geometry" />
        </mxCell>
        <mxCell id="67dkpMW3GrvRuxxjmRb5-32" style="edgeStyle=orthogonalEdgeStyle;curved=1;orthogonalLoop=1;jettySize=auto;html=1;exitX=1;exitY=0.5;exitDx=0;exitDy=0;strokeColor=#6c8ebf;strokeWidth=1;fontFamily=Computer Modern;fontSize=14;fontColor=#34A853;entryX=0;entryY=0.5;entryDx=0;entryDy=0;fillColor=#dae8fc;" parent="2oo7fKAP9iWN7UhUma5u-1" source="67dkpMW3GrvRuxxjmRb5-20" target="2oo7fKAP9iWN7UhUma5u-64" edge="1">
          <mxGeometry relative="1" as="geometry">
            <mxPoint x="710" y="280" as="targetPoint" />
            <Array as="points">
              <mxPoint x="700" y="180" />
              <mxPoint x="700" y="300" />
            </Array>
          </mxGeometry>
        </mxCell>
        <mxCell id="67dkpMW3GrvRuxxjmRb5-20" value="" style="rounded=0;whiteSpace=wrap;html=1;fontSize=14;align=right;fillColor=#999999;strokeColor=#000000;fontColor=#333333;" parent="2oo7fKAP9iWN7UhUma5u-1" vertex="1">
          <mxGeometry x="358.74" y="170" width="90" height="20" as="geometry" />
        </mxCell>
        <mxCell id="67dkpMW3GrvRuxxjmRb5-31" style="edgeStyle=orthogonalEdgeStyle;curved=1;orthogonalLoop=1;jettySize=auto;html=1;exitX=1;exitY=0.5;exitDx=0;exitDy=0;strokeColor=#6c8ebf;strokeWidth=1;fontFamily=Computer Modern;fontSize=14;fontColor=#34A853;entryX=0;entryY=0.5;entryDx=0;entryDy=0;fillColor=#dae8fc;" parent="2oo7fKAP9iWN7UhUma5u-1" source="67dkpMW3GrvRuxxjmRb5-21" target="2oo7fKAP9iWN7UhUma5u-64" edge="1">
          <mxGeometry relative="1" as="geometry">
            <mxPoint x="720" y="300" as="targetPoint" />
            <Array as="points">
              <mxPoint x="700" y="220" />
              <mxPoint x="700" y="300" />
            </Array>
          </mxGeometry>
        </mxCell>
        <mxCell id="67dkpMW3GrvRuxxjmRb5-21" value="" style="rounded=0;whiteSpace=wrap;html=1;fontSize=14;align=right;fillColor=#999999;strokeColor=#000000;fontColor=#333333;" parent="2oo7fKAP9iWN7UhUma5u-1" vertex="1">
          <mxGeometry x="481" y="210" width="90" height="20" as="geometry" />
        </mxCell>
        <mxCell id="67dkpMW3GrvRuxxjmRb5-30" style="edgeStyle=orthogonalEdgeStyle;curved=1;orthogonalLoop=1;jettySize=auto;html=1;exitX=1;exitY=0.5;exitDx=0;exitDy=0;entryX=0;entryY=0.5;entryDx=0;entryDy=0;strokeColor=#6c8ebf;strokeWidth=1;fontFamily=Computer Modern;fontSize=14;fontColor=#34A853;fillColor=#dae8fc;" parent="2oo7fKAP9iWN7UhUma5u-1" source="67dkpMW3GrvRuxxjmRb5-23" target="2oo7fKAP9iWN7UhUma5u-64" edge="1">
          <mxGeometry relative="1" as="geometry">
            <Array as="points">
              <mxPoint x="701" y="260" />
              <mxPoint x="701" y="300" />
            </Array>
          </mxGeometry>
        </mxCell>
        <mxCell id="67dkpMW3GrvRuxxjmRb5-23" value="" style="rounded=0;whiteSpace=wrap;html=1;fontSize=14;align=right;fillColor=#999999;strokeColor=#000000;fontColor=#333333;" parent="2oo7fKAP9iWN7UhUma5u-1" vertex="1">
          <mxGeometry x="600" y="250" width="90" height="20" as="geometry" />
        </mxCell>
        <mxCell id="67dkpMW3GrvRuxxjmRb5-34" value="Check_Plane_X(1)" style="text;html=1;strokeColor=none;fillColor=none;align=right;verticalAlign=middle;whiteSpace=wrap;rounded=0;fontSize=14;fontFamily=Computer Modern;fontColor=#34A853;" parent="2oo7fKAP9iWN7UhUma5u-1" vertex="1">
          <mxGeometry x="83.24" y="400" width="115" height="40" as="geometry" />
        </mxCell>
        <mxCell id="67dkpMW3GrvRuxxjmRb5-35" value="Check_Plane_X(2)" style="text;html=1;strokeColor=none;fillColor=none;align=right;verticalAlign=middle;whiteSpace=wrap;rounded=0;fontSize=14;fontFamily=Computer Modern;fontColor=#34A853;" parent="2oo7fKAP9iWN7UhUma5u-1" vertex="1">
          <mxGeometry x="83.24" y="440" width="115" height="40" as="geometry" />
        </mxCell>
        <mxCell id="67dkpMW3GrvRuxxjmRb5-36" value="Check_Plane_X(3)" style="text;html=1;strokeColor=none;fillColor=none;align=right;verticalAlign=middle;whiteSpace=wrap;rounded=0;fontSize=14;fontFamily=Computer Modern;fontColor=#34A853;" parent="2oo7fKAP9iWN7UhUma5u-1" vertex="1">
          <mxGeometry x="83.24" y="480" width="115" height="40" as="geometry" />
        </mxCell>
        <mxCell id="67dkpMW3GrvRuxxjmRb5-37" value="Check_Plane_X(4)" style="text;html=1;strokeColor=none;fillColor=none;align=right;verticalAlign=middle;whiteSpace=wrap;rounded=0;fontSize=14;fontFamily=Computer Modern;fontColor=#34A853;" parent="2oo7fKAP9iWN7UhUma5u-1" vertex="1">
          <mxGeometry x="83.24000000000001" y="520" width="115" height="40" as="geometry" />
        </mxCell>
        <mxCell id="67dkpMW3GrvRuxxjmRb5-44" style="edgeStyle=orthogonalEdgeStyle;curved=1;orthogonalLoop=1;jettySize=auto;html=1;exitX=1;exitY=0.5;exitDx=0;exitDy=0;entryX=0;entryY=0.5;entryDx=0;entryDy=0;strokeColor=#6c8ebf;strokeWidth=1;fontFamily=Computer Modern;fontSize=14;fontColor=#34A853;fillColor=#dae8fc;" parent="2oo7fKAP9iWN7UhUma5u-1" source="67dkpMW3GrvRuxxjmRb5-38" target="2oo7fKAP9iWN7UhUma5u-20" edge="1">
          <mxGeometry relative="1" as="geometry">
            <Array as="points">
              <mxPoint x="339" y="540" />
              <mxPoint x="339" y="580" />
            </Array>
          </mxGeometry>
        </mxCell>
        <mxCell id="67dkpMW3GrvRuxxjmRb5-38" value="" style="rounded=0;whiteSpace=wrap;html=1;fontSize=14;align=right;fillColor=#999999;strokeColor=#000000;fontColor=#333333;" parent="2oo7fKAP9iWN7UhUma5u-1" vertex="1">
          <mxGeometry x="238.24" y="530" width="90" height="20" as="geometry" />
        </mxCell>
      </root>
    </mxGraphModel>
  </diagram>
  <diagram id="FR5DDIXs6lLKufctyFYQ" name="Edge Collision">
    <mxGraphModel dx="2293" dy="1250" grid="0" gridSize="10" guides="1" tooltips="1" connect="1" arrows="1" fold="1" page="1" pageScale="1" pageWidth="2400" pageHeight="2400" math="0" shadow="0">
      <root>
        <mxCell id="wEtGg_RZ93yMnzrgPgLD-0" />
        <mxCell id="wEtGg_RZ93yMnzrgPgLD-1" parent="wEtGg_RZ93yMnzrgPgLD-0" />
        <mxCell id="yj8fQrJnfB6Jm6q0njUs-28" value="" style="whiteSpace=wrap;html=1;aspect=fixed;strokeColor=#000000;strokeWidth=2;fillColor=#dae8fc;fontFamily=Computer Modern;fontSize=14;align=right;" vertex="1" parent="wEtGg_RZ93yMnzrgPgLD-1">
          <mxGeometry x="759" y="680" width="160" height="160" as="geometry" />
        </mxCell>
        <mxCell id="yj8fQrJnfB6Jm6q0njUs-41" value="" style="endArrow=none;html=1;fontFamily=Computer Modern;fontSize=14;fontColor=#4285F4;strokeWidth=2;" edge="1" parent="wEtGg_RZ93yMnzrgPgLD-1">
          <mxGeometry width="50" height="50" relative="1" as="geometry">
            <mxPoint x="879" y="760" as="sourcePoint" />
            <mxPoint x="919" y="760.0000000000001" as="targetPoint" />
          </mxGeometry>
        </mxCell>
        <mxCell id="yj8fQrJnfB6Jm6q0njUs-54" value="" style="endArrow=none;html=1;strokeWidth=3;fontFamily=Computer Modern;fontSize=14;fontColor=#4285F4;fillColor=#f8cecc;strokeColor=#FBBC05;exitX=0.981;exitY=0.369;exitDx=0;exitDy=0;exitPerimeter=0;" edge="1" parent="wEtGg_RZ93yMnzrgPgLD-1" source="yj8fQrJnfB6Jm6q0njUs-30">
          <mxGeometry width="50" height="50" relative="1" as="geometry">
            <mxPoint x="889" y="773" as="sourcePoint" />
            <mxPoint x="964" y="735" as="targetPoint" />
          </mxGeometry>
        </mxCell>
        <mxCell id="DWawK90ymuiwGeReD8Av-10" value="" style="endArrow=none;html=1;strokeWidth=3;fontFamily=Computer Modern;fontSize=14;fontColor=#4285F4;fillColor=#f8cecc;strokeColor=#FBBC05;exitX=1;exitY=0;exitDx=0;exitDy=0;" parent="wEtGg_RZ93yMnzrgPgLD-1" source="DWawK90ymuiwGeReD8Av-14" edge="1">
          <mxGeometry width="50" height="50" relative="1" as="geometry">
            <mxPoint x="830" y="180" as="sourcePoint" />
            <mxPoint x="880" y="130" as="targetPoint" />
          </mxGeometry>
        </mxCell>
        <mxCell id="wEtGg_RZ93yMnzrgPgLD-50" value="" style="whiteSpace=wrap;html=1;aspect=fixed;strokeColor=#000000;strokeWidth=2;fillColor=#dae8fc;fontFamily=Computer Modern;fontSize=14;align=right;" parent="wEtGg_RZ93yMnzrgPgLD-1" vertex="1">
          <mxGeometry x="720" y="160" width="160" height="160" as="geometry" />
        </mxCell>
        <mxCell id="DWawK90ymuiwGeReD8Av-9" value="" style="endArrow=none;html=1;strokeWidth=3;fontFamily=Computer Modern;fontSize=14;fontColor=#4285F4;fillColor=#f8cecc;strokeColor=#FBBC05;" parent="wEtGg_RZ93yMnzrgPgLD-1" edge="1">
          <mxGeometry width="50" height="50" relative="1" as="geometry">
            <mxPoint x="810" y="200" as="sourcePoint" />
            <mxPoint x="840" y="170" as="targetPoint" />
          </mxGeometry>
        </mxCell>
        <mxCell id="wEtGg_RZ93yMnzrgPgLD-49" value="" style="whiteSpace=wrap;html=1;aspect=fixed;strokeColor=#000000;strokeWidth=2;fillColor=#99CCFF;fontFamily=Computer Modern;fontSize=14;align=right;" parent="wEtGg_RZ93yMnzrgPgLD-1" vertex="1">
          <mxGeometry x="680" y="200" width="160" height="160" as="geometry" />
        </mxCell>
        <mxCell id="DWawK90ymuiwGeReD8Av-6" value="" style="endArrow=none;html=1;strokeWidth=3;fontFamily=Computer Modern;fontSize=14;fontColor=#4285F4;fillColor=#f8cecc;strokeColor=#FBBC05;" parent="wEtGg_RZ93yMnzrgPgLD-1" edge="1">
          <mxGeometry width="50" height="50" relative="1" as="geometry">
            <mxPoint x="770" y="240" as="sourcePoint" />
            <mxPoint x="790" y="220" as="targetPoint" />
          </mxGeometry>
        </mxCell>
        <mxCell id="wEtGg_RZ93yMnzrgPgLD-48" value="" style="whiteSpace=wrap;html=1;aspect=fixed;strokeColor=#000000;strokeWidth=2;fillColor=#66B2FF;fontFamily=Computer Modern;fontSize=14;align=right;" parent="wEtGg_RZ93yMnzrgPgLD-1" vertex="1">
          <mxGeometry x="640" y="240" width="160" height="160" as="geometry" />
        </mxCell>
        <mxCell id="wEtGg_RZ93yMnzrgPgLD-52" value="" style="whiteSpace=wrap;html=1;aspect=fixed;strokeWidth=2;fontFamily=Computer Modern;fontSize=14;align=right;" parent="wEtGg_RZ93yMnzrgPgLD-1" vertex="1">
          <mxGeometry x="320" y="240" width="160" height="160" as="geometry" />
        </mxCell>
        <mxCell id="wEtGg_RZ93yMnzrgPgLD-10" value="" style="endArrow=none;html=1;fontFamily=Computer Modern;fontSize=14;fontColor=#4285F4;strokeWidth=2;" parent="wEtGg_RZ93yMnzrgPgLD-1" edge="1">
          <mxGeometry width="50" height="50" relative="1" as="geometry">
            <mxPoint x="480" y="240" as="sourcePoint" />
            <mxPoint x="560" y="160" as="targetPoint" />
          </mxGeometry>
        </mxCell>
        <mxCell id="wEtGg_RZ93yMnzrgPgLD-11" value="" style="endArrow=none;html=1;fontFamily=Computer Modern;fontSize=14;fontColor=#4285F4;strokeWidth=2;" parent="wEtGg_RZ93yMnzrgPgLD-1" edge="1">
          <mxGeometry width="50" height="50" relative="1" as="geometry">
            <mxPoint x="480" y="400" as="sourcePoint" />
            <mxPoint x="560" y="320" as="targetPoint" />
          </mxGeometry>
        </mxCell>
        <mxCell id="wEtGg_RZ93yMnzrgPgLD-12" value="" style="endArrow=none;html=1;fontFamily=Computer Modern;fontSize=14;fontColor=#4285F4;strokeWidth=2;" parent="wEtGg_RZ93yMnzrgPgLD-1" edge="1">
          <mxGeometry width="50" height="50" relative="1" as="geometry">
            <mxPoint x="320" y="240" as="sourcePoint" />
            <mxPoint x="400" y="160" as="targetPoint" />
          </mxGeometry>
        </mxCell>
        <mxCell id="wEtGg_RZ93yMnzrgPgLD-13" value="" style="endArrow=none;html=1;fontFamily=Computer Modern;fontSize=14;fontColor=#4285F4;strokeWidth=2;" parent="wEtGg_RZ93yMnzrgPgLD-1" edge="1">
          <mxGeometry width="50" height="50" relative="1" as="geometry">
            <mxPoint x="560" y="320" as="sourcePoint" />
            <mxPoint x="560" y="160" as="targetPoint" />
          </mxGeometry>
        </mxCell>
        <mxCell id="wEtGg_RZ93yMnzrgPgLD-14" value="" style="endArrow=none;html=1;fontFamily=Computer Modern;fontSize=14;fontColor=#4285F4;strokeWidth=2;" parent="wEtGg_RZ93yMnzrgPgLD-1" edge="1">
          <mxGeometry width="50" height="50" relative="1" as="geometry">
            <mxPoint x="520" y="360" as="sourcePoint" />
            <mxPoint x="520" y="200" as="targetPoint" />
          </mxGeometry>
        </mxCell>
        <mxCell id="wEtGg_RZ93yMnzrgPgLD-15" value="" style="endArrow=none;html=1;fontFamily=Computer Modern;fontSize=14;fontColor=#4285F4;strokeWidth=2;" parent="wEtGg_RZ93yMnzrgPgLD-1" edge="1">
          <mxGeometry width="50" height="50" relative="1" as="geometry">
            <mxPoint x="400" y="240" as="sourcePoint" />
            <mxPoint x="480" y="160" as="targetPoint" />
          </mxGeometry>
        </mxCell>
        <mxCell id="wEtGg_RZ93yMnzrgPgLD-17" value="" style="endArrow=none;html=1;fontFamily=Computer Modern;fontSize=14;fontColor=#4285F4;strokeWidth=2;" parent="wEtGg_RZ93yMnzrgPgLD-1" edge="1">
          <mxGeometry width="50" height="50" relative="1" as="geometry">
            <mxPoint x="480" y="320" as="sourcePoint" />
            <mxPoint x="560" y="240" as="targetPoint" />
          </mxGeometry>
        </mxCell>
        <mxCell id="wEtGg_RZ93yMnzrgPgLD-18" value="" style="endArrow=none;html=1;fontFamily=Computer Modern;fontSize=14;fontColor=#4285F4;strokeWidth=2;" parent="wEtGg_RZ93yMnzrgPgLD-1" edge="1">
          <mxGeometry width="50" height="50" relative="1" as="geometry">
            <mxPoint x="480" y="400" as="sourcePoint" />
            <mxPoint x="480" y="240" as="targetPoint" />
          </mxGeometry>
        </mxCell>
        <mxCell id="wEtGg_RZ93yMnzrgPgLD-19" value="" style="endArrow=none;html=1;fontFamily=Computer Modern;fontSize=14;fontColor=#4285F4;strokeWidth=2;" parent="wEtGg_RZ93yMnzrgPgLD-1" edge="1">
          <mxGeometry width="50" height="50" relative="1" as="geometry">
            <mxPoint x="400" y="400" as="sourcePoint" />
            <mxPoint x="400" y="240" as="targetPoint" />
          </mxGeometry>
        </mxCell>
        <mxCell id="wEtGg_RZ93yMnzrgPgLD-20" value="" style="endArrow=none;html=1;fontFamily=Computer Modern;fontSize=14;fontColor=#4285F4;strokeWidth=2;" parent="wEtGg_RZ93yMnzrgPgLD-1" edge="1">
          <mxGeometry width="50" height="50" relative="1" as="geometry">
            <mxPoint x="320" y="400" as="sourcePoint" />
            <mxPoint x="320" y="240" as="targetPoint" />
          </mxGeometry>
        </mxCell>
        <mxCell id="wEtGg_RZ93yMnzrgPgLD-21" value="" style="endArrow=none;html=1;fontFamily=Computer Modern;fontSize=14;fontColor=#4285F4;strokeWidth=2;" parent="wEtGg_RZ93yMnzrgPgLD-1" edge="1">
          <mxGeometry width="50" height="50" relative="1" as="geometry">
            <mxPoint x="320" y="240" as="sourcePoint" />
            <mxPoint x="480" y="240" as="targetPoint" />
          </mxGeometry>
        </mxCell>
        <mxCell id="wEtGg_RZ93yMnzrgPgLD-22" value="" style="endArrow=none;html=1;fontFamily=Computer Modern;fontSize=14;fontColor=#4285F4;strokeWidth=2;" parent="wEtGg_RZ93yMnzrgPgLD-1" edge="1">
          <mxGeometry width="50" height="50" relative="1" as="geometry">
            <mxPoint x="320" y="400" as="sourcePoint" />
            <mxPoint x="480" y="400" as="targetPoint" />
          </mxGeometry>
        </mxCell>
        <mxCell id="wEtGg_RZ93yMnzrgPgLD-23" value="" style="endArrow=none;html=1;fontFamily=Computer Modern;fontSize=14;fontColor=#4285F4;strokeWidth=2;" parent="wEtGg_RZ93yMnzrgPgLD-1" edge="1">
          <mxGeometry width="50" height="50" relative="1" as="geometry">
            <mxPoint x="320" y="320" as="sourcePoint" />
            <mxPoint x="480" y="320" as="targetPoint" />
          </mxGeometry>
        </mxCell>
        <mxCell id="wEtGg_RZ93yMnzrgPgLD-24" value="" style="endArrow=none;html=1;fontFamily=Computer Modern;fontSize=14;fontColor=#4285F4;strokeWidth=2;" parent="wEtGg_RZ93yMnzrgPgLD-1" edge="1">
          <mxGeometry width="50" height="50" relative="1" as="geometry">
            <mxPoint x="360" y="200" as="sourcePoint" />
            <mxPoint x="520" y="200" as="targetPoint" />
          </mxGeometry>
        </mxCell>
        <mxCell id="wEtGg_RZ93yMnzrgPgLD-53" value="" style="endArrow=none;html=1;strokeWidth=3;fontFamily=Computer Modern;fontSize=14;fontColor=#4285F4;fillColor=#f8cecc;strokeColor=#FBBC05;" parent="wEtGg_RZ93yMnzrgPgLD-1" source="DWawK90ymuiwGeReD8Av-58" edge="1">
          <mxGeometry width="50" height="50" relative="1" as="geometry">
            <mxPoint x="254" y="450" as="sourcePoint" />
            <mxPoint x="440" y="260" as="targetPoint" />
          </mxGeometry>
        </mxCell>
        <mxCell id="wEtGg_RZ93yMnzrgPgLD-51" value="" style="endArrow=none;html=1;strokeWidth=3;fontFamily=Computer Modern;fontSize=14;fontColor=#4285F4;fillColor=#f8cecc;strokeColor=#FBBC05;" parent="wEtGg_RZ93yMnzrgPgLD-1" edge="1">
          <mxGeometry width="50" height="50" relative="1" as="geometry">
            <mxPoint x="544" y="160" as="sourcePoint" />
            <mxPoint x="574" y="130" as="targetPoint" />
          </mxGeometry>
        </mxCell>
        <mxCell id="wEtGg_RZ93yMnzrgPgLD-16" value="" style="endArrow=none;html=1;fontFamily=Computer Modern;fontSize=14;fontColor=#4285F4;strokeWidth=2;" parent="wEtGg_RZ93yMnzrgPgLD-1" edge="1">
          <mxGeometry width="50" height="50" relative="1" as="geometry">
            <mxPoint x="400" y="160" as="sourcePoint" />
            <mxPoint x="560" y="160" as="targetPoint" />
          </mxGeometry>
        </mxCell>
        <mxCell id="DWawK90ymuiwGeReD8Av-11" value="" style="ellipse;whiteSpace=wrap;html=1;aspect=fixed;strokeColor=#FBBC05;strokeWidth=2;fillColor=#FBBC05;fontFamily=Computer Modern;fontSize=14;align=right;" parent="wEtGg_RZ93yMnzrgPgLD-1" vertex="1">
          <mxGeometry x="742" y="264" width="10" height="10" as="geometry" />
        </mxCell>
        <mxCell id="DWawK90ymuiwGeReD8Av-13" value="" style="ellipse;whiteSpace=wrap;html=1;aspect=fixed;strokeColor=#FBBC05;strokeWidth=2;fillColor=#FBBC05;fontFamily=Computer Modern;fontSize=14;align=right;" parent="wEtGg_RZ93yMnzrgPgLD-1" vertex="1">
          <mxGeometry x="786" y="214" width="10" height="10" as="geometry" />
        </mxCell>
        <mxCell id="DWawK90ymuiwGeReD8Av-14" value="" style="ellipse;whiteSpace=wrap;html=1;aspect=fixed;strokeColor=#FBBC05;strokeWidth=2;fillColor=#FBBC05;fontFamily=Computer Modern;fontSize=14;align=right;" parent="wEtGg_RZ93yMnzrgPgLD-1" vertex="1">
          <mxGeometry x="834" y="166" width="10" height="10" as="geometry" />
        </mxCell>
        <mxCell id="DWawK90ymuiwGeReD8Av-34" value="" style="endArrow=none;html=1;fontFamily=Computer Modern;fontSize=14;fontColor=#4285F4;strokeWidth=2;" parent="wEtGg_RZ93yMnzrgPgLD-1" edge="1">
          <mxGeometry width="50" height="50" relative="1" as="geometry">
            <mxPoint x="720" y="400" as="sourcePoint" />
            <mxPoint x="720" y="240.0000000000001" as="targetPoint" />
          </mxGeometry>
        </mxCell>
        <mxCell id="DWawK90ymuiwGeReD8Av-35" value="" style="endArrow=none;html=1;fontFamily=Computer Modern;fontSize=14;fontColor=#4285F4;strokeWidth=2;" parent="wEtGg_RZ93yMnzrgPgLD-1" edge="1">
          <mxGeometry width="50" height="50" relative="1" as="geometry">
            <mxPoint x="640" y="320.0000000000001" as="sourcePoint" />
            <mxPoint x="800" y="320.0000000000001" as="targetPoint" />
          </mxGeometry>
        </mxCell>
        <mxCell id="DWawK90ymuiwGeReD8Av-36" value="" style="endArrow=none;html=1;fontFamily=Computer Modern;fontSize=14;fontColor=#4285F4;strokeWidth=2;" parent="wEtGg_RZ93yMnzrgPgLD-1" edge="1">
          <mxGeometry width="50" height="50" relative="1" as="geometry">
            <mxPoint x="760" y="240" as="sourcePoint" />
            <mxPoint x="760" y="200.0000000000001" as="targetPoint" />
          </mxGeometry>
        </mxCell>
        <mxCell id="DWawK90ymuiwGeReD8Av-37" value="" style="endArrow=none;html=1;fontFamily=Computer Modern;fontSize=14;fontColor=#4285F4;strokeWidth=2;" parent="wEtGg_RZ93yMnzrgPgLD-1" edge="1">
          <mxGeometry width="50" height="50" relative="1" as="geometry">
            <mxPoint x="800" y="280" as="sourcePoint" />
            <mxPoint x="840" y="280.0000000000001" as="targetPoint" />
          </mxGeometry>
        </mxCell>
        <mxCell id="DWawK90ymuiwGeReD8Av-38" value="" style="endArrow=none;html=1;fontFamily=Computer Modern;fontSize=14;fontColor=#4285F4;strokeWidth=2;" parent="wEtGg_RZ93yMnzrgPgLD-1" edge="1">
          <mxGeometry width="50" height="50" relative="1" as="geometry">
            <mxPoint x="800" y="200" as="sourcePoint" />
            <mxPoint x="800" y="160.0000000000001" as="targetPoint" />
          </mxGeometry>
        </mxCell>
        <mxCell id="DWawK90ymuiwGeReD8Av-39" value="" style="endArrow=none;html=1;fontFamily=Computer Modern;fontSize=14;fontColor=#4285F4;strokeWidth=2;" parent="wEtGg_RZ93yMnzrgPgLD-1" edge="1">
          <mxGeometry width="50" height="50" relative="1" as="geometry">
            <mxPoint x="840" y="240" as="sourcePoint" />
            <mxPoint x="880" y="240.0000000000001" as="targetPoint" />
          </mxGeometry>
        </mxCell>
        <mxCell id="DWawK90ymuiwGeReD8Av-40" value="" style="endArrow=none;html=1;fontFamily=Computer Modern;fontSize=14;fontColor=#4285F4;strokeWidth=2;" parent="wEtGg_RZ93yMnzrgPgLD-1" edge="1">
          <mxGeometry width="50" height="50" relative="1" as="geometry">
            <mxPoint x="800" y="240.0000000000001" as="sourcePoint" />
            <mxPoint x="880" y="160" as="targetPoint" />
          </mxGeometry>
        </mxCell>
        <mxCell id="DWawK90ymuiwGeReD8Av-41" value="" style="endArrow=none;html=1;fontFamily=Computer Modern;fontSize=14;fontColor=#4285F4;strokeWidth=2;" parent="wEtGg_RZ93yMnzrgPgLD-1" edge="1">
          <mxGeometry width="50" height="50" relative="1" as="geometry">
            <mxPoint x="800" y="400.0000000000001" as="sourcePoint" />
            <mxPoint x="880" y="320" as="targetPoint" />
          </mxGeometry>
        </mxCell>
        <mxCell id="DWawK90ymuiwGeReD8Av-42" value="" style="endArrow=none;html=1;fontFamily=Computer Modern;fontSize=14;fontColor=#4285F4;strokeWidth=2;" parent="wEtGg_RZ93yMnzrgPgLD-1" edge="1">
          <mxGeometry width="50" height="50" relative="1" as="geometry">
            <mxPoint x="800" y="320.0000000000001" as="sourcePoint" />
            <mxPoint x="880" y="240" as="targetPoint" />
          </mxGeometry>
        </mxCell>
        <mxCell id="DWawK90ymuiwGeReD8Av-43" value="" style="endArrow=none;html=1;fontFamily=Computer Modern;fontSize=14;fontColor=#4285F4;strokeWidth=2;" parent="wEtGg_RZ93yMnzrgPgLD-1" edge="1">
          <mxGeometry width="50" height="50" relative="1" as="geometry">
            <mxPoint x="640" y="240.0000000000001" as="sourcePoint" />
            <mxPoint x="720" y="160" as="targetPoint" />
          </mxGeometry>
        </mxCell>
        <mxCell id="DWawK90ymuiwGeReD8Av-44" value="" style="endArrow=none;html=1;fontFamily=Computer Modern;fontSize=14;fontColor=#4285F4;strokeWidth=2;" parent="wEtGg_RZ93yMnzrgPgLD-1" edge="1">
          <mxGeometry width="50" height="50" relative="1" as="geometry">
            <mxPoint x="720" y="240.0000000000001" as="sourcePoint" />
            <mxPoint x="800" y="160" as="targetPoint" />
          </mxGeometry>
        </mxCell>
        <mxCell id="DWawK90ymuiwGeReD8Av-5" value="" style="endArrow=none;html=1;strokeWidth=3;fontFamily=Computer Modern;fontSize=14;fontColor=#4285F4;fillColor=#f8cecc;strokeColor=#FBBC05;" parent="wEtGg_RZ93yMnzrgPgLD-1" edge="1">
          <mxGeometry width="50" height="50" relative="1" as="geometry">
            <mxPoint x="560" y="460" as="sourcePoint" />
            <mxPoint x="746" y="270" as="targetPoint" />
          </mxGeometry>
        </mxCell>
        <mxCell id="DWawK90ymuiwGeReD8Av-58" value="" style="ellipse;whiteSpace=wrap;html=1;aspect=fixed;strokeColor=#FBBC05;strokeWidth=2;fillColor=#FBBC05;fontFamily=Computer Modern;fontSize=14;align=right;" parent="wEtGg_RZ93yMnzrgPgLD-1" vertex="1">
          <mxGeometry x="435" y="256" width="10" height="10" as="geometry" />
        </mxCell>
        <mxCell id="DWawK90ymuiwGeReD8Av-59" value="" style="endArrow=none;html=1;strokeWidth=3;fontFamily=Computer Modern;fontSize=14;fontColor=#4285F4;fillColor=#f8cecc;strokeColor=#FBBC05;" parent="wEtGg_RZ93yMnzrgPgLD-1" target="DWawK90ymuiwGeReD8Av-58" edge="1">
          <mxGeometry width="50" height="50" relative="1" as="geometry">
            <mxPoint x="254" y="450" as="sourcePoint" />
            <mxPoint x="440" y="260" as="targetPoint" />
          </mxGeometry>
        </mxCell>
        <mxCell id="DWawK90ymuiwGeReD8Av-61" value="" style="group" parent="wEtGg_RZ93yMnzrgPgLD-1" vertex="1" connectable="0">
          <mxGeometry x="910" y="119.99999999999994" width="409.48" height="362.43000000000006" as="geometry" />
        </mxCell>
        <mxCell id="DWawK90ymuiwGeReD8Av-23" value="" style="shape=parallelogram;perimeter=parallelogramPerimeter;whiteSpace=wrap;html=1;strokeColor=#000000;strokeWidth=2;fillColor=#FF9999;fontFamily=Computer Modern;fontSize=14;align=right;size=0.3387163561076615;" parent="DWawK90ymuiwGeReD8Av-61" vertex="1">
          <mxGeometry x="128" y="161.71000000000004" width="118.48" height="39" as="geometry" />
        </mxCell>
        <mxCell id="DWawK90ymuiwGeReD8Av-24" value="" style="shape=parallelogram;perimeter=parallelogramPerimeter;whiteSpace=wrap;html=1;strokeColor=#000000;strokeWidth=2;fillColor=#FF9999;fontFamily=Computer Modern;fontSize=14;align=right;size=0.3387163561076615;" parent="DWawK90ymuiwGeReD8Av-61" vertex="1">
          <mxGeometry x="89" y="122.71000000000004" width="118.48" height="39" as="geometry" />
        </mxCell>
        <mxCell id="DWawK90ymuiwGeReD8Av-25" value="" style="shape=parallelogram;perimeter=parallelogramPerimeter;whiteSpace=wrap;html=1;strokeColor=#000000;strokeWidth=2;fillColor=#FF9999;fontFamily=Computer Modern;fontSize=14;align=right;size=0.3387163561076615;" parent="DWawK90ymuiwGeReD8Av-61" vertex="1">
          <mxGeometry x="168" y="122.71000000000004" width="118.48" height="39" as="geometry" />
        </mxCell>
        <mxCell id="DWawK90ymuiwGeReD8Av-54" value="" style="endArrow=none;html=1;fontFamily=Computer Modern;fontSize=14;fontColor=#4285F4;strokeWidth=2;" parent="DWawK90ymuiwGeReD8Av-61" edge="1">
          <mxGeometry width="50" height="50" relative="1" as="geometry">
            <mxPoint x="89.56999999999994" y="238.71000000000004" as="sourcePoint" />
            <mxPoint x="89" y="83.71000000000004" as="targetPoint" />
          </mxGeometry>
        </mxCell>
        <mxCell id="DWawK90ymuiwGeReD8Av-27" value="" style="shape=parallelogram;perimeter=parallelogramPerimeter;whiteSpace=wrap;html=1;strokeColor=#000000;strokeWidth=2;fillColor=#B85450;fontFamily=Computer Modern;fontSize=14;align=right;size=0.3387163561076615;" parent="DWawK90ymuiwGeReD8Av-61" vertex="1">
          <mxGeometry x="49" y="83.71000000000004" width="118.48" height="39" as="geometry" />
        </mxCell>
        <mxCell id="DWawK90ymuiwGeReD8Av-29" value="" style="shape=parallelogram;perimeter=parallelogramPerimeter;whiteSpace=wrap;html=1;strokeColor=#000000;strokeWidth=2;fillColor=#B85450;fontFamily=Computer Modern;fontSize=14;align=right;size=0.3387163561076615;" parent="DWawK90ymuiwGeReD8Av-61" vertex="1">
          <mxGeometry x="89" y="44.710000000000036" width="118.48" height="39" as="geometry" />
        </mxCell>
        <mxCell id="DWawK90ymuiwGeReD8Av-30" value="" style="shape=parallelogram;perimeter=parallelogramPerimeter;whiteSpace=wrap;html=1;strokeColor=#000000;strokeWidth=2;fillColor=#B85450;fontFamily=Computer Modern;fontSize=14;align=right;size=0.3387163561076615;" parent="DWawK90ymuiwGeReD8Av-61" vertex="1">
          <mxGeometry x="168" y="44.710000000000036" width="118.48" height="39" as="geometry" />
        </mxCell>
        <mxCell id="DWawK90ymuiwGeReD8Av-16" value="" style="shape=parallelogram;perimeter=parallelogramPerimeter;whiteSpace=wrap;html=1;strokeColor=#000000;strokeWidth=2;fillColor=#f8cecc;fontFamily=Computer Modern;fontSize=14;align=right;size=0.3387163561076615;" parent="DWawK90ymuiwGeReD8Av-61" vertex="1">
          <mxGeometry x="49" y="239.71000000000004" width="118.48" height="39" as="geometry" />
        </mxCell>
        <mxCell id="DWawK90ymuiwGeReD8Av-17" value="" style="shape=parallelogram;perimeter=parallelogramPerimeter;whiteSpace=wrap;html=1;strokeColor=#000000;strokeWidth=2;fillColor=#f8cecc;fontFamily=Computer Modern;fontSize=14;align=right;size=0.3387163561076615;" parent="DWawK90ymuiwGeReD8Av-61" vertex="1">
          <mxGeometry x="128" y="239.71000000000004" width="118.48" height="39" as="geometry" />
        </mxCell>
        <mxCell id="DWawK90ymuiwGeReD8Av-18" value="" style="shape=parallelogram;perimeter=parallelogramPerimeter;whiteSpace=wrap;html=1;strokeColor=#000000;strokeWidth=2;fillColor=#f8cecc;fontFamily=Computer Modern;fontSize=14;align=right;size=0.3387163561076615;" parent="DWawK90ymuiwGeReD8Av-61" vertex="1">
          <mxGeometry x="89" y="200.71000000000004" width="118.48" height="39" as="geometry" />
        </mxCell>
        <mxCell id="DWawK90ymuiwGeReD8Av-19" value="" style="shape=parallelogram;perimeter=parallelogramPerimeter;whiteSpace=wrap;html=1;strokeColor=#000000;strokeWidth=2;fillColor=#f8cecc;fontFamily=Computer Modern;fontSize=14;align=right;size=0.3387163561076615;" parent="DWawK90ymuiwGeReD8Av-61" vertex="1">
          <mxGeometry x="168" y="200.71000000000004" width="118.48" height="39" as="geometry" />
        </mxCell>
        <mxCell id="DWawK90ymuiwGeReD8Av-47" value="" style="endArrow=none;html=1;fontFamily=Computer Modern;fontSize=14;fontColor=#4285F4;strokeWidth=2;" parent="DWawK90ymuiwGeReD8Av-61" edge="1">
          <mxGeometry width="50" height="50" relative="1" as="geometry">
            <mxPoint x="47.56999999999999" y="278.71000000000004" as="sourcePoint" />
            <mxPoint x="47" y="123.71000000000004" as="targetPoint" />
          </mxGeometry>
        </mxCell>
        <mxCell id="DWawK90ymuiwGeReD8Av-22" value="" style="shape=parallelogram;perimeter=parallelogramPerimeter;whiteSpace=wrap;html=1;strokeColor=#000000;strokeWidth=2;fillColor=#FF9999;fontFamily=Computer Modern;fontSize=14;align=right;size=0.3387163561076615;" parent="DWawK90ymuiwGeReD8Av-61" vertex="1">
          <mxGeometry x="49" y="161.71000000000004" width="118.48" height="39" as="geometry" />
        </mxCell>
        <mxCell id="DWawK90ymuiwGeReD8Av-51" value="" style="endArrow=none;html=1;fontFamily=Computer Modern;fontSize=14;fontColor=#4285F4;strokeWidth=2;" parent="DWawK90ymuiwGeReD8Av-61" edge="1">
          <mxGeometry width="50" height="50" relative="1" as="geometry">
            <mxPoint x="128" y="277.71000000000004" as="sourcePoint" />
            <mxPoint x="128" y="122.71000000000004" as="targetPoint" />
          </mxGeometry>
        </mxCell>
        <mxCell id="DWawK90ymuiwGeReD8Av-56" value="" style="endArrow=none;html=1;fontFamily=Computer Modern;fontSize=14;fontColor=#4285F4;strokeWidth=2;" parent="DWawK90ymuiwGeReD8Av-61" edge="1">
          <mxGeometry width="50" height="50" relative="1" as="geometry">
            <mxPoint x="168" y="161.71000000000004" as="sourcePoint" />
            <mxPoint x="168" y="83.71000000000004" as="targetPoint" />
          </mxGeometry>
        </mxCell>
        <mxCell id="DWawK90ymuiwGeReD8Av-57" value="" style="endArrow=none;html=1;fontFamily=Computer Modern;fontSize=14;fontColor=#4285F4;strokeWidth=2;" parent="DWawK90ymuiwGeReD8Av-61" edge="1">
          <mxGeometry width="50" height="50" relative="1" as="geometry">
            <mxPoint x="168" y="237.71000000000004" as="sourcePoint" />
            <mxPoint x="168" y="200.71000000000004" as="targetPoint" />
          </mxGeometry>
        </mxCell>
        <mxCell id="DWawK90ymuiwGeReD8Av-28" value="" style="shape=parallelogram;perimeter=parallelogramPerimeter;whiteSpace=wrap;html=1;strokeColor=#000000;strokeWidth=2;fillColor=#B85450;fontFamily=Computer Modern;fontSize=14;align=right;size=0.3387163561076615;" parent="DWawK90ymuiwGeReD8Av-61" vertex="1">
          <mxGeometry x="128" y="83.71000000000004" width="118.48" height="39" as="geometry" />
        </mxCell>
        <mxCell id="DWawK90ymuiwGeReD8Av-60" value="" style="endArrow=none;html=1;strokeWidth=3;fontFamily=Computer Modern;fontSize=14;fontColor=#4285F4;fillColor=#f8cecc;strokeColor=#FBBC05;" parent="DWawK90ymuiwGeReD8Av-61" edge="1">
          <mxGeometry width="50" height="50" relative="1" as="geometry">
            <mxPoint y="362.43000000000006" as="sourcePoint" />
            <mxPoint x="350.02" as="targetPoint" />
          </mxGeometry>
        </mxCell>
        <mxCell id="DWawK90ymuiwGeReD8Av-52" value="" style="endArrow=none;html=1;fontFamily=Computer Modern;fontSize=14;fontColor=#4285F4;strokeWidth=2;" parent="DWawK90ymuiwGeReD8Av-61" edge="1">
          <mxGeometry width="50" height="50" relative="1" as="geometry">
            <mxPoint x="284.6199999999999" y="202.71000000000004" as="sourcePoint" />
            <mxPoint x="284.04999999999995" y="47.710000000000036" as="targetPoint" />
          </mxGeometry>
        </mxCell>
        <mxCell id="DWawK90ymuiwGeReD8Av-48" value="" style="endArrow=none;html=1;fontFamily=Computer Modern;fontSize=14;fontColor=#4285F4;strokeWidth=2;" parent="DWawK90ymuiwGeReD8Av-61" edge="1">
          <mxGeometry width="50" height="50" relative="1" as="geometry">
            <mxPoint x="207" y="276.71000000000004" as="sourcePoint" />
            <mxPoint x="207.48000000000002" y="122.71000000000015" as="targetPoint" />
          </mxGeometry>
        </mxCell>
        <mxCell id="DWawK90ymuiwGeReD8Av-53" value="" style="endArrow=none;html=1;fontFamily=Computer Modern;fontSize=14;fontColor=#4285F4;strokeWidth=2;" parent="DWawK90ymuiwGeReD8Av-61" edge="1">
          <mxGeometry width="50" height="50" relative="1" as="geometry">
            <mxPoint x="247.04999999999995" y="238.71000000000004" as="sourcePoint" />
            <mxPoint x="246.48000000000002" y="83.71000000000004" as="targetPoint" />
          </mxGeometry>
        </mxCell>
        <mxCell id="yj8fQrJnfB6Jm6q0njUs-0" value="" style="whiteSpace=wrap;html=1;aspect=fixed;strokeWidth=2;fontFamily=Computer Modern;fontSize=14;align=right;" vertex="1" parent="wEtGg_RZ93yMnzrgPgLD-1">
          <mxGeometry x="316" y="760" width="160" height="160" as="geometry" />
        </mxCell>
        <mxCell id="yj8fQrJnfB6Jm6q0njUs-1" value="" style="endArrow=none;html=1;fontFamily=Computer Modern;fontSize=14;fontColor=#4285F4;strokeWidth=2;" edge="1" parent="wEtGg_RZ93yMnzrgPgLD-1">
          <mxGeometry width="50" height="50" relative="1" as="geometry">
            <mxPoint x="476" y="760" as="sourcePoint" />
            <mxPoint x="556" y="680" as="targetPoint" />
          </mxGeometry>
        </mxCell>
        <mxCell id="yj8fQrJnfB6Jm6q0njUs-2" value="" style="endArrow=none;html=1;fontFamily=Computer Modern;fontSize=14;fontColor=#4285F4;strokeWidth=2;" edge="1" parent="wEtGg_RZ93yMnzrgPgLD-1">
          <mxGeometry width="50" height="50" relative="1" as="geometry">
            <mxPoint x="476" y="920" as="sourcePoint" />
            <mxPoint x="556" y="840" as="targetPoint" />
          </mxGeometry>
        </mxCell>
        <mxCell id="yj8fQrJnfB6Jm6q0njUs-3" value="" style="endArrow=none;html=1;fontFamily=Computer Modern;fontSize=14;fontColor=#4285F4;strokeWidth=2;" edge="1" parent="wEtGg_RZ93yMnzrgPgLD-1">
          <mxGeometry width="50" height="50" relative="1" as="geometry">
            <mxPoint x="316" y="760" as="sourcePoint" />
            <mxPoint x="396" y="680" as="targetPoint" />
          </mxGeometry>
        </mxCell>
        <mxCell id="yj8fQrJnfB6Jm6q0njUs-4" value="" style="endArrow=none;html=1;fontFamily=Computer Modern;fontSize=14;fontColor=#4285F4;strokeWidth=2;" edge="1" parent="wEtGg_RZ93yMnzrgPgLD-1">
          <mxGeometry width="50" height="50" relative="1" as="geometry">
            <mxPoint x="556" y="840" as="sourcePoint" />
            <mxPoint x="556" y="680" as="targetPoint" />
          </mxGeometry>
        </mxCell>
        <mxCell id="yj8fQrJnfB6Jm6q0njUs-5" value="" style="endArrow=none;html=1;fontFamily=Computer Modern;fontSize=14;fontColor=#4285F4;strokeWidth=2;" edge="1" parent="wEtGg_RZ93yMnzrgPgLD-1">
          <mxGeometry width="50" height="50" relative="1" as="geometry">
            <mxPoint x="516" y="880" as="sourcePoint" />
            <mxPoint x="516" y="720" as="targetPoint" />
          </mxGeometry>
        </mxCell>
        <mxCell id="yj8fQrJnfB6Jm6q0njUs-6" value="" style="endArrow=none;html=1;fontFamily=Computer Modern;fontSize=14;fontColor=#4285F4;strokeWidth=2;" edge="1" parent="wEtGg_RZ93yMnzrgPgLD-1">
          <mxGeometry width="50" height="50" relative="1" as="geometry">
            <mxPoint x="396" y="760" as="sourcePoint" />
            <mxPoint x="476" y="680" as="targetPoint" />
          </mxGeometry>
        </mxCell>
        <mxCell id="yj8fQrJnfB6Jm6q0njUs-7" value="" style="endArrow=none;html=1;fontFamily=Computer Modern;fontSize=14;fontColor=#4285F4;strokeWidth=2;" edge="1" parent="wEtGg_RZ93yMnzrgPgLD-1">
          <mxGeometry width="50" height="50" relative="1" as="geometry">
            <mxPoint x="476" y="840" as="sourcePoint" />
            <mxPoint x="556" y="760" as="targetPoint" />
          </mxGeometry>
        </mxCell>
        <mxCell id="yj8fQrJnfB6Jm6q0njUs-8" value="" style="endArrow=none;html=1;fontFamily=Computer Modern;fontSize=14;fontColor=#4285F4;strokeWidth=2;" edge="1" parent="wEtGg_RZ93yMnzrgPgLD-1">
          <mxGeometry width="50" height="50" relative="1" as="geometry">
            <mxPoint x="476" y="920" as="sourcePoint" />
            <mxPoint x="476" y="760" as="targetPoint" />
          </mxGeometry>
        </mxCell>
        <mxCell id="yj8fQrJnfB6Jm6q0njUs-9" value="" style="endArrow=none;html=1;fontFamily=Computer Modern;fontSize=14;fontColor=#4285F4;strokeWidth=2;" edge="1" parent="wEtGg_RZ93yMnzrgPgLD-1">
          <mxGeometry width="50" height="50" relative="1" as="geometry">
            <mxPoint x="396" y="920" as="sourcePoint" />
            <mxPoint x="396" y="760" as="targetPoint" />
          </mxGeometry>
        </mxCell>
        <mxCell id="yj8fQrJnfB6Jm6q0njUs-10" value="" style="endArrow=none;html=1;fontFamily=Computer Modern;fontSize=14;fontColor=#4285F4;strokeWidth=2;" edge="1" parent="wEtGg_RZ93yMnzrgPgLD-1">
          <mxGeometry width="50" height="50" relative="1" as="geometry">
            <mxPoint x="316" y="920" as="sourcePoint" />
            <mxPoint x="316" y="760" as="targetPoint" />
          </mxGeometry>
        </mxCell>
        <mxCell id="yj8fQrJnfB6Jm6q0njUs-11" value="" style="endArrow=none;html=1;fontFamily=Computer Modern;fontSize=14;fontColor=#4285F4;strokeWidth=2;" edge="1" parent="wEtGg_RZ93yMnzrgPgLD-1">
          <mxGeometry width="50" height="50" relative="1" as="geometry">
            <mxPoint x="316" y="760" as="sourcePoint" />
            <mxPoint x="476" y="760" as="targetPoint" />
          </mxGeometry>
        </mxCell>
        <mxCell id="yj8fQrJnfB6Jm6q0njUs-12" value="" style="endArrow=none;html=1;fontFamily=Computer Modern;fontSize=14;fontColor=#4285F4;strokeWidth=2;" edge="1" parent="wEtGg_RZ93yMnzrgPgLD-1">
          <mxGeometry width="50" height="50" relative="1" as="geometry">
            <mxPoint x="316" y="920" as="sourcePoint" />
            <mxPoint x="476" y="920" as="targetPoint" />
          </mxGeometry>
        </mxCell>
        <mxCell id="yj8fQrJnfB6Jm6q0njUs-13" value="" style="endArrow=none;html=1;fontFamily=Computer Modern;fontSize=14;fontColor=#4285F4;strokeWidth=2;" edge="1" parent="wEtGg_RZ93yMnzrgPgLD-1">
          <mxGeometry width="50" height="50" relative="1" as="geometry">
            <mxPoint x="316" y="840" as="sourcePoint" />
            <mxPoint x="476" y="840" as="targetPoint" />
          </mxGeometry>
        </mxCell>
        <mxCell id="yj8fQrJnfB6Jm6q0njUs-14" value="" style="endArrow=none;html=1;fontFamily=Computer Modern;fontSize=14;fontColor=#4285F4;strokeWidth=2;" edge="1" parent="wEtGg_RZ93yMnzrgPgLD-1">
          <mxGeometry width="50" height="50" relative="1" as="geometry">
            <mxPoint x="356" y="720" as="sourcePoint" />
            <mxPoint x="516" y="720" as="targetPoint" />
          </mxGeometry>
        </mxCell>
        <mxCell id="yj8fQrJnfB6Jm6q0njUs-17" value="" style="endArrow=none;html=1;fontFamily=Computer Modern;fontSize=14;fontColor=#4285F4;strokeWidth=2;" edge="1" parent="wEtGg_RZ93yMnzrgPgLD-1">
          <mxGeometry width="50" height="50" relative="1" as="geometry">
            <mxPoint x="396" y="680" as="sourcePoint" />
            <mxPoint x="556" y="680" as="targetPoint" />
          </mxGeometry>
        </mxCell>
        <mxCell id="yj8fQrJnfB6Jm6q0njUs-30" value="" style="whiteSpace=wrap;html=1;aspect=fixed;strokeColor=#000000;strokeWidth=2;fillColor=#99CCFF;fontFamily=Computer Modern;fontSize=14;align=right;" vertex="1" parent="wEtGg_RZ93yMnzrgPgLD-1">
          <mxGeometry x="719" y="720" width="160" height="160" as="geometry" />
        </mxCell>
        <mxCell id="yj8fQrJnfB6Jm6q0njUs-38" value="" style="endArrow=none;html=1;fontFamily=Computer Modern;fontSize=14;fontColor=#4285F4;strokeWidth=2;" edge="1" parent="wEtGg_RZ93yMnzrgPgLD-1">
          <mxGeometry width="50" height="50" relative="1" as="geometry">
            <mxPoint x="799" y="760" as="sourcePoint" />
            <mxPoint x="799" y="720.0000000000001" as="targetPoint" />
          </mxGeometry>
        </mxCell>
        <mxCell id="yj8fQrJnfB6Jm6q0njUs-39" value="" style="endArrow=none;html=1;fontFamily=Computer Modern;fontSize=14;fontColor=#4285F4;strokeWidth=2;" edge="1" parent="wEtGg_RZ93yMnzrgPgLD-1">
          <mxGeometry width="50" height="50" relative="1" as="geometry">
            <mxPoint x="839" y="800" as="sourcePoint" />
            <mxPoint x="879" y="800.0000000000001" as="targetPoint" />
          </mxGeometry>
        </mxCell>
        <mxCell id="yj8fQrJnfB6Jm6q0njUs-40" value="" style="endArrow=none;html=1;fontFamily=Computer Modern;fontSize=14;fontColor=#4285F4;strokeWidth=2;" edge="1" parent="wEtGg_RZ93yMnzrgPgLD-1">
          <mxGeometry width="50" height="50" relative="1" as="geometry">
            <mxPoint x="839" y="720" as="sourcePoint" />
            <mxPoint x="839" y="680.0000000000001" as="targetPoint" />
          </mxGeometry>
        </mxCell>
        <mxCell id="yj8fQrJnfB6Jm6q0njUs-42" value="" style="endArrow=none;html=1;fontFamily=Computer Modern;fontSize=14;fontColor=#4285F4;strokeWidth=2;" edge="1" parent="wEtGg_RZ93yMnzrgPgLD-1">
          <mxGeometry width="50" height="50" relative="1" as="geometry">
            <mxPoint x="839" y="760.0000000000001" as="sourcePoint" />
            <mxPoint x="919" y="680" as="targetPoint" />
          </mxGeometry>
        </mxCell>
        <mxCell id="yj8fQrJnfB6Jm6q0njUs-43" value="" style="endArrow=none;html=1;fontFamily=Computer Modern;fontSize=14;fontColor=#4285F4;strokeWidth=2;" edge="1" parent="wEtGg_RZ93yMnzrgPgLD-1">
          <mxGeometry width="50" height="50" relative="1" as="geometry">
            <mxPoint x="839" y="920.0000000000001" as="sourcePoint" />
            <mxPoint x="919" y="840" as="targetPoint" />
          </mxGeometry>
        </mxCell>
        <mxCell id="yj8fQrJnfB6Jm6q0njUs-44" value="" style="endArrow=none;html=1;fontFamily=Computer Modern;fontSize=14;fontColor=#4285F4;strokeWidth=2;" edge="1" parent="wEtGg_RZ93yMnzrgPgLD-1">
          <mxGeometry width="50" height="50" relative="1" as="geometry">
            <mxPoint x="839" y="840.0000000000001" as="sourcePoint" />
            <mxPoint x="919" y="760" as="targetPoint" />
          </mxGeometry>
        </mxCell>
        <mxCell id="yj8fQrJnfB6Jm6q0njUs-45" value="" style="endArrow=none;html=1;fontFamily=Computer Modern;fontSize=14;fontColor=#4285F4;strokeWidth=2;" edge="1" parent="wEtGg_RZ93yMnzrgPgLD-1">
          <mxGeometry width="50" height="50" relative="1" as="geometry">
            <mxPoint x="679" y="760.0000000000001" as="sourcePoint" />
            <mxPoint x="759" y="680" as="targetPoint" />
          </mxGeometry>
        </mxCell>
        <mxCell id="yj8fQrJnfB6Jm6q0njUs-46" value="" style="endArrow=none;html=1;fontFamily=Computer Modern;fontSize=14;fontColor=#4285F4;strokeWidth=2;" edge="1" parent="wEtGg_RZ93yMnzrgPgLD-1">
          <mxGeometry width="50" height="50" relative="1" as="geometry">
            <mxPoint x="759" y="760.0000000000001" as="sourcePoint" />
            <mxPoint x="839" y="680" as="targetPoint" />
          </mxGeometry>
        </mxCell>
        <mxCell id="yj8fQrJnfB6Jm6q0njUs-52" value="" style="ellipse;whiteSpace=wrap;html=1;aspect=fixed;strokeColor=#FBBC05;strokeWidth=2;fillColor=#FBBC05;fontFamily=Computer Modern;fontSize=14;align=right;" vertex="1" parent="wEtGg_RZ93yMnzrgPgLD-1">
          <mxGeometry x="685" y="870" width="10" height="10" as="geometry" />
        </mxCell>
        <mxCell id="yj8fQrJnfB6Jm6q0njUs-61" value="" style="whiteSpace=wrap;html=1;aspect=fixed;strokeColor=#000000;fillColor=#EA4335;fontFamily=Computer Modern;fontSize=35;fontColor=#EA4335;align=left;opacity=70;" vertex="1" parent="wEtGg_RZ93yMnzrgPgLD-1">
          <mxGeometry x="799" y="720" width="80" height="80" as="geometry" />
        </mxCell>
        <mxCell id="yj8fQrJnfB6Jm6q0njUs-56" value="" style="endArrow=none;html=1;strokeWidth=3;fontFamily=Computer Modern;fontSize=14;fontColor=#4285F4;fillColor=#f8cecc;strokeColor=#FBBC05;exitX=0.981;exitY=0.244;exitDx=0;exitDy=0;exitPerimeter=0;" edge="1" parent="wEtGg_RZ93yMnzrgPgLD-1" source="yj8fQrJnfB6Jm6q0njUs-32">
          <mxGeometry width="50" height="50" relative="1" as="geometry">
            <mxPoint x="840" y="797" as="sourcePoint" />
            <mxPoint x="861" y="786" as="targetPoint" />
          </mxGeometry>
        </mxCell>
        <mxCell id="yj8fQrJnfB6Jm6q0njUs-57" value="" style="ellipse;whiteSpace=wrap;html=1;aspect=fixed;strokeColor=#FBBC05;strokeWidth=2;fillColor=#FBBC05;fontFamily=Computer Modern;fontSize=14;align=right;" vertex="1" parent="wEtGg_RZ93yMnzrgPgLD-1">
          <mxGeometry x="857" y="781" width="10" height="10" as="geometry" />
        </mxCell>
        <mxCell id="yj8fQrJnfB6Jm6q0njUs-32" value="" style="whiteSpace=wrap;html=1;aspect=fixed;strokeColor=#000000;strokeWidth=2;fillColor=#66B2FF;fontFamily=Computer Modern;fontSize=14;align=right;" vertex="1" parent="wEtGg_RZ93yMnzrgPgLD-1">
          <mxGeometry x="679" y="760" width="160" height="160" as="geometry" />
        </mxCell>
        <mxCell id="yj8fQrJnfB6Jm6q0njUs-36" value="" style="endArrow=none;html=1;fontFamily=Computer Modern;fontSize=14;fontColor=#4285F4;strokeWidth=2;" edge="1" parent="wEtGg_RZ93yMnzrgPgLD-1">
          <mxGeometry width="50" height="50" relative="1" as="geometry">
            <mxPoint x="759" y="920" as="sourcePoint" />
            <mxPoint x="759" y="760.0000000000001" as="targetPoint" />
          </mxGeometry>
        </mxCell>
        <mxCell id="yj8fQrJnfB6Jm6q0njUs-37" value="" style="endArrow=none;html=1;fontFamily=Computer Modern;fontSize=14;fontColor=#4285F4;strokeWidth=2;" edge="1" parent="wEtGg_RZ93yMnzrgPgLD-1">
          <mxGeometry width="50" height="50" relative="1" as="geometry">
            <mxPoint x="679" y="840.0000000000001" as="sourcePoint" />
            <mxPoint x="839" y="840.0000000000001" as="targetPoint" />
          </mxGeometry>
        </mxCell>
        <mxCell id="yj8fQrJnfB6Jm6q0njUs-60" value="" style="whiteSpace=wrap;html=1;aspect=fixed;strokeColor=#000000;fillColor=#EA4335;fontFamily=Computer Modern;fontSize=35;fontColor=#EA4335;align=left;opacity=70;" vertex="1" parent="wEtGg_RZ93yMnzrgPgLD-1">
          <mxGeometry x="679" y="840" width="80" height="80" as="geometry" />
        </mxCell>
        <mxCell id="yj8fQrJnfB6Jm6q0njUs-53" value="" style="endArrow=none;html=1;strokeWidth=3;fontFamily=Computer Modern;fontSize=14;fontColor=#4285F4;fillColor=#f8cecc;strokeColor=#FBBC05;" edge="1" parent="wEtGg_RZ93yMnzrgPgLD-1">
          <mxGeometry width="50" height="50" relative="1" as="geometry">
            <mxPoint x="640" y="900" as="sourcePoint" />
            <mxPoint x="692" y="874" as="targetPoint" />
          </mxGeometry>
        </mxCell>
        <mxCell id="yj8fQrJnfB6Jm6q0njUs-58" value="" style="ellipse;whiteSpace=wrap;html=1;aspect=fixed;strokeColor=#FBBC05;strokeWidth=2;fillColor=#FBBC05;fontFamily=Computer Modern;fontSize=14;align=right;" vertex="1" parent="wEtGg_RZ93yMnzrgPgLD-1">
          <mxGeometry x="687" y="870" width="10" height="10" as="geometry" />
        </mxCell>
        <mxCell id="yj8fQrJnfB6Jm6q0njUs-146" value="" style="whiteSpace=wrap;html=1;aspect=fixed;strokeColor=#000000;fillColor=#EA4335;fontFamily=Computer Modern;fontSize=35;fontColor=#EA4335;align=left;opacity=70;" vertex="1" parent="wEtGg_RZ93yMnzrgPgLD-1">
          <mxGeometry x="316" y="840" width="80" height="80" as="geometry" />
        </mxCell>
        <mxCell id="yj8fQrJnfB6Jm6q0njUs-18" value="" style="ellipse;whiteSpace=wrap;html=1;aspect=fixed;strokeColor=#FBBC05;strokeWidth=2;fillColor=#FBBC05;fontFamily=Computer Modern;fontSize=14;align=right;" vertex="1" parent="wEtGg_RZ93yMnzrgPgLD-1">
          <mxGeometry x="326" y="870" width="10" height="10" as="geometry" />
        </mxCell>
        <mxCell id="yj8fQrJnfB6Jm6q0njUs-21" value="" style="endArrow=none;html=1;strokeWidth=3;fontFamily=Computer Modern;fontSize=14;fontColor=#4285F4;fillColor=#f8cecc;strokeColor=#FBBC05;" edge="1" parent="wEtGg_RZ93yMnzrgPgLD-1">
          <mxGeometry width="50" height="50" relative="1" as="geometry">
            <mxPoint x="280" y="903" as="sourcePoint" />
            <mxPoint x="333" y="874" as="targetPoint" />
          </mxGeometry>
        </mxCell>
        <mxCell id="yj8fQrJnfB6Jm6q0njUs-147" value="" style="whiteSpace=wrap;html=1;aspect=fixed;strokeColor=#000000;fillColor=#EA4335;fontFamily=Computer Modern;fontSize=35;fontColor=#EA4335;align=left;opacity=70;" vertex="1" parent="wEtGg_RZ93yMnzrgPgLD-1">
          <mxGeometry x="396" y="840" width="80" height="80" as="geometry" />
        </mxCell>
        <mxCell id="yj8fQrJnfB6Jm6q0njUs-148" value="" style="whiteSpace=wrap;html=1;aspect=fixed;strokeColor=#000000;fillColor=#EA4335;fontFamily=Computer Modern;fontSize=35;fontColor=#EA4335;align=left;opacity=70;" vertex="1" parent="wEtGg_RZ93yMnzrgPgLD-1">
          <mxGeometry x="396" y="760" width="80" height="80" as="geometry" />
        </mxCell>
        <mxCell id="yj8fQrJnfB6Jm6q0njUs-149" value="" style="whiteSpace=wrap;html=1;aspect=fixed;strokeColor=#000000;fillColor=#EA4335;fontFamily=Computer Modern;fontSize=35;fontColor=#EA4335;align=left;opacity=70;" vertex="1" parent="wEtGg_RZ93yMnzrgPgLD-1">
          <mxGeometry x="316" y="760" width="80" height="80" as="geometry" />
        </mxCell>
        <mxCell id="yj8fQrJnfB6Jm6q0njUs-150" value="" style="shape=parallelogram;perimeter=parallelogramPerimeter;whiteSpace=wrap;html=1;strokeColor=#000000;strokeWidth=2;fillColor=#EA4335;fontFamily=Computer Modern;fontSize=14;align=right;size=0.3387163561076615;opacity=70;" vertex="1" parent="wEtGg_RZ93yMnzrgPgLD-1">
          <mxGeometry x="397" y="720" width="118.48" height="39" as="geometry" />
        </mxCell>
        <mxCell id="yj8fQrJnfB6Jm6q0njUs-153" value="" style="shape=parallelogram;perimeter=parallelogramPerimeter;whiteSpace=wrap;html=1;strokeColor=#000000;fillColor=#EA4335;fontFamily=Computer Modern;fontSize=35;fontColor=#EA4335;align=left;size=0.5016750843898055;rotation=-225;strokeWidth=2;opacity=70;" vertex="1" parent="wEtGg_RZ93yMnzrgPgLD-1">
          <mxGeometry x="441" y="753" width="110" height="55.06" as="geometry" />
        </mxCell>
        <mxCell id="yj8fQrJnfB6Jm6q0njUs-154" value="" style="shape=parallelogram;perimeter=parallelogramPerimeter;whiteSpace=wrap;html=1;strokeColor=#000000;fillColor=#EA4335;fontFamily=Computer Modern;fontSize=35;fontColor=#EA4335;align=left;size=0.5016750843898055;rotation=-225;strokeWidth=2;opacity=70;" vertex="1" parent="wEtGg_RZ93yMnzrgPgLD-1">
          <mxGeometry x="442" y="832" width="110" height="55.06" as="geometry" />
        </mxCell>
        <mxCell id="yj8fQrJnfB6Jm6q0njUs-155" value="" style="shape=parallelogram;perimeter=parallelogramPerimeter;whiteSpace=wrap;html=1;strokeColor=#000000;fillColor=#EA4335;fontFamily=Computer Modern;fontSize=35;fontColor=#EA4335;align=left;size=0.5016750843898055;rotation=-225;strokeWidth=2;opacity=70;" vertex="1" parent="wEtGg_RZ93yMnzrgPgLD-1">
          <mxGeometry x="480" y="712.94" width="110" height="55.06" as="geometry" />
        </mxCell>
        <mxCell id="yj8fQrJnfB6Jm6q0njUs-24" value="" style="endArrow=none;html=1;strokeWidth=3;fontFamily=Computer Modern;fontSize=14;fontColor=#4285F4;fillColor=#f8cecc;strokeColor=#FBBC05;" edge="1" parent="wEtGg_RZ93yMnzrgPgLD-1">
          <mxGeometry width="50" height="50" relative="1" as="geometry">
            <mxPoint x="530" y="773" as="sourcePoint" />
            <mxPoint x="600" y="736" as="targetPoint" />
          </mxGeometry>
        </mxCell>
        <mxCell id="yj8fQrJnfB6Jm6q0njUs-158" value="" style="shape=parallelogram;perimeter=parallelogramPerimeter;whiteSpace=wrap;html=1;strokeColor=#000000;strokeWidth=2;fillColor=#EA4335;fontFamily=Computer Modern;fontSize=14;align=right;size=0.3387163561076615;opacity=70;" vertex="1" parent="wEtGg_RZ93yMnzrgPgLD-1">
          <mxGeometry x="437" y="680" width="118.48" height="39" as="geometry" />
        </mxCell>
        <mxCell id="yj8fQrJnfB6Jm6q0njUs-159" value="" style="shape=parallelogram;perimeter=parallelogramPerimeter;whiteSpace=wrap;html=1;strokeColor=#000000;strokeWidth=2;fillColor=#EA4335;fontFamily=Computer Modern;fontSize=14;align=right;size=0.3387163561076615;opacity=70;" vertex="1" parent="wEtGg_RZ93yMnzrgPgLD-1">
          <mxGeometry x="317" y="721" width="118.48" height="39" as="geometry" />
        </mxCell>
        <mxCell id="yj8fQrJnfB6Jm6q0njUs-26" value="" style="ellipse;whiteSpace=wrap;html=1;aspect=fixed;strokeColor=#FBBC05;strokeWidth=2;fillColor=#FBBC05;fontFamily=Computer Modern;fontSize=14;align=right;" vertex="1" parent="wEtGg_RZ93yMnzrgPgLD-1">
          <mxGeometry x="526" y="767" width="10" height="10" as="geometry" />
        </mxCell>
        <mxCell id="yj8fQrJnfB6Jm6q0njUs-62" value="" style="shape=parallelogram;perimeter=parallelogramPerimeter;whiteSpace=wrap;html=1;strokeColor=#000000;strokeWidth=2;fillColor=#99CCFF;fontFamily=Computer Modern;fontSize=14;align=right;size=0.3387163561076615;" vertex="1" parent="wEtGg_RZ93yMnzrgPgLD-1">
          <mxGeometry x="399" y="1118" width="118.48" height="39" as="geometry" />
        </mxCell>
        <mxCell id="yj8fQrJnfB6Jm6q0njUs-63" value="" style="shape=parallelogram;perimeter=parallelogramPerimeter;whiteSpace=wrap;html=1;strokeColor=#000000;strokeWidth=2;fillColor=#99CCFF;fontFamily=Computer Modern;fontSize=14;align=right;size=0.3387163561076615;" vertex="1" parent="wEtGg_RZ93yMnzrgPgLD-1">
          <mxGeometry x="360" y="1079" width="118.48" height="39" as="geometry" />
        </mxCell>
        <mxCell id="yj8fQrJnfB6Jm6q0njUs-65" value="" style="endArrow=none;html=1;fontFamily=Computer Modern;fontSize=14;fontColor=#4285F4;strokeWidth=2;" edge="1" parent="wEtGg_RZ93yMnzrgPgLD-1">
          <mxGeometry width="50" height="50" relative="1" as="geometry">
            <mxPoint x="360.5699999999997" y="1195" as="sourcePoint" />
            <mxPoint x="360" y="1040" as="targetPoint" />
          </mxGeometry>
        </mxCell>
        <mxCell id="yj8fQrJnfB6Jm6q0njUs-66" value="" style="shape=parallelogram;perimeter=parallelogramPerimeter;whiteSpace=wrap;html=1;strokeColor=#000000;strokeWidth=2;fillColor=#66B2FF;fontFamily=Computer Modern;fontSize=14;align=right;size=0.3387163561076615;" vertex="1" parent="wEtGg_RZ93yMnzrgPgLD-1">
          <mxGeometry x="320" y="1040" width="118.48" height="39" as="geometry" />
        </mxCell>
        <mxCell id="yj8fQrJnfB6Jm6q0njUs-67" value="" style="shape=parallelogram;perimeter=parallelogramPerimeter;whiteSpace=wrap;html=1;strokeColor=#000000;strokeWidth=2;fillColor=#66B2FF;fontFamily=Computer Modern;fontSize=14;align=right;size=0.3387163561076615;" vertex="1" parent="wEtGg_RZ93yMnzrgPgLD-1">
          <mxGeometry x="360" y="1001" width="118.48" height="39" as="geometry" />
        </mxCell>
        <mxCell id="yj8fQrJnfB6Jm6q0njUs-69" value="" style="shape=parallelogram;perimeter=parallelogramPerimeter;whiteSpace=wrap;html=1;strokeColor=#000000;strokeWidth=2;fillColor=#DAE8FC;fontFamily=Computer Modern;fontSize=14;align=right;size=0.3387163561076615;" vertex="1" parent="wEtGg_RZ93yMnzrgPgLD-1">
          <mxGeometry x="320" y="1196" width="118.48" height="39" as="geometry" />
        </mxCell>
        <mxCell id="yj8fQrJnfB6Jm6q0njUs-70" value="" style="shape=parallelogram;perimeter=parallelogramPerimeter;whiteSpace=wrap;html=1;strokeColor=#000000;strokeWidth=2;fillColor=#DAE8FC;fontFamily=Computer Modern;fontSize=14;align=right;size=0.3387163561076615;" vertex="1" parent="wEtGg_RZ93yMnzrgPgLD-1">
          <mxGeometry x="399" y="1196" width="118.48" height="39" as="geometry" />
        </mxCell>
        <mxCell id="yj8fQrJnfB6Jm6q0njUs-71" value="" style="shape=parallelogram;perimeter=parallelogramPerimeter;whiteSpace=wrap;html=1;strokeColor=#000000;strokeWidth=2;fillColor=#DAE8FC;fontFamily=Computer Modern;fontSize=14;align=right;size=0.3387163561076615;" vertex="1" parent="wEtGg_RZ93yMnzrgPgLD-1">
          <mxGeometry x="360" y="1157" width="118.48" height="39" as="geometry" />
        </mxCell>
        <mxCell id="yj8fQrJnfB6Jm6q0njUs-73" value="" style="endArrow=none;html=1;fontFamily=Computer Modern;fontSize=14;fontColor=#4285F4;strokeWidth=2;" edge="1" parent="wEtGg_RZ93yMnzrgPgLD-1">
          <mxGeometry width="50" height="50" relative="1" as="geometry">
            <mxPoint x="318.5699999999997" y="1235" as="sourcePoint" />
            <mxPoint x="318" y="1080" as="targetPoint" />
          </mxGeometry>
        </mxCell>
        <mxCell id="yj8fQrJnfB6Jm6q0njUs-78" value="" style="shape=parallelogram;perimeter=parallelogramPerimeter;whiteSpace=wrap;html=1;strokeColor=#000000;strokeWidth=2;fillColor=#66B2FF;fontFamily=Computer Modern;fontSize=14;align=right;size=0.3387163561076615;" vertex="1" parent="wEtGg_RZ93yMnzrgPgLD-1">
          <mxGeometry x="399" y="1040" width="118.48" height="39" as="geometry" />
        </mxCell>
        <mxCell id="yj8fQrJnfB6Jm6q0njUs-85" value="" style="endArrow=none;html=1;strokeWidth=3;fontFamily=Computer Modern;fontSize=14;fontColor=#4285F4;fillColor=#f8cecc;strokeColor=#FBBC05;" edge="1" parent="wEtGg_RZ93yMnzrgPgLD-1">
          <mxGeometry width="50" height="50" relative="1" as="geometry">
            <mxPoint x="279" y="1215" as="sourcePoint" />
            <mxPoint x="400" y="1154" as="targetPoint" />
          </mxGeometry>
        </mxCell>
        <mxCell id="yj8fQrJnfB6Jm6q0njUs-74" value="" style="shape=parallelogram;perimeter=parallelogramPerimeter;whiteSpace=wrap;html=1;strokeColor=#000000;strokeWidth=2;fillColor=#99CCFF;fontFamily=Computer Modern;fontSize=14;align=right;size=0.3387163561076615;" vertex="1" parent="wEtGg_RZ93yMnzrgPgLD-1">
          <mxGeometry x="320" y="1118" width="118.48" height="39" as="geometry" />
        </mxCell>
        <mxCell id="yj8fQrJnfB6Jm6q0njUs-75" value="" style="endArrow=none;html=1;fontFamily=Computer Modern;fontSize=14;fontColor=#4285F4;strokeWidth=2;" edge="1" parent="wEtGg_RZ93yMnzrgPgLD-1">
          <mxGeometry width="50" height="50" relative="1" as="geometry">
            <mxPoint x="399" y="1234" as="sourcePoint" />
            <mxPoint x="399" y="1079" as="targetPoint" />
          </mxGeometry>
        </mxCell>
        <mxCell id="yj8fQrJnfB6Jm6q0njUs-88" value="" style="shape=parallelogram;perimeter=parallelogramPerimeter;whiteSpace=wrap;html=1;strokeColor=#000000;strokeWidth=2;fillColor=#EA4335;fontFamily=Computer Modern;fontSize=14;align=right;size=0.3387163561076615;opacity=70;" vertex="1" parent="wEtGg_RZ93yMnzrgPgLD-1">
          <mxGeometry x="399" y="1118" width="118.48" height="39" as="geometry" />
        </mxCell>
        <mxCell id="yj8fQrJnfB6Jm6q0njUs-118" value="" style="endArrow=none;html=1;labelBackgroundColor=none;strokeColor=#000000;strokeWidth=2;fillColor=#FBBC05;fontFamily=Computer Modern;fontSize=35;fontColor=#EA4335;rounded=0;" edge="1" parent="wEtGg_RZ93yMnzrgPgLD-1">
          <mxGeometry width="50" height="50" relative="1" as="geometry">
            <mxPoint x="720" y="1195" as="sourcePoint" />
            <mxPoint x="720" y="1035" as="targetPoint" />
          </mxGeometry>
        </mxCell>
        <mxCell id="yj8fQrJnfB6Jm6q0njUs-134" value="" style="shape=parallelogram;perimeter=parallelogramPerimeter;whiteSpace=wrap;html=1;strokeColor=#000000;fillColor=#DAE8FC;fontFamily=Computer Modern;fontSize=35;fontColor=#EA4335;align=left;size=0.5016750843898055;rotation=-225;strokeWidth=2;" vertex="1" parent="wEtGg_RZ93yMnzrgPgLD-1">
          <mxGeometry x="685.6400000000001" y="1107.24" width="110" height="55.06" as="geometry" />
        </mxCell>
        <mxCell id="yj8fQrJnfB6Jm6q0njUs-91" value="" style="endArrow=none;html=1;labelBackgroundColor=none;strokeColor=#000000;strokeWidth=2;fillColor=#FBBC05;fontFamily=Computer Modern;fontSize=35;fontColor=#EA4335;rounded=0;" edge="1" parent="wEtGg_RZ93yMnzrgPgLD-1">
          <mxGeometry width="50" height="50" relative="1" as="geometry">
            <mxPoint x="680" y="1235" as="sourcePoint" />
            <mxPoint x="680" y="1075" as="targetPoint" />
          </mxGeometry>
        </mxCell>
        <mxCell id="yj8fQrJnfB6Jm6q0njUs-133" value="" style="shape=parallelogram;perimeter=parallelogramPerimeter;whiteSpace=wrap;html=1;strokeColor=#000000;fillColor=#DAE8FC;fontFamily=Computer Modern;fontSize=35;fontColor=#EA4335;align=left;size=0.5016750843898055;rotation=-225;strokeWidth=2;" vertex="1" parent="wEtGg_RZ93yMnzrgPgLD-1">
          <mxGeometry x="645" y="1147.7" width="110" height="55.06" as="geometry" />
        </mxCell>
        <mxCell id="yj8fQrJnfB6Jm6q0njUs-135" value="" style="endArrow=none;html=1;strokeWidth=3;fontFamily=Computer Modern;fontSize=14;fontColor=#4285F4;fillColor=#f8cecc;strokeColor=#FBBC05;entryX=0.606;entryY=0.786;entryDx=0;entryDy=0;entryPerimeter=0;" edge="1" parent="wEtGg_RZ93yMnzrgPgLD-1" target="yj8fQrJnfB6Jm6q0njUs-130">
          <mxGeometry width="50" height="50" relative="1" as="geometry">
            <mxPoint x="640" y="1216" as="sourcePoint" />
            <mxPoint x="759" y="1155" as="targetPoint" />
          </mxGeometry>
        </mxCell>
        <mxCell id="yj8fQrJnfB6Jm6q0njUs-130" value="" style="shape=parallelogram;perimeter=parallelogramPerimeter;whiteSpace=wrap;html=1;strokeColor=#000000;fillColor=#99CCFF;fontFamily=Computer Modern;fontSize=35;fontColor=#EA4335;align=left;size=0.5016750843898055;rotation=-225;strokeWidth=2;" vertex="1" parent="wEtGg_RZ93yMnzrgPgLD-1">
          <mxGeometry x="765.6400000000001" y="1107.24" width="110" height="55.06" as="geometry" />
        </mxCell>
        <mxCell id="yj8fQrJnfB6Jm6q0njUs-112" value="" style="endArrow=none;html=1;labelBackgroundColor=none;strokeColor=#000000;strokeWidth=2;fillColor=#FBBC05;fontFamily=Computer Modern;fontSize=35;fontColor=#EA4335;rounded=0;" edge="1" parent="wEtGg_RZ93yMnzrgPgLD-1">
          <mxGeometry width="50" height="50" relative="1" as="geometry">
            <mxPoint x="720" y="1115" as="sourcePoint" />
            <mxPoint x="880" y="1115" as="targetPoint" />
          </mxGeometry>
        </mxCell>
        <mxCell id="yj8fQrJnfB6Jm6q0njUs-111" value="" style="endArrow=none;html=1;labelBackgroundColor=none;strokeColor=#000000;strokeWidth=2;fillColor=#FBBC05;fontFamily=Computer Modern;fontSize=35;fontColor=#EA4335;rounded=0;" edge="1" parent="wEtGg_RZ93yMnzrgPgLD-1">
          <mxGeometry width="50" height="50" relative="1" as="geometry">
            <mxPoint x="720" y="1194" as="sourcePoint" />
            <mxPoint x="880" y="1194" as="targetPoint" />
          </mxGeometry>
        </mxCell>
        <mxCell id="yj8fQrJnfB6Jm6q0njUs-131" value="" style="shape=parallelogram;perimeter=parallelogramPerimeter;whiteSpace=wrap;html=1;strokeColor=#000000;fillColor=#DAE8FC;fontFamily=Computer Modern;fontSize=35;fontColor=#EA4335;align=left;size=0.5016750843898055;rotation=-225;strokeWidth=2;" vertex="1" parent="wEtGg_RZ93yMnzrgPgLD-1">
          <mxGeometry x="645" y="1067.46" width="110" height="55.06" as="geometry" />
        </mxCell>
        <mxCell id="yj8fQrJnfB6Jm6q0njUs-132" value="" style="shape=parallelogram;perimeter=parallelogramPerimeter;whiteSpace=wrap;html=1;strokeColor=#000000;fillColor=#DAE8FC;fontFamily=Computer Modern;fontSize=35;fontColor=#EA4335;align=left;size=0.5016750843898055;rotation=-225;strokeWidth=2;" vertex="1" parent="wEtGg_RZ93yMnzrgPgLD-1">
          <mxGeometry x="685.6400000000001" y="1027" width="110" height="55.06" as="geometry" />
        </mxCell>
        <mxCell id="yj8fQrJnfB6Jm6q0njUs-127" value="" style="shape=parallelogram;perimeter=parallelogramPerimeter;whiteSpace=wrap;html=1;strokeColor=#000000;fillColor=#99CCFF;fontFamily=Computer Modern;fontSize=35;fontColor=#EA4335;align=left;size=0.5016750843898055;rotation=-225;strokeWidth=2;" vertex="1" parent="wEtGg_RZ93yMnzrgPgLD-1">
          <mxGeometry x="725" y="1067.46" width="110" height="55.06" as="geometry" />
        </mxCell>
        <mxCell id="yj8fQrJnfB6Jm6q0njUs-128" value="" style="shape=parallelogram;perimeter=parallelogramPerimeter;whiteSpace=wrap;html=1;strokeColor=#000000;fillColor=#99CCFF;fontFamily=Computer Modern;fontSize=35;fontColor=#EA4335;align=left;size=0.5016750843898055;rotation=-225;strokeWidth=2;" vertex="1" parent="wEtGg_RZ93yMnzrgPgLD-1">
          <mxGeometry x="765.6400000000001" y="1027" width="110" height="55.06" as="geometry" />
        </mxCell>
        <mxCell id="yj8fQrJnfB6Jm6q0njUs-129" value="" style="shape=parallelogram;perimeter=parallelogramPerimeter;whiteSpace=wrap;html=1;strokeColor=#000000;fillColor=#99CCFF;fontFamily=Computer Modern;fontSize=35;fontColor=#EA4335;align=left;size=0.5016750843898055;rotation=-225;strokeWidth=2;" vertex="1" parent="wEtGg_RZ93yMnzrgPgLD-1">
          <mxGeometry x="725" y="1147.7" width="110" height="55.06" as="geometry" />
        </mxCell>
        <mxCell id="yj8fQrJnfB6Jm6q0njUs-64" value="" style="shape=parallelogram;perimeter=parallelogramPerimeter;whiteSpace=wrap;html=1;strokeColor=#000000;strokeWidth=2;fillColor=#99CCFF;fontFamily=Computer Modern;fontSize=14;align=right;size=0.3387163561076615;" vertex="1" parent="wEtGg_RZ93yMnzrgPgLD-1">
          <mxGeometry x="439" y="1079" width="118.48" height="39" as="geometry" />
        </mxCell>
        <mxCell id="yj8fQrJnfB6Jm6q0njUs-68" value="" style="shape=parallelogram;perimeter=parallelogramPerimeter;whiteSpace=wrap;html=1;strokeColor=#000000;strokeWidth=2;fillColor=#66B2FF;fontFamily=Computer Modern;fontSize=14;align=right;size=0.3387163561076615;" vertex="1" parent="wEtGg_RZ93yMnzrgPgLD-1">
          <mxGeometry x="439" y="1001" width="118.48" height="39" as="geometry" />
        </mxCell>
        <mxCell id="yj8fQrJnfB6Jm6q0njUs-72" value="" style="shape=parallelogram;perimeter=parallelogramPerimeter;whiteSpace=wrap;html=1;strokeColor=#000000;strokeWidth=2;fillColor=#DAE8FC;fontFamily=Computer Modern;fontSize=14;align=right;size=0.3387163561076615;" vertex="1" parent="wEtGg_RZ93yMnzrgPgLD-1">
          <mxGeometry x="439" y="1157" width="118.48" height="39" as="geometry" />
        </mxCell>
        <mxCell id="yj8fQrJnfB6Jm6q0njUs-76" value="" style="endArrow=none;html=1;fontFamily=Computer Modern;fontSize=14;fontColor=#4285F4;strokeWidth=2;" edge="1" parent="wEtGg_RZ93yMnzrgPgLD-1">
          <mxGeometry width="50" height="50" relative="1" as="geometry">
            <mxPoint x="439" y="1118" as="sourcePoint" />
            <mxPoint x="439" y="1040" as="targetPoint" />
          </mxGeometry>
        </mxCell>
        <mxCell id="yj8fQrJnfB6Jm6q0njUs-77" value="" style="endArrow=none;html=1;fontFamily=Computer Modern;fontSize=14;fontColor=#4285F4;strokeWidth=2;" edge="1" parent="wEtGg_RZ93yMnzrgPgLD-1">
          <mxGeometry width="50" height="50" relative="1" as="geometry">
            <mxPoint x="439" y="1196" as="sourcePoint" />
            <mxPoint x="439" y="1157" as="targetPoint" />
          </mxGeometry>
        </mxCell>
        <mxCell id="yj8fQrJnfB6Jm6q0njUs-79" value="" style="endArrow=none;html=1;fontFamily=Computer Modern;fontSize=14;fontColor=#4285F4;strokeWidth=2;" edge="1" parent="wEtGg_RZ93yMnzrgPgLD-1">
          <mxGeometry width="50" height="50" relative="1" as="geometry">
            <mxPoint x="559" y="1157" as="sourcePoint" />
            <mxPoint x="558.0000000000002" y="1000" as="targetPoint" />
          </mxGeometry>
        </mxCell>
        <mxCell id="yj8fQrJnfB6Jm6q0njUs-82" value="" style="endArrow=none;html=1;strokeWidth=3;fontFamily=Computer Modern;fontSize=14;fontColor=#4285F4;fillColor=#f8cecc;strokeColor=#FBBC05;exitX=0.304;exitY=0.308;exitDx=0;exitDy=0;exitPerimeter=0;" edge="1" parent="wEtGg_RZ93yMnzrgPgLD-1" source="yj8fQrJnfB6Jm6q0njUs-62">
          <mxGeometry width="50" height="50" relative="1" as="geometry">
            <mxPoint x="516.96" y="1090.04" as="sourcePoint" />
            <mxPoint x="600" y="1046" as="targetPoint" />
          </mxGeometry>
        </mxCell>
        <mxCell id="yj8fQrJnfB6Jm6q0njUs-87" value="" style="ellipse;whiteSpace=wrap;html=1;aspect=fixed;strokeColor=#FBBC05;strokeWidth=2;fillColor=#FBBC05;fontFamily=Computer Modern;fontSize=14;align=right;" vertex="1" parent="wEtGg_RZ93yMnzrgPgLD-1">
          <mxGeometry x="432" y="1124" width="10" height="10" as="geometry" />
        </mxCell>
        <mxCell id="yj8fQrJnfB6Jm6q0njUs-81" value="" style="endArrow=none;html=1;fontFamily=Computer Modern;fontSize=14;fontColor=#4285F4;strokeWidth=2;" edge="1" parent="wEtGg_RZ93yMnzrgPgLD-1">
          <mxGeometry width="50" height="50" relative="1" as="geometry">
            <mxPoint x="518.0500000000002" y="1195" as="sourcePoint" />
            <mxPoint x="517.48" y="1040" as="targetPoint" />
          </mxGeometry>
        </mxCell>
        <mxCell id="yj8fQrJnfB6Jm6q0njUs-80" value="" style="endArrow=none;html=1;fontFamily=Computer Modern;fontSize=14;fontColor=#4285F4;strokeWidth=2;" edge="1" parent="wEtGg_RZ93yMnzrgPgLD-1">
          <mxGeometry width="50" height="50" relative="1" as="geometry">
            <mxPoint x="478" y="1233" as="sourcePoint" />
            <mxPoint x="478.48" y="1079" as="targetPoint" />
          </mxGeometry>
        </mxCell>
        <mxCell id="yj8fQrJnfB6Jm6q0njUs-92" value="" style="endArrow=none;html=1;labelBackgroundColor=none;strokeColor=#000000;strokeWidth=2;fillColor=#FBBC05;fontFamily=Computer Modern;fontSize=35;fontColor=#EA4335;rounded=0;" edge="1" parent="wEtGg_RZ93yMnzrgPgLD-1">
          <mxGeometry width="50" height="50" relative="1" as="geometry">
            <mxPoint x="840" y="1235" as="sourcePoint" />
            <mxPoint x="840" y="1075" as="targetPoint" />
          </mxGeometry>
        </mxCell>
        <mxCell id="yj8fQrJnfB6Jm6q0njUs-93" value="" style="endArrow=none;html=1;labelBackgroundColor=none;strokeColor=#000000;strokeWidth=2;fillColor=#FBBC05;fontFamily=Computer Modern;fontSize=35;fontColor=#EA4335;rounded=0;" edge="1" parent="wEtGg_RZ93yMnzrgPgLD-1">
          <mxGeometry width="50" height="50" relative="1" as="geometry">
            <mxPoint x="760.0000000000002" y="1155" as="sourcePoint" />
            <mxPoint x="760.0000000000002" y="995" as="targetPoint" />
          </mxGeometry>
        </mxCell>
        <mxCell id="yj8fQrJnfB6Jm6q0njUs-94" value="" style="endArrow=none;html=1;labelBackgroundColor=none;strokeColor=#000000;strokeWidth=2;fillColor=#FBBC05;fontFamily=Computer Modern;fontSize=35;fontColor=#EA4335;rounded=0;" edge="1" parent="wEtGg_RZ93yMnzrgPgLD-1">
          <mxGeometry width="50" height="50" relative="1" as="geometry">
            <mxPoint x="920" y="1155" as="sourcePoint" />
            <mxPoint x="920" y="995" as="targetPoint" />
          </mxGeometry>
        </mxCell>
        <mxCell id="yj8fQrJnfB6Jm6q0njUs-95" value="" style="endArrow=none;html=1;labelBackgroundColor=none;strokeColor=#000000;strokeWidth=2;fillColor=#FBBC05;fontFamily=Computer Modern;fontSize=35;fontColor=#EA4335;rounded=0;" edge="1" parent="wEtGg_RZ93yMnzrgPgLD-1">
          <mxGeometry width="50" height="50" relative="1" as="geometry">
            <mxPoint x="680" y="1235" as="sourcePoint" />
            <mxPoint x="840" y="1235" as="targetPoint" />
          </mxGeometry>
        </mxCell>
        <mxCell id="yj8fQrJnfB6Jm6q0njUs-96" value="" style="endArrow=none;html=1;labelBackgroundColor=none;strokeColor=#000000;strokeWidth=2;fillColor=#FBBC05;fontFamily=Computer Modern;fontSize=35;fontColor=#EA4335;rounded=0;" edge="1" parent="wEtGg_RZ93yMnzrgPgLD-1">
          <mxGeometry width="50" height="50" relative="1" as="geometry">
            <mxPoint x="760.0000000000002" y="1154.31" as="sourcePoint" />
            <mxPoint x="920" y="1154.31" as="targetPoint" />
          </mxGeometry>
        </mxCell>
        <mxCell id="yj8fQrJnfB6Jm6q0njUs-97" value="" style="endArrow=none;html=1;labelBackgroundColor=none;strokeColor=#000000;strokeWidth=2;fillColor=#FBBC05;fontFamily=Computer Modern;fontSize=35;fontColor=#EA4335;rounded=0;" edge="1" parent="wEtGg_RZ93yMnzrgPgLD-1">
          <mxGeometry width="50" height="50" relative="1" as="geometry">
            <mxPoint x="680.0000000000002" y="1154.31" as="sourcePoint" />
            <mxPoint x="840" y="1154.31" as="targetPoint" />
          </mxGeometry>
        </mxCell>
        <mxCell id="yj8fQrJnfB6Jm6q0njUs-98" value="" style="endArrow=none;html=1;labelBackgroundColor=none;strokeColor=#000000;strokeWidth=2;fillColor=#FBBC05;fontFamily=Computer Modern;fontSize=35;fontColor=#EA4335;rounded=0;" edge="1" parent="wEtGg_RZ93yMnzrgPgLD-1" source="yj8fQrJnfB6Jm6q0njUs-123">
          <mxGeometry width="50" height="50" relative="1" as="geometry">
            <mxPoint x="760" y="1073.62" as="sourcePoint" />
            <mxPoint x="920" y="1073.62" as="targetPoint" />
          </mxGeometry>
        </mxCell>
        <mxCell id="yj8fQrJnfB6Jm6q0njUs-99" value="" style="endArrow=none;html=1;labelBackgroundColor=none;strokeColor=#000000;strokeWidth=2;fillColor=#FBBC05;fontFamily=Computer Modern;fontSize=35;fontColor=#EA4335;rounded=0;" edge="1" parent="wEtGg_RZ93yMnzrgPgLD-1">
          <mxGeometry width="50" height="50" relative="1" as="geometry">
            <mxPoint x="680.0000000000002" y="1074.31" as="sourcePoint" />
            <mxPoint x="840" y="1074.31" as="targetPoint" />
          </mxGeometry>
        </mxCell>
        <mxCell id="yj8fQrJnfB6Jm6q0njUs-100" value="" style="endArrow=none;html=1;labelBackgroundColor=none;strokeColor=#000000;strokeWidth=2;fillColor=#FBBC05;fontFamily=Computer Modern;fontSize=35;fontColor=#EA4335;rounded=0;" edge="1" parent="wEtGg_RZ93yMnzrgPgLD-1">
          <mxGeometry width="50" height="50" relative="1" as="geometry">
            <mxPoint x="761" y="996" as="sourcePoint" />
            <mxPoint x="921" y="996" as="targetPoint" />
          </mxGeometry>
        </mxCell>
        <mxCell id="yj8fQrJnfB6Jm6q0njUs-101" value="" style="endArrow=none;html=1;labelBackgroundColor=none;strokeColor=#000000;strokeWidth=2;fillColor=#FBBC05;fontFamily=Computer Modern;fontSize=35;fontColor=#EA4335;rounded=0;" edge="1" parent="wEtGg_RZ93yMnzrgPgLD-1">
          <mxGeometry width="50" height="50" relative="1" as="geometry">
            <mxPoint x="840" y="1235" as="sourcePoint" />
            <mxPoint x="920" y="1155" as="targetPoint" />
          </mxGeometry>
        </mxCell>
        <mxCell id="yj8fQrJnfB6Jm6q0njUs-102" value="" style="endArrow=none;html=1;labelBackgroundColor=none;strokeColor=#000000;strokeWidth=2;fillColor=#FBBC05;fontFamily=Computer Modern;fontSize=35;fontColor=#EA4335;rounded=0;" edge="1" parent="wEtGg_RZ93yMnzrgPgLD-1">
          <mxGeometry width="50" height="50" relative="1" as="geometry">
            <mxPoint x="680" y="1235" as="sourcePoint" />
            <mxPoint x="760" y="1155" as="targetPoint" />
          </mxGeometry>
        </mxCell>
        <mxCell id="yj8fQrJnfB6Jm6q0njUs-103" value="" style="endArrow=none;html=1;labelBackgroundColor=none;strokeColor=#000000;strokeWidth=2;fillColor=#FBBC05;fontFamily=Computer Modern;fontSize=35;fontColor=#EA4335;rounded=0;" edge="1" parent="wEtGg_RZ93yMnzrgPgLD-1">
          <mxGeometry width="50" height="50" relative="1" as="geometry">
            <mxPoint x="760" y="1235" as="sourcePoint" />
            <mxPoint x="840" y="1155" as="targetPoint" />
          </mxGeometry>
        </mxCell>
        <mxCell id="yj8fQrJnfB6Jm6q0njUs-105" value="" style="endArrow=none;html=1;labelBackgroundColor=none;strokeColor=#000000;strokeWidth=2;fillColor=#FBBC05;fontFamily=Computer Modern;fontSize=35;fontColor=#EA4335;rounded=0;" edge="1" parent="wEtGg_RZ93yMnzrgPgLD-1">
          <mxGeometry width="50" height="50" relative="1" as="geometry">
            <mxPoint x="840" y="1155" as="sourcePoint" />
            <mxPoint x="920" y="1075" as="targetPoint" />
          </mxGeometry>
        </mxCell>
        <mxCell id="yj8fQrJnfB6Jm6q0njUs-106" value="" style="endArrow=none;html=1;labelBackgroundColor=none;strokeColor=#000000;strokeWidth=2;fillColor=#FBBC05;fontFamily=Computer Modern;fontSize=35;fontColor=#EA4335;rounded=0;" edge="1" parent="wEtGg_RZ93yMnzrgPgLD-1">
          <mxGeometry width="50" height="50" relative="1" as="geometry">
            <mxPoint x="680" y="1155" as="sourcePoint" />
            <mxPoint x="760" y="1075" as="targetPoint" />
          </mxGeometry>
        </mxCell>
        <mxCell id="yj8fQrJnfB6Jm6q0njUs-107" value="" style="endArrow=none;html=1;labelBackgroundColor=none;strokeColor=#000000;strokeWidth=2;fillColor=#FBBC05;fontFamily=Computer Modern;fontSize=35;fontColor=#EA4335;rounded=0;" edge="1" parent="wEtGg_RZ93yMnzrgPgLD-1">
          <mxGeometry width="50" height="50" relative="1" as="geometry">
            <mxPoint x="760" y="1155" as="sourcePoint" />
            <mxPoint x="840" y="1075" as="targetPoint" />
          </mxGeometry>
        </mxCell>
        <mxCell id="yj8fQrJnfB6Jm6q0njUs-108" value="" style="endArrow=none;html=1;labelBackgroundColor=none;strokeColor=#000000;strokeWidth=2;fillColor=#FBBC05;fontFamily=Computer Modern;fontSize=35;fontColor=#EA4335;rounded=0;" edge="1" parent="wEtGg_RZ93yMnzrgPgLD-1">
          <mxGeometry width="50" height="50" relative="1" as="geometry">
            <mxPoint x="840" y="1075" as="sourcePoint" />
            <mxPoint x="920" y="995" as="targetPoint" />
          </mxGeometry>
        </mxCell>
        <mxCell id="yj8fQrJnfB6Jm6q0njUs-109" value="" style="endArrow=none;html=1;labelBackgroundColor=none;strokeColor=#000000;strokeWidth=2;fillColor=#FBBC05;fontFamily=Computer Modern;fontSize=35;fontColor=#EA4335;rounded=0;" edge="1" parent="wEtGg_RZ93yMnzrgPgLD-1">
          <mxGeometry width="50" height="50" relative="1" as="geometry">
            <mxPoint x="680" y="1075" as="sourcePoint" />
            <mxPoint x="760" y="995" as="targetPoint" />
          </mxGeometry>
        </mxCell>
        <mxCell id="yj8fQrJnfB6Jm6q0njUs-110" value="" style="endArrow=none;html=1;labelBackgroundColor=none;strokeColor=#000000;strokeWidth=2;fillColor=#FBBC05;fontFamily=Computer Modern;fontSize=35;fontColor=#EA4335;rounded=0;" edge="1" parent="wEtGg_RZ93yMnzrgPgLD-1">
          <mxGeometry width="50" height="50" relative="1" as="geometry">
            <mxPoint x="760" y="1075" as="sourcePoint" />
            <mxPoint x="840" y="995" as="targetPoint" />
          </mxGeometry>
        </mxCell>
        <mxCell id="yj8fQrJnfB6Jm6q0njUs-113" value="" style="endArrow=none;html=1;labelBackgroundColor=none;strokeColor=#000000;strokeWidth=2;fillColor=#FBBC05;fontFamily=Computer Modern;fontSize=35;fontColor=#EA4335;rounded=0;" edge="1" parent="wEtGg_RZ93yMnzrgPgLD-1">
          <mxGeometry width="50" height="50" relative="1" as="geometry">
            <mxPoint x="720" y="1035" as="sourcePoint" />
            <mxPoint x="880" y="1035" as="targetPoint" />
          </mxGeometry>
        </mxCell>
        <mxCell id="yj8fQrJnfB6Jm6q0njUs-114" value="" style="endArrow=none;html=1;labelBackgroundColor=none;strokeColor=#000000;strokeWidth=2;fillColor=#FBBC05;fontFamily=Computer Modern;fontSize=35;fontColor=#EA4335;rounded=0;" edge="1" parent="wEtGg_RZ93yMnzrgPgLD-1">
          <mxGeometry width="50" height="50" relative="1" as="geometry">
            <mxPoint x="801" y="1193" as="sourcePoint" />
            <mxPoint x="801" y="1033" as="targetPoint" />
          </mxGeometry>
        </mxCell>
        <mxCell id="yj8fQrJnfB6Jm6q0njUs-115" value="" style="endArrow=none;html=1;labelBackgroundColor=none;strokeColor=#000000;strokeWidth=2;fillColor=#FBBC05;fontFamily=Computer Modern;fontSize=35;fontColor=#EA4335;rounded=0;" edge="1" parent="wEtGg_RZ93yMnzrgPgLD-1">
          <mxGeometry width="50" height="50" relative="1" as="geometry">
            <mxPoint x="760" y="1235" as="sourcePoint" />
            <mxPoint x="760" y="1075" as="targetPoint" />
          </mxGeometry>
        </mxCell>
        <mxCell id="yj8fQrJnfB6Jm6q0njUs-116" value="" style="endArrow=none;html=1;labelBackgroundColor=none;strokeColor=#000000;strokeWidth=2;fillColor=#FBBC05;fontFamily=Computer Modern;fontSize=35;fontColor=#EA4335;rounded=0;" edge="1" parent="wEtGg_RZ93yMnzrgPgLD-1">
          <mxGeometry width="50" height="50" relative="1" as="geometry">
            <mxPoint x="840" y="1155" as="sourcePoint" />
            <mxPoint x="840" y="995" as="targetPoint" />
          </mxGeometry>
        </mxCell>
        <mxCell id="yj8fQrJnfB6Jm6q0njUs-117" value="" style="endArrow=none;html=1;labelBackgroundColor=none;strokeColor=#000000;strokeWidth=2;fillColor=#FBBC05;fontFamily=Computer Modern;fontSize=35;fontColor=#EA4335;rounded=0;" edge="1" parent="wEtGg_RZ93yMnzrgPgLD-1">
          <mxGeometry width="50" height="50" relative="1" as="geometry">
            <mxPoint x="880" y="1195" as="sourcePoint" />
            <mxPoint x="880" y="1035" as="targetPoint" />
          </mxGeometry>
        </mxCell>
        <mxCell id="yj8fQrJnfB6Jm6q0njUs-123" value="" style="shape=parallelogram;perimeter=parallelogramPerimeter;whiteSpace=wrap;html=1;strokeColor=#000000;fillColor=#66B2FF;fontFamily=Computer Modern;fontSize=35;fontColor=#EA4335;align=left;size=0.5016750843898055;rotation=-225;strokeWidth=2;" vertex="1" parent="wEtGg_RZ93yMnzrgPgLD-1">
          <mxGeometry x="846" y="1027" width="110" height="55.06" as="geometry" />
        </mxCell>
        <mxCell id="yj8fQrJnfB6Jm6q0njUs-125" value="" style="shape=parallelogram;perimeter=parallelogramPerimeter;whiteSpace=wrap;html=1;strokeColor=#000000;fillColor=#66B2FF;fontFamily=Computer Modern;fontSize=35;fontColor=#EA4335;align=left;size=0.5016750843898055;rotation=-225;strokeWidth=2;" vertex="1" parent="wEtGg_RZ93yMnzrgPgLD-1">
          <mxGeometry x="805.3599999999999" y="1147.7" width="110" height="55.06" as="geometry" />
        </mxCell>
        <mxCell id="yj8fQrJnfB6Jm6q0njUs-126" value="" style="shape=parallelogram;perimeter=parallelogramPerimeter;whiteSpace=wrap;html=1;strokeColor=#000000;fillColor=#66B2FF;fontFamily=Computer Modern;fontSize=35;fontColor=#EA4335;align=left;size=0.5016750843898055;rotation=-225;strokeWidth=2;" vertex="1" parent="wEtGg_RZ93yMnzrgPgLD-1">
          <mxGeometry x="846" y="1107.24" width="110" height="55.06" as="geometry" />
        </mxCell>
        <mxCell id="yj8fQrJnfB6Jm6q0njUs-139" value="" style="shape=parallelogram;perimeter=parallelogramPerimeter;whiteSpace=wrap;html=1;strokeColor=#000000;fillColor=#EA4335;fontFamily=Computer Modern;fontSize=35;fontColor=#EA4335;align=left;size=0.5016750843898055;rotation=-225;strokeWidth=2;opacity=70;" vertex="1" parent="wEtGg_RZ93yMnzrgPgLD-1">
          <mxGeometry x="725" y="1068" width="110" height="55.06" as="geometry" />
        </mxCell>
        <mxCell id="yj8fQrJnfB6Jm6q0njUs-140" value="" style="shape=parallelogram;perimeter=parallelogramPerimeter;whiteSpace=wrap;html=1;strokeColor=#000000;fillColor=#EA4335;fontFamily=Computer Modern;fontSize=35;fontColor=#EA4335;align=left;size=0.5016750843898055;rotation=-225;strokeWidth=2;opacity=70;" vertex="1" parent="wEtGg_RZ93yMnzrgPgLD-1">
          <mxGeometry x="725" y="1148.24" width="110" height="55.06" as="geometry" />
        </mxCell>
        <mxCell id="yj8fQrJnfB6Jm6q0njUs-137" value="" style="endArrow=none;html=1;strokeWidth=3;fontFamily=Computer Modern;fontSize=14;fontColor=#4285F4;fillColor=#f8cecc;strokeColor=#FBBC05;" edge="1" parent="wEtGg_RZ93yMnzrgPgLD-1">
          <mxGeometry width="50" height="50" relative="1" as="geometry">
            <mxPoint x="769" y="1147" as="sourcePoint" />
            <mxPoint x="860" y="1102" as="targetPoint" />
          </mxGeometry>
        </mxCell>
        <mxCell id="yj8fQrJnfB6Jm6q0njUs-136" value="" style="ellipse;whiteSpace=wrap;html=1;aspect=fixed;strokeColor=#FBBC05;strokeWidth=2;fillColor=#FBBC05;fontFamily=Computer Modern;fontSize=14;align=right;" vertex="1" parent="wEtGg_RZ93yMnzrgPgLD-1">
          <mxGeometry x="764" y="1142" width="10" height="10" as="geometry" />
        </mxCell>
        <mxCell id="yj8fQrJnfB6Jm6q0njUs-141" value="" style="endArrow=none;html=1;strokeWidth=3;fontFamily=Computer Modern;fontSize=14;fontColor=#4285F4;fillColor=#f8cecc;strokeColor=#FBBC05;" edge="1" parent="wEtGg_RZ93yMnzrgPgLD-1">
          <mxGeometry width="50" height="50" relative="1" as="geometry">
            <mxPoint x="897" y="1084" as="sourcePoint" />
            <mxPoint x="963" y="1048" as="targetPoint" />
          </mxGeometry>
        </mxCell>
        <mxCell id="yj8fQrJnfB6Jm6q0njUs-120" value="" style="shape=parallelogram;perimeter=parallelogramPerimeter;whiteSpace=wrap;html=1;strokeColor=#000000;fillColor=#66B2FF;fontFamily=Computer Modern;fontSize=35;fontColor=#EA4335;align=left;size=0.5016750843898055;rotation=-225;strokeWidth=2;" vertex="1" parent="wEtGg_RZ93yMnzrgPgLD-1">
          <mxGeometry x="805.3599999999999" y="1067.46" width="110" height="55.06" as="geometry" />
        </mxCell>
        <mxCell id="yj8fQrJnfB6Jm6q0njUs-142" value="" style="ellipse;whiteSpace=wrap;html=1;aspect=fixed;strokeColor=#FBBC05;strokeWidth=2;fillColor=#FBBC05;fontFamily=Computer Modern;fontSize=14;align=right;" vertex="1" parent="wEtGg_RZ93yMnzrgPgLD-1">
          <mxGeometry x="892" y="1079" width="10" height="10" as="geometry" />
        </mxCell>
        <mxCell id="yj8fQrJnfB6Jm6q0njUs-143" value="&lt;span style=&quot;color: rgba(0 , 0 , 0 , 0) ; font-family: monospace ; font-size: 0px ; background-color: rgb(248 , 249 , 250)&quot;&gt;%3CmxGraphModel%3E%3Croot%3E%3CmxCell%20id%3D%220%22%2F%3E%3CmxCell%20id%3D%221%22%20parent%3D%220%22%2F%3E%3CmxCell%20id%3D%222%22%20value%3D%22%22%20style%3D%22shape%3Dparallelogram%3Bperimeter%3DparallelogramPerimeter%3BwhiteSpace%3Dwrap%3Bhtml%3D1%3BstrokeColor%3D%23000000%3BstrokeWidth%3D2%3BfillColor%3D%23EA4335%3BfontFamily%3DComputer%20Modern%3BfontSize%3D14%3Balign%3Dright%3Bsize%3D0.3387163561076615%3Bopacity%3D70%3B%22%20vertex%3D%221%22%20parent%3D%221%22%3E%3CmxGeometry%20x%3D%22399%22%20y%3D%221118%22%20width%3D%22118.48%22%20height%3D%2239%22%20as%3D%22geometry%22%2F%3E%3C%2FmxCell%3E%3C%2Froot%3E%3C%2FmxGraphModel%3E&lt;/span&gt;&lt;span style=&quot;color: rgba(0 , 0 , 0 , 0) ; font-family: monospace ; font-size: 0px ; background-color: rgb(248 , 249 , 250)&quot;&gt;%3CmxGraphModel%3E%3Croot%3E%3CmxCell%20id%3D%220%22%2F%3E%3CmxCell%20id%3D%221%22%20parent%3D%220%22%2F%3E%3CmxCell%20id%3D%222%22%20value%3D%22%22%20style%3D%22shape%3Dparallelogram%3Bperimeter%3DparallelogramPerimeter%3BwhiteSpace%3Dwrap%3Bhtml%3D1%3BstrokeColor%3D%23000000%3BstrokeWidth%3D2%3BfillColor%3D%23EA4335%3BfontFamily%3DComputer%20Modern%3BfontSize%3D14%3Balign%3Dright%3Bsize%3D0.3387163561076615%3Bopacity%3D70%3B%22%20vertex%3D%221%22%20parent%3D%221%22%3E%3CmxGeometry%20x%3D%22399%22%20y%3D%221118%22%20width%3D%22118.48%22%20height%3D%2239%22%20as%3D%22geometry%22%2F%3E%3C%2FmxCell%3E%3C%2Froot%3E%3C%2FmxGraphModel%3E&lt;/span&gt;" style="shape=parallelogram;perimeter=parallelogramPerimeter;whiteSpace=wrap;html=1;strokeColor=#000000;fillColor=#EA4335;fontFamily=Computer Modern;fontSize=35;fontColor=#EA4335;align=left;size=0.5016750843898055;rotation=-225;strokeWidth=2;opacity=70;" vertex="1" parent="wEtGg_RZ93yMnzrgPgLD-1">
          <mxGeometry x="846" y="1026.94" width="110" height="55.06" as="geometry" />
        </mxCell>
      </root>
    </mxGraphModel>
  </diagram>
  <diagram id="eKTOnuwvZI6Qi9aqHgD1" name="Page-5">
    <mxGraphModel dx="1930" dy="1128" grid="1" gridSize="10" guides="1" tooltips="1" connect="1" arrows="1" fold="1" page="1" pageScale="1" pageWidth="2400" pageHeight="2400" math="0" shadow="0" extFonts="Computer Modern^https://fonts.googleapis.com/css?family=Computer+Modern">
      <root>
        <mxCell id="CO-_M08FjH-IJA-1aRg9-0" />
        <mxCell id="CO-_M08FjH-IJA-1aRg9-1" parent="CO-_M08FjH-IJA-1aRg9-0" />
        <mxCell id="P5Nrl4ShwJPzNBC8MYFL-94" value="" style="group;fontFamily=Computer Modern;" vertex="1" connectable="0" parent="CO-_M08FjH-IJA-1aRg9-1">
          <mxGeometry x="1240" y="1360" width="240" height="240" as="geometry" />
        </mxCell>
        <mxCell id="P5Nrl4ShwJPzNBC8MYFL-56" value="" style="group;fontFamily=Computer Modern;" vertex="1" connectable="0" parent="P5Nrl4ShwJPzNBC8MYFL-94">
          <mxGeometry width="240" height="240" as="geometry" />
        </mxCell>
        <mxCell id="P5Nrl4ShwJPzNBC8MYFL-55" value="" style="group;fontFamily=Computer Modern;" vertex="1" connectable="0" parent="P5Nrl4ShwJPzNBC8MYFL-56">
          <mxGeometry width="240" height="240" as="geometry" />
        </mxCell>
        <mxCell id="P5Nrl4ShwJPzNBC8MYFL-39" value="" style="whiteSpace=wrap;html=1;aspect=fixed;fontFamily=Computer Modern;" vertex="1" parent="P5Nrl4ShwJPzNBC8MYFL-55">
          <mxGeometry width="60" height="60" as="geometry" />
        </mxCell>
        <mxCell id="P5Nrl4ShwJPzNBC8MYFL-40" value="" style="whiteSpace=wrap;html=1;aspect=fixed;fontFamily=Computer Modern;" vertex="1" parent="P5Nrl4ShwJPzNBC8MYFL-55">
          <mxGeometry y="60" width="60" height="60" as="geometry" />
        </mxCell>
        <mxCell id="P5Nrl4ShwJPzNBC8MYFL-41" value="" style="whiteSpace=wrap;html=1;aspect=fixed;fontFamily=Computer Modern;" vertex="1" parent="P5Nrl4ShwJPzNBC8MYFL-55">
          <mxGeometry x="60" width="60" height="60" as="geometry" />
        </mxCell>
        <mxCell id="P5Nrl4ShwJPzNBC8MYFL-42" value="" style="whiteSpace=wrap;html=1;aspect=fixed;fontFamily=Computer Modern;" vertex="1" parent="P5Nrl4ShwJPzNBC8MYFL-55">
          <mxGeometry x="60" y="60" width="60" height="60" as="geometry" />
        </mxCell>
        <mxCell id="P5Nrl4ShwJPzNBC8MYFL-43" value="" style="whiteSpace=wrap;html=1;aspect=fixed;fontFamily=Computer Modern;" vertex="1" parent="P5Nrl4ShwJPzNBC8MYFL-55">
          <mxGeometry x="120" width="60" height="60" as="geometry" />
        </mxCell>
        <mxCell id="P5Nrl4ShwJPzNBC8MYFL-44" value="" style="whiteSpace=wrap;html=1;aspect=fixed;fontFamily=Computer Modern;" vertex="1" parent="P5Nrl4ShwJPzNBC8MYFL-55">
          <mxGeometry x="120" y="60" width="60" height="60" as="geometry" />
        </mxCell>
        <mxCell id="P5Nrl4ShwJPzNBC8MYFL-45" value="" style="whiteSpace=wrap;html=1;aspect=fixed;fontFamily=Computer Modern;" vertex="1" parent="P5Nrl4ShwJPzNBC8MYFL-55">
          <mxGeometry x="180" width="60" height="60" as="geometry" />
        </mxCell>
        <mxCell id="P5Nrl4ShwJPzNBC8MYFL-46" value="" style="whiteSpace=wrap;html=1;aspect=fixed;fillColor=#EA4335;strokeColor=#000000;fontFamily=Computer Modern;" vertex="1" parent="P5Nrl4ShwJPzNBC8MYFL-55">
          <mxGeometry x="180" y="60" width="60" height="60" as="geometry" />
        </mxCell>
        <mxCell id="P5Nrl4ShwJPzNBC8MYFL-47" value="" style="whiteSpace=wrap;html=1;aspect=fixed;fontFamily=Computer Modern;" vertex="1" parent="P5Nrl4ShwJPzNBC8MYFL-55">
          <mxGeometry y="120" width="60" height="60" as="geometry" />
        </mxCell>
        <mxCell id="P5Nrl4ShwJPzNBC8MYFL-48" value="" style="whiteSpace=wrap;html=1;aspect=fixed;fontFamily=Computer Modern;" vertex="1" parent="P5Nrl4ShwJPzNBC8MYFL-55">
          <mxGeometry y="180" width="60" height="60" as="geometry" />
        </mxCell>
        <mxCell id="P5Nrl4ShwJPzNBC8MYFL-49" value="" style="whiteSpace=wrap;html=1;aspect=fixed;fontFamily=Computer Modern;" vertex="1" parent="P5Nrl4ShwJPzNBC8MYFL-55">
          <mxGeometry x="60" y="120" width="60" height="60" as="geometry" />
        </mxCell>
        <mxCell id="P5Nrl4ShwJPzNBC8MYFL-50" value="" style="whiteSpace=wrap;html=1;aspect=fixed;fontFamily=Computer Modern;" vertex="1" parent="P5Nrl4ShwJPzNBC8MYFL-55">
          <mxGeometry x="60" y="180" width="60" height="60" as="geometry" />
        </mxCell>
        <mxCell id="P5Nrl4ShwJPzNBC8MYFL-51" value="" style="whiteSpace=wrap;html=1;aspect=fixed;fontFamily=Computer Modern;" vertex="1" parent="P5Nrl4ShwJPzNBC8MYFL-55">
          <mxGeometry x="120" y="120" width="60" height="60" as="geometry" />
        </mxCell>
        <mxCell id="P5Nrl4ShwJPzNBC8MYFL-52" value="" style="whiteSpace=wrap;html=1;aspect=fixed;fillColor=#EA4335;strokeColor=#000000;fontFamily=Computer Modern;" vertex="1" parent="P5Nrl4ShwJPzNBC8MYFL-55">
          <mxGeometry x="120" y="180" width="60" height="60" as="geometry" />
        </mxCell>
        <mxCell id="P5Nrl4ShwJPzNBC8MYFL-53" value="" style="whiteSpace=wrap;html=1;aspect=fixed;fillColor=#EA4335;strokeColor=#000000;fontFamily=Computer Modern;" vertex="1" parent="P5Nrl4ShwJPzNBC8MYFL-55">
          <mxGeometry x="180" y="120" width="60" height="60" as="geometry" />
        </mxCell>
        <mxCell id="P5Nrl4ShwJPzNBC8MYFL-54" value="" style="whiteSpace=wrap;html=1;aspect=fixed;fillColor=#EA4335;strokeColor=#000000;fontFamily=Computer Modern;" vertex="1" parent="P5Nrl4ShwJPzNBC8MYFL-55">
          <mxGeometry x="180" y="180" width="60" height="60" as="geometry" />
        </mxCell>
        <mxCell id="P5Nrl4ShwJPzNBC8MYFL-98" value="" style="group;fontFamily=Computer Modern;" vertex="1" connectable="0" parent="CO-_M08FjH-IJA-1aRg9-1">
          <mxGeometry x="400" y="1440" width="400" height="400" as="geometry" />
        </mxCell>
        <mxCell id="P5Nrl4ShwJPzNBC8MYFL-78" value="" style="whiteSpace=wrap;html=1;aspect=fixed;fontFamily=Computer Modern;" vertex="1" parent="P5Nrl4ShwJPzNBC8MYFL-98">
          <mxGeometry width="97.5609756097561" height="97.5609756097561" as="geometry" />
        </mxCell>
        <mxCell id="P5Nrl4ShwJPzNBC8MYFL-79" value="" style="whiteSpace=wrap;html=1;aspect=fixed;fontFamily=Computer Modern;" vertex="1" parent="P5Nrl4ShwJPzNBC8MYFL-98">
          <mxGeometry y="100" width="97.5609756097561" height="97.5609756097561" as="geometry" />
        </mxCell>
        <mxCell id="P5Nrl4ShwJPzNBC8MYFL-80" value="" style="whiteSpace=wrap;html=1;aspect=fixed;fontFamily=Computer Modern;" vertex="1" parent="P5Nrl4ShwJPzNBC8MYFL-98">
          <mxGeometry x="100" width="97.5609756097561" height="97.5609756097561" as="geometry" />
        </mxCell>
        <mxCell id="P5Nrl4ShwJPzNBC8MYFL-81" value="" style="whiteSpace=wrap;html=1;aspect=fixed;fillColor=#FBBC05;strokeColor=#000000;fontFamily=Computer Modern;" vertex="1" parent="P5Nrl4ShwJPzNBC8MYFL-98">
          <mxGeometry x="100" y="100" width="97.5609756097561" height="97.5609756097561" as="geometry" />
        </mxCell>
        <mxCell id="P5Nrl4ShwJPzNBC8MYFL-82" value="" style="whiteSpace=wrap;html=1;aspect=fixed;fillColor=#FBBC05;strokeColor=#000000;fontFamily=Computer Modern;" vertex="1" parent="P5Nrl4ShwJPzNBC8MYFL-98">
          <mxGeometry x="200" width="97.5609756097561" height="97.5609756097561" as="geometry" />
        </mxCell>
        <mxCell id="P5Nrl4ShwJPzNBC8MYFL-83" value="" style="whiteSpace=wrap;html=1;aspect=fixed;fillColor=#FBBC05;strokeColor=#000000;fontFamily=Computer Modern;" vertex="1" parent="P5Nrl4ShwJPzNBC8MYFL-98">
          <mxGeometry x="200" y="100" width="97.5609756097561" height="97.5609756097561" as="geometry" />
        </mxCell>
        <mxCell id="P5Nrl4ShwJPzNBC8MYFL-84" value="" style="whiteSpace=wrap;html=1;aspect=fixed;fontFamily=Computer Modern;" vertex="1" parent="P5Nrl4ShwJPzNBC8MYFL-98">
          <mxGeometry x="300" width="97.5609756097561" height="97.5609756097561" as="geometry" />
        </mxCell>
        <mxCell id="P5Nrl4ShwJPzNBC8MYFL-85" value="" style="whiteSpace=wrap;html=1;aspect=fixed;fontFamily=Computer Modern;" vertex="1" parent="P5Nrl4ShwJPzNBC8MYFL-98">
          <mxGeometry x="300" y="100" width="97.5609756097561" height="97.5609756097561" as="geometry" />
        </mxCell>
        <mxCell id="P5Nrl4ShwJPzNBC8MYFL-86" value="" style="whiteSpace=wrap;html=1;aspect=fixed;fillColor=#FBBC05;strokeColor=#000000;fontFamily=Computer Modern;" vertex="1" parent="P5Nrl4ShwJPzNBC8MYFL-98">
          <mxGeometry y="200" width="97.5609756097561" height="97.5609756097561" as="geometry" />
        </mxCell>
        <mxCell id="P5Nrl4ShwJPzNBC8MYFL-87" value="" style="whiteSpace=wrap;html=1;aspect=fixed;fillColor=#FBBC05;strokeColor=#000000;fontFamily=Computer Modern;" vertex="1" parent="P5Nrl4ShwJPzNBC8MYFL-98">
          <mxGeometry y="300" width="97.5609756097561" height="97.5609756097561" as="geometry" />
        </mxCell>
        <mxCell id="P5Nrl4ShwJPzNBC8MYFL-88" value="" style="whiteSpace=wrap;html=1;aspect=fixed;fillColor=#FBBC05;strokeColor=#000000;fontFamily=Computer Modern;" vertex="1" parent="P5Nrl4ShwJPzNBC8MYFL-98">
          <mxGeometry x="100" y="200" width="97.5609756097561" height="97.5609756097561" as="geometry" />
        </mxCell>
        <mxCell id="P5Nrl4ShwJPzNBC8MYFL-89" value="" style="whiteSpace=wrap;html=1;aspect=fixed;fontFamily=Computer Modern;" vertex="1" parent="P5Nrl4ShwJPzNBC8MYFL-98">
          <mxGeometry x="100" y="300" width="97.5609756097561" height="97.5609756097561" as="geometry" />
        </mxCell>
        <mxCell id="P5Nrl4ShwJPzNBC8MYFL-90" value="" style="whiteSpace=wrap;html=1;aspect=fixed;fontFamily=Computer Modern;" vertex="1" parent="P5Nrl4ShwJPzNBC8MYFL-98">
          <mxGeometry x="200" y="200" width="97.5609756097561" height="97.5609756097561" as="geometry" />
        </mxCell>
        <mxCell id="P5Nrl4ShwJPzNBC8MYFL-91" value="" style="whiteSpace=wrap;html=1;aspect=fixed;fontFamily=Computer Modern;" vertex="1" parent="P5Nrl4ShwJPzNBC8MYFL-98">
          <mxGeometry x="200" y="300" width="97.5609756097561" height="97.5609756097561" as="geometry" />
        </mxCell>
        <mxCell id="P5Nrl4ShwJPzNBC8MYFL-92" value="" style="whiteSpace=wrap;html=1;aspect=fixed;fontFamily=Computer Modern;" vertex="1" parent="P5Nrl4ShwJPzNBC8MYFL-98">
          <mxGeometry x="300" y="200" width="97.5609756097561" height="97.5609756097561" as="geometry" />
        </mxCell>
        <mxCell id="P5Nrl4ShwJPzNBC8MYFL-93" value="" style="whiteSpace=wrap;html=1;aspect=fixed;fontFamily=Computer Modern;" vertex="1" parent="P5Nrl4ShwJPzNBC8MYFL-98">
          <mxGeometry x="300" y="300" width="97.5609756097561" height="97.5609756097561" as="geometry" />
        </mxCell>
        <mxCell id="P5Nrl4ShwJPzNBC8MYFL-97" value="" style="endArrow=none;html=1;strokeColor=#34A853;strokeWidth=9;entryX=0.625;entryY=0.625;entryDx=0;entryDy=0;entryPerimeter=0;fontFamily=Computer Modern;" edge="1" parent="P5Nrl4ShwJPzNBC8MYFL-98">
          <mxGeometry width="50" height="50" relative="1" as="geometry">
            <mxPoint x="37.5" y="350" as="sourcePoint" />
            <mxPoint x="262.5" y="62.5" as="targetPoint" />
          </mxGeometry>
        </mxCell>
        <mxCell id="P5Nrl4ShwJPzNBC8MYFL-99" value="" style="group;fontFamily=Computer Modern;" vertex="1" connectable="0" parent="CO-_M08FjH-IJA-1aRg9-1">
          <mxGeometry x="1240" y="1680" width="240" height="240" as="geometry" />
        </mxCell>
        <mxCell id="P5Nrl4ShwJPzNBC8MYFL-100" value="" style="group;fontFamily=Computer Modern;" vertex="1" connectable="0" parent="P5Nrl4ShwJPzNBC8MYFL-99">
          <mxGeometry width="240" height="240" as="geometry" />
        </mxCell>
        <mxCell id="P5Nrl4ShwJPzNBC8MYFL-101" value="" style="group;fontFamily=Computer Modern;" vertex="1" connectable="0" parent="P5Nrl4ShwJPzNBC8MYFL-100">
          <mxGeometry width="240" height="240" as="geometry" />
        </mxCell>
        <mxCell id="P5Nrl4ShwJPzNBC8MYFL-102" value="" style="whiteSpace=wrap;html=1;aspect=fixed;fontFamily=Computer Modern;" vertex="1" parent="P5Nrl4ShwJPzNBC8MYFL-101">
          <mxGeometry width="60" height="60" as="geometry" />
        </mxCell>
        <mxCell id="P5Nrl4ShwJPzNBC8MYFL-103" value="" style="whiteSpace=wrap;html=1;aspect=fixed;fontFamily=Computer Modern;" vertex="1" parent="P5Nrl4ShwJPzNBC8MYFL-101">
          <mxGeometry y="60" width="60" height="60" as="geometry" />
        </mxCell>
        <mxCell id="P5Nrl4ShwJPzNBC8MYFL-104" value="" style="whiteSpace=wrap;html=1;aspect=fixed;fontFamily=Computer Modern;" vertex="1" parent="P5Nrl4ShwJPzNBC8MYFL-101">
          <mxGeometry x="60" width="60" height="60" as="geometry" />
        </mxCell>
        <mxCell id="P5Nrl4ShwJPzNBC8MYFL-105" value="" style="whiteSpace=wrap;html=1;aspect=fixed;fillColor=#EA4335;fontFamily=Computer Modern;" vertex="1" parent="P5Nrl4ShwJPzNBC8MYFL-101">
          <mxGeometry x="60" y="60" width="60" height="60" as="geometry" />
        </mxCell>
        <mxCell id="P5Nrl4ShwJPzNBC8MYFL-106" value="" style="whiteSpace=wrap;html=1;aspect=fixed;fontFamily=Computer Modern;" vertex="1" parent="P5Nrl4ShwJPzNBC8MYFL-101">
          <mxGeometry x="120" width="60" height="60" as="geometry" />
        </mxCell>
        <mxCell id="P5Nrl4ShwJPzNBC8MYFL-107" value="" style="whiteSpace=wrap;html=1;aspect=fixed;fillColor=#EA4335;fontFamily=Computer Modern;" vertex="1" parent="P5Nrl4ShwJPzNBC8MYFL-101">
          <mxGeometry x="120" y="60" width="60" height="60" as="geometry" />
        </mxCell>
        <mxCell id="P5Nrl4ShwJPzNBC8MYFL-108" value="" style="whiteSpace=wrap;html=1;aspect=fixed;fontFamily=Computer Modern;" vertex="1" parent="P5Nrl4ShwJPzNBC8MYFL-101">
          <mxGeometry x="180" width="60" height="60" as="geometry" />
        </mxCell>
        <mxCell id="P5Nrl4ShwJPzNBC8MYFL-109" value="" style="whiteSpace=wrap;html=1;aspect=fixed;fillColor=#FFFFFF;strokeColor=#000000;fontFamily=Computer Modern;" vertex="1" parent="P5Nrl4ShwJPzNBC8MYFL-101">
          <mxGeometry x="180" y="60" width="60" height="60" as="geometry" />
        </mxCell>
        <mxCell id="P5Nrl4ShwJPzNBC8MYFL-110" value="" style="whiteSpace=wrap;html=1;aspect=fixed;fontFamily=Computer Modern;" vertex="1" parent="P5Nrl4ShwJPzNBC8MYFL-101">
          <mxGeometry y="120" width="60" height="60" as="geometry" />
        </mxCell>
        <mxCell id="P5Nrl4ShwJPzNBC8MYFL-111" value="" style="whiteSpace=wrap;html=1;aspect=fixed;fontFamily=Computer Modern;" vertex="1" parent="P5Nrl4ShwJPzNBC8MYFL-101">
          <mxGeometry y="180" width="60" height="60" as="geometry" />
        </mxCell>
        <mxCell id="P5Nrl4ShwJPzNBC8MYFL-112" value="" style="whiteSpace=wrap;html=1;aspect=fixed;fillColor=#EA4335;fontFamily=Computer Modern;" vertex="1" parent="P5Nrl4ShwJPzNBC8MYFL-101">
          <mxGeometry x="60" y="120" width="60" height="60" as="geometry" />
        </mxCell>
        <mxCell id="P5Nrl4ShwJPzNBC8MYFL-113" value="" style="whiteSpace=wrap;html=1;aspect=fixed;fontFamily=Computer Modern;" vertex="1" parent="P5Nrl4ShwJPzNBC8MYFL-101">
          <mxGeometry x="60" y="180" width="60" height="60" as="geometry" />
        </mxCell>
        <mxCell id="P5Nrl4ShwJPzNBC8MYFL-114" value="" style="whiteSpace=wrap;html=1;aspect=fixed;fillColor=#EA4335;fontFamily=Computer Modern;" vertex="1" parent="P5Nrl4ShwJPzNBC8MYFL-101">
          <mxGeometry x="120" y="120" width="60" height="60" as="geometry" />
        </mxCell>
        <mxCell id="P5Nrl4ShwJPzNBC8MYFL-115" value="" style="whiteSpace=wrap;html=1;aspect=fixed;fillColor=#FFFFFF;strokeColor=#000000;fontFamily=Computer Modern;" vertex="1" parent="P5Nrl4ShwJPzNBC8MYFL-101">
          <mxGeometry x="120" y="180" width="60" height="60" as="geometry" />
        </mxCell>
        <mxCell id="P5Nrl4ShwJPzNBC8MYFL-116" value="" style="whiteSpace=wrap;html=1;aspect=fixed;fillColor=#FFFFFF;strokeColor=#000000;fontFamily=Computer Modern;" vertex="1" parent="P5Nrl4ShwJPzNBC8MYFL-101">
          <mxGeometry x="180" y="120" width="60" height="60" as="geometry" />
        </mxCell>
        <mxCell id="P5Nrl4ShwJPzNBC8MYFL-117" value="" style="whiteSpace=wrap;html=1;aspect=fixed;fillColor=#FFFFFF;strokeColor=#000000;fontFamily=Computer Modern;" vertex="1" parent="P5Nrl4ShwJPzNBC8MYFL-101">
          <mxGeometry x="180" y="180" width="60" height="60" as="geometry" />
        </mxCell>
        <mxCell id="P5Nrl4ShwJPzNBC8MYFL-118" value="Text" style="text;html=1;strokeColor=none;fillColor=none;align=center;verticalAlign=middle;whiteSpace=wrap;rounded=0;fontSize=23;fontColor=#FFFFFF;fontFamily=Computer Modern;" vertex="1" parent="CO-_M08FjH-IJA-1aRg9-1">
          <mxGeometry x="330" y="1950" width="40" height="20" as="geometry" />
        </mxCell>
        <mxCell id="P5Nrl4ShwJPzNBC8MYFL-120" style="edgeStyle=orthogonalEdgeStyle;rounded=0;orthogonalLoop=1;jettySize=auto;html=1;exitX=1;exitY=0;exitDx=0;exitDy=0;entryX=0;entryY=1;entryDx=0;entryDy=0;labelBackgroundColor=none;strokeColor=#4285F4;strokeWidth=5;fillColor=#FBBC05;fontSize=33;fontColor=#4285F4;fontFamily=Computer Modern;" edge="1" parent="CO-_M08FjH-IJA-1aRg9-1" source="P5Nrl4ShwJPzNBC8MYFL-92" target="P5Nrl4ShwJPzNBC8MYFL-40">
          <mxGeometry relative="1" as="geometry">
            <Array as="points">
              <mxPoint x="870" y="1640" />
              <mxPoint x="870" y="1480" />
            </Array>
          </mxGeometry>
        </mxCell>
        <mxCell id="P5Nrl4ShwJPzNBC8MYFL-121" style="edgeStyle=orthogonalEdgeStyle;rounded=0;orthogonalLoop=1;jettySize=auto;html=1;exitX=1;exitY=0;exitDx=0;exitDy=0;entryX=0;entryY=0;entryDx=0;entryDy=0;labelBackgroundColor=none;strokeColor=#4285F4;strokeWidth=5;fillColor=#FBBC05;fontSize=33;fontColor=#FFFFFF;fontFamily=Computer Modern;" edge="1" parent="CO-_M08FjH-IJA-1aRg9-1" source="P5Nrl4ShwJPzNBC8MYFL-92" target="P5Nrl4ShwJPzNBC8MYFL-110">
          <mxGeometry relative="1" as="geometry">
            <Array as="points">
              <mxPoint x="870" y="1640" />
              <mxPoint x="870" y="1800" />
            </Array>
          </mxGeometry>
        </mxCell>
        <mxCell id="P5Nrl4ShwJPzNBC8MYFL-122" value="&lt;span style=&quot;color: rgb(0, 0, 0); font-size: 36px;&quot;&gt;Result of computing the grids&lt;/span&gt;&lt;br style=&quot;color: rgb(0, 0, 0); font-size: 36px;&quot;&gt;&lt;span style=&quot;color: rgb(0, 0, 0); font-size: 36px;&quot;&gt;with which an edge collides&lt;/span&gt;" style="text;html=1;strokeColor=none;fillColor=none;align=center;verticalAlign=middle;whiteSpace=wrap;rounded=0;fontSize=36;fontColor=#4285F4;fontFamily=Computer Modern;" vertex="1" parent="CO-_M08FjH-IJA-1aRg9-1">
          <mxGeometry x="385" y="1820" width="430" height="150" as="geometry" />
        </mxCell>
        <mxCell id="P5Nrl4ShwJPzNBC8MYFL-123" value="&lt;font color=&quot;#000000&quot; style=&quot;font-size: 35px;&quot;&gt;Combining with OGM #1&lt;/font&gt;" style="text;html=1;strokeColor=none;fillColor=none;align=center;verticalAlign=middle;whiteSpace=wrap;rounded=0;fontSize=35;fontColor=#4285F4;fontFamily=Computer Modern;" vertex="1" parent="CO-_M08FjH-IJA-1aRg9-1">
          <mxGeometry x="870" y="1380" width="370" height="150" as="geometry" />
        </mxCell>
        <mxCell id="P5Nrl4ShwJPzNBC8MYFL-124" value="&lt;font color=&quot;#000000&quot; style=&quot;font-size: 35px;&quot;&gt;Combining with OGM #2&lt;/font&gt;" style="text;html=1;strokeColor=none;fillColor=none;align=center;verticalAlign=middle;whiteSpace=wrap;rounded=0;fontSize=35;fontColor=#4285F4;fontFamily=Computer Modern;" vertex="1" parent="CO-_M08FjH-IJA-1aRg9-1">
          <mxGeometry x="870" y="1700" width="370" height="150" as="geometry" />
        </mxCell>
        <mxCell id="P5Nrl4ShwJPzNBC8MYFL-125" style="edgeStyle=orthogonalEdgeStyle;rounded=0;orthogonalLoop=1;jettySize=auto;html=1;exitX=1;exitY=1;exitDx=0;exitDy=0;labelBackgroundColor=none;strokeColor=#4285F4;strokeWidth=5;fillColor=#FBBC05;fontSize=33;fontColor=#4285F4;fontFamily=Computer Modern;" edge="1" parent="CO-_M08FjH-IJA-1aRg9-1" source="P5Nrl4ShwJPzNBC8MYFL-46">
          <mxGeometry relative="1" as="geometry">
            <mxPoint x="1620" y="1480" as="targetPoint" />
            <Array as="points">
              <mxPoint x="1570" y="1480" />
              <mxPoint x="1570" y="1480" />
            </Array>
          </mxGeometry>
        </mxCell>
        <mxCell id="P5Nrl4ShwJPzNBC8MYFL-126" style="edgeStyle=orthogonalEdgeStyle;rounded=0;orthogonalLoop=1;jettySize=auto;html=1;exitX=1;exitY=1;exitDx=0;exitDy=0;labelBackgroundColor=none;strokeColor=#4285F4;strokeWidth=5;fillColor=#FBBC05;fontSize=33;fontColor=#4285F4;fontFamily=Computer Modern;" edge="1" parent="CO-_M08FjH-IJA-1aRg9-1">
          <mxGeometry relative="1" as="geometry">
            <mxPoint x="1620" y="1799.29" as="targetPoint" />
            <mxPoint x="1480" y="1799.29" as="sourcePoint" />
            <Array as="points">
              <mxPoint x="1570" y="1799.29" />
              <mxPoint x="1570" y="1799.29" />
            </Array>
          </mxGeometry>
        </mxCell>
        <mxCell id="P5Nrl4ShwJPzNBC8MYFL-127" value="&lt;font color=&quot;#34a853&quot; style=&quot;font-size: 43px;&quot;&gt;No Collision&lt;/font&gt;" style="text;html=1;strokeColor=none;fillColor=none;align=left;verticalAlign=middle;whiteSpace=wrap;rounded=0;fontSize=43;fontColor=#4285F4;fontStyle=1;fontFamily=Computer Modern;" vertex="1" parent="CO-_M08FjH-IJA-1aRg9-1">
          <mxGeometry x="1613" y="1470" width="240" height="20" as="geometry" />
        </mxCell>
        <mxCell id="P5Nrl4ShwJPzNBC8MYFL-128" value="&lt;font style=&quot;font-size: 43px;&quot;&gt;Collision&lt;/font&gt;" style="text;html=1;strokeColor=none;fillColor=none;align=left;verticalAlign=middle;whiteSpace=wrap;rounded=0;fontSize=43;fontColor=#EA4335;fontStyle=1;fontFamily=Computer Modern;" vertex="1" parent="CO-_M08FjH-IJA-1aRg9-1">
          <mxGeometry x="1613" y="1790" width="190" height="20" as="geometry" />
        </mxCell>
      </root>
    </mxGraphModel>
  </diagram>
</mxfile>
